<svg width="203" height="38" viewBox="0 0 203 38" fill="none" xmlns="http://www.w3.org/2000/svg">
<path d="M200.984 20.8145H198.81L191.446 12.6841L191.483 12.6416L198.275 4.95568H200.373L192.975 12.0572L200.984 20.8145Z" fill="#0B162B"/>
<path d="M190.789 4.95568H189.15V20.8145H190.789V4.95568Z" fill="#0B162B"/>
<path d="M179.662 4.99565L179.646 4.95568H178.18L172.139 20.8145H173.901L176.196 13.442H181.165L183.928 20.8145H185.688L179.662 4.99565ZM176.391 12.7777L178.424 6.24937H178.469L180.918 12.7777H176.391Z" fill="#0B162B"/>
<path d="M170.466 19.5396V20.8145H158.534V20.2838L158.545 20.2676L168.415 5.53135C168.202 5.53635 167.742 5.55383 166.911 5.62001L159.113 6.18694V4.95568H170.377V5.48764L170.366 5.50262L160.496 20.2389C160.785 20.2339 161.299 20.2076 162 20.1502L170.466 19.5396Z" fill="#0B162B"/>
<path d="M156.106 18.7566L155.963 20.2326L155.929 20.2476C154.682 20.7995 152.423 21.1292 150.958 21.1292C146.096 21.1292 142.43 17.5853 142.43 12.8851C142.43 8.18487 146.096 4.64099 150.958 4.64099C152.378 4.64099 154.61 4.96316 155.884 5.50012L155.926 5.51758L155.806 6.8787H155.592L155.574 6.86247C154.5 5.88721 152.774 5.30531 150.958 5.30531C146.944 5.30531 144.247 8.3522 144.247 12.8851C144.247 17.418 146.944 20.4649 150.958 20.4649C152.809 20.4649 154.642 19.8317 155.864 18.7716L155.881 18.7566H156.106Z" fill="#0B162B"/>
<path d="M140.071 19.5396V20.8145H128.138V20.2838L128.149 20.2676L138.02 5.53135C137.807 5.53635 137.346 5.55383 136.516 5.62001L128.717 6.18694V4.95568H139.982V5.48764L139.97 5.50262L130.1 20.2389C130.39 20.2339 130.903 20.2076 131.604 20.1502L140.071 19.5396Z" fill="#0B162B"/>
<path d="M125.766 16.8186C125.766 19.3972 123.861 21.1292 121.026 21.1292C119.815 21.1292 118.084 20.8108 116.616 20.3175L116.569 20.3013L116.714 18.8465H116.927L116.944 18.8627C118.07 19.8655 119.595 20.4649 121.026 20.4649C123.046 20.4649 124.35 19.2723 124.35 17.4255C124.35 15.8521 123.402 14.7307 120.727 13.1411C118.838 12.021 116.886 10.8621 116.886 8.50205C116.886 6.14195 118.702 4.64099 121.404 4.64099C122.625 4.64099 124.173 4.94068 124.93 5.32154L124.968 5.34153L124.848 6.69889H124.63L124.611 6.67891C123.786 5.78107 122.677 5.30531 121.404 5.30531C119.52 5.30531 118.302 6.33925 118.302 7.94012C118.302 9.75827 119.91 10.6936 121.613 11.6851L121.662 11.7125C123.679 12.8788 125.766 14.0851 125.766 16.8186Z" fill="#0B162B"/>
<path d="M112.716 4.95568L112.335 15.5848C112.2 19.2124 110.145 21.1292 106.391 21.1292C102.348 21.1292 99.9344 18.6355 99.9344 14.4585V4.95568H101.573V14.5035C101.573 18.121 103.394 20.1951 106.569 20.1951C108.09 20.1951 109.415 19.6869 110.3 18.7654C111.096 17.9362 111.494 16.8361 111.453 15.5848L111.072 4.95568H112.716Z" fill="#0B162B"/>
<path d="M42.7115 4.95568H39.8645V20.8145H41.5034V13.8466H42.7115C46.3073 13.8466 48.4549 12.1846 48.4549 9.40116C48.4549 6.61775 46.3073 4.95568 42.7115 4.95568ZM42.7115 13.1823H41.5034V5.62001H42.7115C45.3765 5.62001 46.727 6.89247 46.727 9.40116C46.727 11.9099 45.3765 13.1823 42.7115 13.1823Z" fill="#0B162B"/>
<path d="M54.2108 4.95568H52.5719V20.8145H54.2108V4.95568Z" fill="#0B162B"/>
<path d="M66.8686 19.5797V20.8147H59.8824V4.95583H66.8018V6.19082L62.8321 5.66511C62.2305 5.58395 61.7799 5.53775 61.5212 5.53151V12.2609C61.7354 12.2571 62.1488 12.2359 62.837 12.1935L66.5567 11.9649V13.1313L62.837 12.9027C62.1488 12.8603 61.7354 12.8403 61.5212 12.8366V20.2403C61.7935 20.234 62.2416 20.1891 62.8544 20.1066L66.8686 19.5797Z" fill="#0B162B"/>
<path d="M82.3661 4.95568V6.23562L77.9298 5.66496C77.3121 5.58379 76.8616 5.53885 76.6177 5.53135V20.8145H74.9789V5.53135C74.7362 5.53885 74.2857 5.58379 73.668 5.66496L69.2304 6.23562V4.95568H82.3661Z" fill="#0B162B"/>
<path d="M97.5269 20.5673V20.8145H96.5515C94.6019 20.8145 93.7936 19.9217 92.9494 16.8361C92.1609 13.969 90.8068 12.6329 88.6864 12.6329H88.4908V12.1034H88.6864C91.058 12.1034 92.2117 11.0357 92.2117 8.83923C92.2117 6.64272 91.1311 5.62001 88.9092 5.62001H87.5006V20.8145H85.8617V4.95568H88.9092C92.1065 4.95568 93.9397 6.363 93.9397 8.81675C93.9397 10.7223 92.817 11.9998 90.7758 12.4193V12.453C92.5979 12.8489 93.9137 14.2812 94.5833 16.5988C95.4374 19.6157 96.1665 20.2576 97.4786 20.556L97.5269 20.5673Z" fill="#0B162B"/>
<path d="M56.6556 32.7152C56.6391 32.42 56.5878 32.1397 56.5035 31.8812C56.3977 31.5475 56.2373 31.254 56.0289 31.0071C55.8189 30.7602 55.556 30.565 55.2451 30.4249C54.9392 30.2864 54.5804 30.2147 54.1786 30.2147C53.8098 30.2147 53.451 30.2881 53.1137 30.4316C52.783 30.575 52.4853 30.7819 52.2323 31.0438C51.9827 31.3057 51.7809 31.6209 51.6288 31.9846C51.5163 32.2582 51.4452 32.5568 51.4188 32.8771C51.4138 32.9238 51.4105 32.9705 51.4089 33.0189C51.4072 33.0722 51.4056 33.1256 51.4056 33.1807C51.4056 33.2741 51.4089 33.3675 51.4155 33.4576C51.4155 33.4609 51.4155 33.4659 51.4155 33.4692C51.4386 33.7912 51.5015 34.0915 51.604 34.3617C51.7412 34.7037 51.9264 35.0023 52.1563 35.2492C52.3861 35.491 52.654 35.6779 52.9533 35.8063C53.2592 35.9348 53.5866 35.9998 53.9289 35.9998C54.3539 35.9998 54.7408 35.9197 55.0781 35.7613C55.4188 35.6011 55.7098 35.3809 55.9429 35.1107C56.1777 34.8388 56.358 34.5135 56.4803 34.1448C56.5432 33.953 56.5911 33.7512 56.6192 33.541C56.649 33.3508 56.6622 33.154 56.6622 32.9521C56.6622 32.8721 56.6606 32.7936 56.654 32.7152H56.6556ZM55.4369 34.9739C55.1277 35.3626 54.6879 35.5594 54.1257 35.5594C53.8611 35.5594 53.6065 35.5027 53.3667 35.3893C53.1319 35.2758 52.9235 35.1074 52.7466 34.8905C52.5697 34.6653 52.4241 34.3884 52.3167 34.0665C52.2125 33.7412 52.1596 33.3608 52.1596 32.9371C52.1596 32.5418 52.2108 32.1981 52.3084 31.9145C52.3266 31.8595 52.3481 31.8061 52.3696 31.7544C52.4589 31.5375 52.5713 31.3524 52.7003 31.2073C52.783 31.1138 52.8723 31.0321 52.9682 30.962C53.0641 30.8936 53.1666 30.8353 53.2741 30.7902C53.4924 30.7018 53.7239 30.6568 53.9603 30.6568C54.2546 30.6568 54.5225 30.7168 54.7573 30.8353C54.9971 30.9537 55.2021 31.1255 55.3692 31.349C55.5411 31.5659 55.6751 31.8361 55.7693 32.1497C55.8636 32.4583 55.9099 32.812 55.9099 33.1957C55.9099 33.9847 55.7511 34.5819 55.4369 34.9739Z" fill="#0B162B"/>
<path d="M50.053 30.3063L50.0481 30.3531C50.0365 30.4582 50.0084 30.5616 49.9604 30.6566C49.9174 30.7534 49.8678 30.8251 49.8133 30.8685L49.8 30.8785H49.7835C49.5569 30.8568 49.2907 30.8318 48.9848 30.8018C48.707 30.7684 48.4325 30.7401 48.1465 30.715V35.7778L48.125 35.7895C48.0406 35.8362 47.9431 35.8679 47.824 35.8863C47.7182 35.9063 47.6041 35.9163 47.4867 35.9163H47.4454V30.715C47.3065 30.7284 47.1593 30.7451 47.0005 30.7634C46.8236 30.7784 46.65 30.7934 46.4797 30.8085C46.3077 30.8235 46.144 30.8385 45.9886 30.8535C45.8364 30.8652 45.7075 30.8719 45.6016 30.8769L45.5553 30.8802L45.5586 30.8318C45.5702 30.715 45.5934 30.6133 45.6297 30.5299C45.6727 30.4381 45.724 30.3681 45.7852 30.3163L45.7967 30.3063H50.053Z" fill="#0B162B"/>
<path d="M43.8554 34.2232C43.8554 34.4568 43.8058 34.682 43.7082 34.8955C43.6107 35.1074 43.4685 35.2992 43.2833 35.4644C43.0997 35.6245 42.8748 35.7546 42.6136 35.853C42.3606 35.9448 42.0696 35.9915 41.7471 35.9915C41.4247 35.9915 41.1618 35.9498 40.9336 35.868C40.7054 35.7863 40.5103 35.6829 40.3565 35.5578C40.201 35.4276 40.0803 35.2825 39.9976 35.1257C39.9199 34.9689 39.8786 34.8138 39.872 34.6653V34.652L39.8802 34.6403C39.9348 34.5585 40.0224 34.4835 40.1432 34.4151C40.2622 34.3467 40.3829 34.3083 40.5003 34.3033H40.5384L40.5433 34.3417C40.5582 34.4785 40.5979 34.6203 40.6607 34.7621C40.7236 34.8972 40.8145 35.0223 40.9303 35.1357C41.0543 35.2458 41.2048 35.3376 41.3784 35.4093C41.552 35.4777 41.7653 35.5127 42.0117 35.5127C42.3672 35.5127 42.6533 35.421 42.86 35.2408C43.065 35.059 43.1692 34.8171 43.1692 34.5202C43.1692 34.2233 43.0964 33.9997 42.9526 33.8162C42.8087 33.6311 42.5392 33.4876 42.1522 33.3875L41.4429 33.204C41.2659 33.1606 41.0923 33.1073 40.9253 33.0455C40.7599 32.9822 40.6144 32.9004 40.4921 32.802C40.3664 32.6969 40.2672 32.5684 40.1944 32.4216C40.1597 32.3466 40.1349 32.2632 40.1167 32.1731C40.1167 32.1698 40.1167 32.1681 40.115 32.1648C40.1002 32.0747 40.0919 31.9763 40.0919 31.8712V31.8428C40.0969 31.6393 40.1481 31.4408 40.2473 31.2506C40.3499 31.0538 40.4937 30.877 40.6723 30.7285C40.8558 30.5734 41.0708 30.4482 41.3106 30.3565C41.557 30.2631 41.8232 30.2147 42.1026 30.2147C42.1324 30.2147 42.1605 30.2147 42.1886 30.2164H42.2052C42.3788 30.213 42.5491 30.2364 42.7111 30.2898C42.7508 30.2998 42.7889 30.3115 42.8252 30.3248C43.0237 30.3965 43.1874 30.4866 43.313 30.59C43.4371 30.6951 43.5297 30.8136 43.5875 30.9403C43.6487 31.0588 43.6867 31.1689 43.6967 31.264V31.2773L43.6934 31.2873C43.6553 31.3657 43.5859 31.4358 43.4817 31.5025C43.3775 31.5626 43.2618 31.6009 43.1328 31.6159L43.0948 31.621L43.0882 31.5826C43.0683 31.4725 43.0303 31.3674 42.979 31.2673C42.9245 31.1589 42.8467 31.0638 42.7475 30.9837C42.65 30.8953 42.5276 30.8236 42.3821 30.7685C42.2349 30.7152 42.0596 30.6868 41.8612 30.6868C41.5305 30.6868 41.2626 30.7752 41.0658 30.9504C40.8658 31.1222 40.7699 31.344 40.7699 31.6276C40.7699 31.7894 40.7947 31.9245 40.841 32.0296C40.8889 32.1297 40.9551 32.2148 41.0427 32.2882C41.1287 32.3566 41.2312 32.4133 41.347 32.4567C41.4792 32.5034 41.6148 32.5451 41.7488 32.5768L42.4135 32.7436C42.6913 32.8153 42.9245 32.9037 43.1097 33.0055C43.2998 33.1089 43.4503 33.2257 43.5594 33.3508C43.6686 33.4759 43.7446 33.6177 43.786 33.7712C43.8323 33.9146 43.8554 34.0664 43.8554 34.2232Z" fill="#0B162B"/>
<path d="M110.679 30.3198L110.669 30.2914H110.641C110.537 30.2914 110.436 30.3014 110.332 30.3231C110.235 30.3414 110.137 30.3748 110.044 30.4182L110.028 30.4248L110.023 30.4399C109.899 30.7568 109.758 31.1105 109.603 31.4991L109.54 31.6576C109.363 32.1047 109.18 32.5684 108.989 33.0505C108.803 33.5276 108.617 34.0097 108.431 34.4968C108.302 34.8321 108.176 35.154 108.057 35.461L107.885 35.9064L107.933 35.9164C107.959 35.9214 107.989 35.9231 108.025 35.9231C108.067 35.9297 108.108 35.9314 108.153 35.9314C108.227 35.9314 108.303 35.923 108.376 35.908C108.455 35.898 108.521 35.878 108.571 35.8496L108.586 35.8413L108.591 35.8246C108.728 35.3359 108.882 34.8237 109.049 34.3016H111.405L111.991 35.9114L112.014 35.9164C112.042 35.9214 112.065 35.9231 112.09 35.9231H112.166C112.28 35.9231 112.379 35.913 112.459 35.893C112.546 35.8763 112.611 35.8563 112.66 35.828L112.692 35.8113L110.679 30.3198ZM109.198 33.8529C109.366 33.3591 109.54 32.862 109.714 32.3732C109.864 31.9595 110.041 31.4808 110.218 31.0154L111.247 33.8529H109.198Z" fill="#0B162B"/>
<path d="M105.849 30.2914V35.7779L105.828 35.7896C105.743 35.8363 105.644 35.868 105.527 35.8863C105.421 35.9064 105.309 35.9164 105.19 35.9164H105.148V30.4449L105.17 30.4332C105.345 30.3398 105.56 30.2914 105.808 30.2914H105.849Z" fill="#0B162B"/>
<path d="M102.602 33.0005V35.1457L102.592 35.1574C102.536 35.2225 102.453 35.3025 102.345 35.396C102.236 35.4927 102.091 35.5861 101.914 35.6762C101.743 35.7613 101.535 35.838 101.295 35.8997C101.056 35.9665 100.779 35.9998 100.477 35.9998C100.144 35.9998 99.8171 35.9431 99.5062 35.8313C99.197 35.7146 98.9159 35.5361 98.6678 35.3042C98.4264 35.064 98.2313 34.7671 98.0858 34.4218C97.9436 34.0665 97.8708 33.6494 97.8708 33.1807C97.8708 32.7786 97.9436 32.3916 98.0858 32.0313C98.2329 31.671 98.4363 31.354 98.6893 31.0888C98.9473 30.8186 99.2532 30.6034 99.6004 30.4466C99.9477 30.2931 100.328 30.2147 100.733 30.2147C101.074 30.2147 101.361 30.2597 101.586 30.3482C101.815 30.4382 101.992 30.5417 102.127 30.6684C102.268 30.7886 102.37 30.917 102.431 31.0471C102.493 31.1705 102.532 31.2773 102.549 31.3624V31.3757L102.544 31.3891C102.504 31.4641 102.431 31.5392 102.327 31.6093C102.223 31.6743 102.104 31.7177 101.97 31.7377L101.932 31.7427L101.924 31.706C101.894 31.5826 101.844 31.4575 101.777 31.3374C101.709 31.2139 101.613 31.1055 101.494 31.0137C101.375 30.9137 101.226 30.8336 101.052 30.7769C100.879 30.7168 100.667 30.6868 100.424 30.6868C100.181 30.6868 99.9675 30.7318 99.7526 30.8202C99.5393 30.9053 99.3425 31.0371 99.1722 31.2156C99.0068 31.3907 98.8696 31.6226 98.7654 31.9012C98.6662 32.1798 98.6166 32.5168 98.6166 32.8988C98.6166 33.3575 98.6778 33.7562 98.7968 34.0881C98.9192 34.4151 99.0812 34.6887 99.278 34.9022C99.4764 35.109 99.7079 35.2642 99.9642 35.3643C100.219 35.4627 100.485 35.5127 100.756 35.5127C101.07 35.5127 101.32 35.481 101.497 35.4176C101.671 35.3476 101.803 35.2875 101.899 35.2342V33.4142C101.671 33.4242 101.438 33.4342 101.196 33.4426C100.938 33.4476 100.703 33.4492 100.492 33.4492H100.444L100.45 33.4025C100.464 33.3074 100.488 33.2257 100.525 33.154C100.568 33.0739 100.616 33.0205 100.669 32.9905L100.679 32.9855L102.602 33.0005Z" fill="#0B162B"/>
<path d="M95.6484 31.8812C95.5409 31.5459 95.3805 31.2523 95.1722 31.0071C94.9622 30.7602 94.6993 30.565 94.3884 30.4249C94.0841 30.2864 93.7237 30.2147 93.3218 30.2147C92.9531 30.2147 92.5943 30.2881 92.2569 30.4316C91.9262 30.575 91.6286 30.7819 91.3756 31.0438C91.1259 31.3057 90.9242 31.6209 90.772 31.9846C90.6249 32.3432 90.5505 32.7453 90.5505 33.1807C90.5505 33.616 90.6166 34.0131 90.7489 34.3617C90.8861 34.702 91.0714 35.0006 91.3012 35.2492C91.531 35.491 91.7989 35.6779 92.0982 35.8063C92.4058 35.9348 92.7332 35.9998 93.0738 35.9998C93.4988 35.9998 93.8857 35.9197 94.223 35.7613C94.5637 35.6011 94.8547 35.3826 95.0895 35.1107C95.3227 34.8388 95.5029 34.5152 95.6253 34.1449C95.7476 33.7762 95.8088 33.3742 95.8088 32.9521C95.8088 32.5685 95.7542 32.2081 95.6484 31.8812ZM93.2689 35.5594C93.0044 35.5594 92.7497 35.5027 92.5099 35.3893C92.2768 35.2758 92.0684 35.1074 91.8915 34.8905C91.7113 34.662 91.5674 34.3851 91.4616 34.0665C91.3574 33.7412 91.3045 33.3608 91.3045 32.9371C91.3045 32.5401 91.3541 32.1965 91.4533 31.9145C91.5525 31.6243 91.6848 31.3857 91.8452 31.2073C92.0089 31.0204 92.2024 30.8803 92.4174 30.7902C92.6373 30.7018 92.8671 30.6568 93.1036 30.6568C93.3996 30.6568 93.6674 30.7168 93.9006 30.8353C94.1387 30.952 94.3454 31.1255 94.5124 31.349C94.6844 31.5659 94.8183 31.8361 94.9126 32.1497C95.0068 32.4583 95.0548 32.812 95.0548 33.1957C95.0548 33.983 94.896 34.5802 94.5802 34.9739C94.2726 35.3626 93.8311 35.5594 93.2689 35.5594Z" fill="#0B162B"/>
<path d="M89.0374 35.3425L89.0341 35.3909C89.0242 35.511 88.9944 35.6211 88.9465 35.7179C88.8985 35.8113 88.8423 35.8763 88.7794 35.9114L88.7695 35.9164H85.5864V30.4449L85.6079 30.4332C85.7865 30.3381 85.9965 30.2914 86.2462 30.2914H86.2875V35.496C86.7042 35.481 87.1044 35.461 87.5112 35.436C87.951 35.4109 88.4438 35.3809 88.9894 35.3459L89.0374 35.3425Z" fill="#0B162B"/>
<path d="M83.0467 31.8812C82.9425 31.5509 82.7821 31.2573 82.5721 31.0071C82.3621 30.7602 82.0975 30.5633 81.7867 30.4249C81.4841 30.2864 81.1252 30.2147 80.7218 30.2147C80.3514 30.2147 79.9925 30.2881 79.6569 30.4316C79.3245 30.575 79.0285 30.7819 78.7755 31.0438C78.5258 31.3057 78.3224 31.6209 78.172 31.9846C78.0231 32.3416 77.9487 32.7436 77.9487 33.1807C77.9487 33.6177 78.0165 34.0097 78.1488 34.3617C78.2861 34.7053 78.4713 35.0039 78.6994 35.2492C78.9293 35.491 79.1988 35.6795 79.4981 35.8063C79.804 35.9348 80.1314 35.9998 80.4721 35.9998C80.8987 35.9998 81.2856 35.9197 81.623 35.7613C81.9619 35.6011 82.253 35.3826 82.4878 35.1107C82.7226 34.8371 82.9028 34.5135 83.0252 34.1448C83.1459 33.7795 83.2071 33.3775 83.2071 32.9521C83.2071 32.5685 83.1525 32.2081 83.0467 31.8812ZM80.6688 35.5594C80.4043 35.5594 80.1496 35.5027 79.9099 35.3893C79.6734 35.2742 79.4651 35.1074 79.2898 34.8905C79.1129 34.667 78.9673 34.3901 78.8599 34.0665C78.7557 33.7412 78.7028 33.3608 78.7028 32.9371C78.7028 32.5434 78.7524 32.1998 78.8532 31.9145C78.9491 31.6276 79.0814 31.3908 79.2435 31.2073C79.4121 31.0171 79.599 30.8803 79.8156 30.7902C80.0355 30.7018 80.267 30.6568 80.5035 30.6568C80.7978 30.6568 81.0657 30.7168 81.2989 30.8353C81.5403 30.9537 81.7453 31.1272 81.9107 31.349C82.0843 31.5659 82.2182 31.8361 82.3108 32.1497C82.4051 32.4583 82.4531 32.812 82.4531 33.1957C82.4531 33.9847 82.2943 34.5836 81.9785 34.9739C81.6726 35.3626 81.2311 35.5594 80.6688 35.5594Z" fill="#0B162B"/>
<path d="M64.535 35.7829L64.5118 35.7963C64.4391 35.838 64.3432 35.868 64.2175 35.8863C64.1017 35.9064 63.9843 35.9164 63.8719 35.9164H63.8355L63.3146 31.339C63.0831 31.9228 62.8516 32.5034 62.6201 33.0822C62.3738 33.7094 62.1373 34.3183 61.9108 34.9071L61.9008 34.9222C61.8711 34.9522 61.8314 34.9772 61.7834 34.9989C61.7388 35.0139 61.6941 35.0273 61.6445 35.0423L61.628 35.0473C61.58 35.0623 61.5271 35.074 61.4643 35.0856C61.4048 35.0907 61.3535 35.094 61.3072 35.094H61.2791L59.695 31.2372C59.6652 31.5775 59.6355 31.9245 59.6057 32.2782L59.5147 33.4876C59.4899 33.8829 59.4635 34.2749 59.4387 34.6603C59.4188 35.0406 59.4006 35.4043 59.3858 35.7546V35.7779L59.3659 35.7896C59.2866 35.8363 59.1873 35.868 59.0633 35.8863C58.9525 35.9064 58.8384 35.9164 58.726 35.9164H58.6797L58.6847 35.8697C58.7888 35.0022 58.9029 34.0981 59.0253 33.1823C59.1477 32.2531 59.2733 31.3423 59.394 30.4732L59.3973 30.4532L59.4139 30.4432C59.485 30.3998 59.5776 30.3681 59.7049 30.3381C59.8223 30.3081 59.9347 30.2914 60.0389 30.2914H60.067L60.077 30.3181L61.6842 34.3233C61.9273 33.7061 62.177 33.0789 62.43 32.4416C62.6995 31.7777 62.9657 31.1054 63.222 30.4399L63.2287 30.4248L63.2419 30.4182C63.3295 30.3748 63.4271 30.3431 63.5329 30.3231C63.6454 30.3014 63.7545 30.2914 63.857 30.2914H63.8934L63.8983 30.3281L64.535 35.7829Z" fill="#0B162B"/>
<path d="M76.596 30.3063L76.5911 30.3531C76.5812 30.4582 76.5514 30.5616 76.5018 30.6583C76.4588 30.7551 76.4109 30.8251 76.3546 30.8685L76.343 30.8785H76.3265C76.1 30.8568 75.8338 30.8318 75.5279 30.8018C75.2501 30.7684 74.9755 30.7401 74.6895 30.715V35.7778L74.668 35.7895C74.5837 35.8362 74.4844 35.8679 74.367 35.8863C74.2612 35.9063 74.1488 35.9163 74.0297 35.9163H73.9884V30.715C73.8495 30.7284 73.7023 30.7451 73.5436 30.7634L73.021 30.8085C72.8507 30.8235 72.687 30.8385 72.5316 30.8535C72.3795 30.8652 72.2505 30.8719 72.1446 30.8769L72.0984 30.8802L72.1017 30.8318C72.1116 30.7167 72.1364 30.6149 72.1728 30.5299C72.2158 30.4381 72.2654 30.3681 72.3282 30.3163L72.3398 30.3063H76.596Z" fill="#0B162B"/>
<path d="M69.1152 30.3198L69.1053 30.2914H69.0772C68.9746 30.2914 68.8705 30.3014 68.7663 30.3231C68.6654 30.3431 68.5695 30.3748 68.4786 30.4182L68.4637 30.4248L68.4587 30.4399C68.3165 30.8002 68.1561 31.2055 67.9759 31.6576C67.799 32.1047 67.6154 32.5684 67.4236 33.0505C67.2384 33.5276 67.0515 34.0097 66.8663 34.4968L66.744 34.8087C66.6034 35.1757 66.4678 35.526 66.3372 35.8597L66.319 35.9064L66.367 35.9164C66.3951 35.9214 66.4265 35.9231 66.4596 35.9231C66.5009 35.9281 66.5439 35.9314 66.5869 35.9314C66.663 35.9314 66.739 35.923 66.8101 35.908C66.8911 35.898 66.9573 35.878 67.0069 35.8496L67.0218 35.8413L67.0267 35.8246C67.1607 35.3359 67.3161 34.8237 67.4848 34.3016H69.8411L70.4199 35.8897L70.4265 35.9114L70.4496 35.9164C70.4744 35.9214 70.5009 35.9231 70.5257 35.9231H70.6017C70.7142 35.9231 70.8134 35.913 70.8961 35.893C70.9821 35.8763 71.0466 35.8563 71.0962 35.828L71.1276 35.8113L69.1152 30.3198ZM69.6807 33.8529H67.6336C67.8023 33.3575 67.9759 32.8603 68.1495 32.3732C68.3116 31.9245 68.4819 31.4691 68.6522 31.017L69.6807 33.8529Z" fill="#0B162B"/>
<path d="M198.988 30.3196L198.978 30.2913H198.95C198.847 30.2913 198.741 30.3013 198.639 30.3229C198.541 30.3413 198.443 30.3747 198.351 30.418L198.334 30.4247L198.329 30.4397C198.177 30.8267 198.015 31.2371 197.847 31.6575C197.671 32.1045 197.488 32.5683 197.296 33.0504C197.111 33.5274 196.924 34.0095 196.739 34.4966L196.618 34.8086C196.476 35.1756 196.34 35.5259 196.21 35.8595L196.191 35.9062L196.239 35.9162C196.266 35.9212 196.297 35.9229 196.332 35.9229C196.373 35.9279 196.416 35.9312 196.459 35.9312C196.535 35.9312 196.611 35.9229 196.682 35.9079C196.762 35.8979 196.826 35.8779 196.879 35.8495L196.894 35.8411L196.899 35.8245C197.033 35.3374 197.187 34.8253 197.357 34.3015H199.713L200.292 35.8895L200.299 35.9112L200.322 35.9162C200.348 35.9212 200.372 35.9229 200.398 35.9229H200.472C200.587 35.9229 200.686 35.9129 200.768 35.8929C200.851 35.8762 200.919 35.8545 200.969 35.8278L201 35.8111L198.988 30.3196ZM197.506 33.8527C197.675 33.3573 197.848 32.8602 198.024 32.3731C198.186 31.9244 198.354 31.469 198.525 31.0169L199.553 33.8527H197.506Z" fill="#0B162B"/>
<path d="M194.156 30.2914V35.7779L194.134 35.7896C194.053 35.8363 193.952 35.868 193.835 35.8863C193.727 35.9064 193.613 35.9164 193.496 35.9164H193.455V30.4449L193.476 30.4332C193.651 30.3398 193.866 30.2914 194.114 30.2914H194.156Z" fill="#0B162B"/>
<path d="M190.908 33.0005V35.1441L190.898 35.1557C190.849 35.2174 190.768 35.2959 190.652 35.396C190.543 35.4927 190.397 35.5861 190.22 35.6762C190.05 35.7613 189.842 35.838 189.602 35.8997C189.362 35.9665 189.086 35.9998 188.785 35.9998C188.453 35.9998 188.125 35.9431 187.813 35.8313C187.502 35.7129 187.221 35.5344 186.976 35.3025C186.735 35.0656 186.538 34.7687 186.392 34.4218C186.25 34.0664 186.177 33.6494 186.177 33.1807C186.177 32.7786 186.25 32.3916 186.392 32.0313C186.54 31.671 186.743 31.354 186.996 31.0888C187.256 30.8186 187.561 30.6034 187.907 30.4466C188.254 30.2931 188.636 30.2147 189.041 30.2147C189.382 30.2147 189.668 30.2597 189.893 30.3482C190.121 30.4366 190.303 30.545 190.435 30.6684C190.573 30.7869 190.675 30.9136 190.738 31.0454C190.801 31.1739 190.839 31.2773 190.855 31.3624V31.3757L190.85 31.3874C190.812 31.4641 190.74 31.5392 190.634 31.6093C190.53 31.6743 190.409 31.7177 190.277 31.7377L190.239 31.7427L190.23 31.706C190.201 31.5826 190.151 31.4575 190.083 31.3373C190.017 31.2172 189.923 31.1088 189.8 31.0137C189.681 30.9136 189.534 30.8352 189.361 30.7769C189.184 30.7168 188.977 30.6868 188.732 30.6868C188.501 30.6868 188.274 30.7318 188.059 30.8202C187.844 30.9053 187.649 31.0388 187.479 31.2156C187.312 31.3941 187.176 31.6259 187.072 31.9012C186.974 32.1764 186.925 32.5134 186.925 32.8987C186.925 33.3608 186.984 33.7595 187.103 34.0881C187.226 34.4151 187.388 34.6886 187.585 34.9022C187.785 35.109 188.016 35.2642 188.271 35.3642C188.525 35.4627 188.792 35.5127 189.063 35.5127C189.377 35.5127 189.627 35.481 189.805 35.4176C189.981 35.3476 190.11 35.2875 190.207 35.2341V33.4142C189.979 33.4242 189.744 33.4342 189.503 33.4425C189.245 33.4475 189.012 33.4492 188.8 33.4492H188.754L188.759 33.4025C188.769 33.3158 188.793 33.2324 188.831 33.154C188.874 33.0739 188.922 33.0205 188.975 32.9905L188.985 32.9855L190.908 33.0005Z" fill="#0B162B"/>
<path d="M183.955 31.8812C183.848 31.5459 183.687 31.2523 183.479 31.0071C183.272 30.7619 183.008 30.565 182.695 30.4249C182.391 30.2864 182.032 30.2147 181.63 30.2147C181.26 30.2147 180.901 30.2881 180.564 30.4316C180.233 30.5767 179.937 30.7819 179.684 31.0438C179.433 31.3073 179.229 31.6243 179.079 31.9846C178.932 32.3432 178.857 32.7453 178.857 33.1807C178.857 33.616 178.925 34.0147 179.057 34.3617C179.194 34.7053 179.38 35.0039 179.608 35.2492C179.838 35.491 180.107 35.6795 180.407 35.8063C180.712 35.9348 181.04 35.9998 181.38 35.9998C181.807 35.9998 182.194 35.9197 182.531 35.7613C182.87 35.6011 183.161 35.3809 183.396 35.1107C183.629 34.8388 183.81 34.5152 183.932 34.1448C184.054 33.7812 184.115 33.3792 184.115 32.9521C184.115 32.5685 184.061 32.2081 183.955 31.8812ZM181.577 35.5594C181.309 35.5594 181.061 35.5044 180.818 35.3893C180.583 35.2758 180.375 35.1074 180.198 34.8905C180.021 34.6653 179.876 34.3884 179.768 34.0665C179.664 33.7412 179.611 33.3608 179.611 32.9371C179.611 32.5401 179.661 32.1965 179.76 31.9145C179.858 31.6276 179.99 31.3891 180.152 31.2073C180.321 31.0171 180.507 30.8803 180.724 30.7902C180.944 30.7018 181.174 30.6568 181.41 30.6568C181.706 30.6568 181.974 30.7168 182.207 30.8353C182.445 30.952 182.652 31.1255 182.819 31.349C182.991 31.5659 183.125 31.8361 183.219 32.1497C183.313 32.4583 183.361 32.812 183.361 33.1957C183.361 33.9847 183.203 34.5836 182.887 34.9739C182.579 35.3626 182.138 35.5594 181.577 35.5594Z" fill="#0B162B"/>
<path d="M177.344 35.3425L177.341 35.3909C177.329 35.5177 177.301 35.6244 177.253 35.7195C177.204 35.8146 177.149 35.878 177.086 35.9114L177.076 35.9164H173.893V30.4449L173.915 30.4332C174.092 30.3398 174.307 30.2914 174.555 30.2914H174.596V35.496C175.011 35.481 175.423 35.461 175.818 35.436C176.258 35.4109 176.749 35.3809 177.296 35.3459L177.344 35.3425Z" fill="#0B162B"/>
<path d="M171.355 31.8812C171.247 31.5459 171.087 31.2523 170.879 31.0071C170.669 30.7602 170.404 30.5633 170.093 30.4249C169.791 30.2864 169.432 30.2147 169.028 30.2147C168.66 30.2147 168.301 30.2881 167.963 30.4316C167.633 30.575 167.335 30.7819 167.082 31.0438C166.832 31.3057 166.631 31.6209 166.478 31.9846C166.331 32.3432 166.257 32.7453 166.257 33.1807C166.257 33.616 166.323 34.0131 166.455 34.3617C166.593 34.7037 166.778 35.0006 167.008 35.2492C167.237 35.491 167.505 35.6779 167.805 35.8063C168.112 35.9348 168.44 35.9998 168.78 35.9998C169.205 35.9998 169.592 35.9197 169.929 35.7613C170.27 35.6011 170.561 35.3826 170.796 35.1107C171.029 34.8405 171.209 34.5152 171.332 34.1448C171.454 33.7762 171.515 33.3742 171.515 32.9521C171.515 32.5685 171.461 32.2081 171.355 31.8812ZM168.975 35.5594C168.711 35.5594 168.456 35.5027 168.216 35.3893C167.983 35.2758 167.775 35.1074 167.598 34.8905C167.419 34.6636 167.274 34.3867 167.166 34.0665C167.064 33.7395 167.011 33.3592 167.011 32.9371C167.011 32.5401 167.061 32.1965 167.16 31.9145C167.259 31.6243 167.391 31.3857 167.552 31.2073C167.715 31.0204 167.909 30.8803 168.124 30.7902C168.342 30.7018 168.572 30.6568 168.81 30.6568C169.106 30.6568 169.374 30.7168 169.607 30.8353C169.847 30.9537 170.052 31.1255 170.217 31.349C170.389 31.5659 170.525 31.8345 170.619 32.1497C170.713 32.46 170.76 32.802 170.76 33.1957C170.76 33.9847 170.601 34.5836 170.285 34.9739C169.979 35.3626 169.538 35.5594 168.975 35.5594Z" fill="#0B162B"/>
<path d="M164.903 30.3063L164.898 30.3531C164.888 30.4582 164.858 30.5599 164.81 30.6566C164.765 30.7551 164.717 30.8251 164.665 30.8685L164.651 30.8785H164.635C164.408 30.8568 164.142 30.8318 163.834 30.8018C163.557 30.7684 163.282 30.7401 162.996 30.715V35.7778L162.975 35.7895C162.89 35.8379 162.791 35.8679 162.675 35.8863C162.568 35.9063 162.454 35.9163 162.336 35.9163H162.295V30.715C162.158 30.7284 162.009 30.7451 161.85 30.7634C161.673 30.7784 161.5 30.7934 161.329 30.8085C161.157 30.8235 160.994 30.8385 160.838 30.8535C160.688 30.8652 160.557 30.8719 160.451 30.8769L160.405 30.8802L160.408 30.8318C160.418 30.7167 160.443 30.6149 160.479 30.5299C160.524 30.4381 160.574 30.3681 160.635 30.3163L160.646 30.3063H164.903Z" fill="#0B162B"/>
<path d="M153.622 35.8659L153.815 30.2142H153.907L157.79 35.0269H157.836L157.667 30.3251H158.192L157.999 35.9767H157.906L154.023 31.1641H153.977L154.147 35.8659H153.622Z" fill="#0B162B"/>
<path d="M149.612 30.3198L149.603 30.2914H149.574C149.47 30.2914 149.369 30.3014 149.265 30.3231C149.168 30.3414 149.07 30.3748 148.978 30.4182L148.961 30.4248L148.956 30.4399C148.832 30.7568 148.691 31.1105 148.536 31.4991L148.473 31.6576C148.296 32.1047 148.113 32.5684 147.923 33.0505C147.736 33.5276 147.55 34.0097 147.364 34.4968C147.235 34.8321 147.111 35.1524 146.992 35.4593L146.818 35.9064L146.866 35.9164C146.892 35.9214 146.924 35.9247 146.959 35.9231C147.002 35.9297 147.043 35.9314 147.084 35.9314C147.16 35.9314 147.235 35.9247 147.309 35.908C147.388 35.898 147.455 35.878 147.504 35.8496L147.519 35.8413L147.524 35.8246C147.651 35.3625 147.802 34.8638 147.982 34.3016H150.338L150.917 35.8897L150.924 35.9114L150.947 35.9164C150.972 35.9214 150.998 35.9231 151.023 35.9231H151.099C151.213 35.9231 151.312 35.913 151.393 35.893C151.479 35.8763 151.546 35.8563 151.593 35.828L151.625 35.8113L149.612 30.3198ZM148.131 33.8529C148.301 33.3575 148.475 32.8603 148.647 32.3732C148.799 31.9579 148.976 31.4775 149.151 31.0154L150.18 33.8529H148.131Z" fill="#0B162B"/>
<path d="M145.196 35.3425L145.193 35.3909C145.183 35.511 145.153 35.6211 145.105 35.7179C145.054 35.8146 144.999 35.878 144.938 35.9114L144.928 35.9164H141.745V30.4449L141.766 30.4332C141.942 30.3398 142.157 30.2914 142.405 30.2914H142.446V35.496C142.863 35.481 143.263 35.461 143.67 35.436C144.108 35.4109 144.601 35.3809 145.148 35.3459L145.196 35.3425Z" fill="#0B162B"/>
<path d="M139.377 31.2339C139.311 31.0438 139.198 30.8686 139.043 30.7151C138.893 30.5633 138.689 30.4432 138.439 30.3565C138.188 30.2631 137.876 30.2147 137.512 30.2147C137.169 30.2147 136.844 30.2464 136.546 30.3081C136.243 30.3715 135.987 30.4416 135.764 30.5233L135.736 30.5333V35.9164H135.777C135.895 35.9164 136.009 35.9064 136.116 35.8864C136.232 35.868 136.333 35.8363 136.415 35.7896L136.437 35.7779V33.7862C136.51 33.7962 136.592 33.8062 136.693 33.8146C136.806 33.8262 136.928 33.8312 137.067 33.8312C137.401 33.8312 137.718 33.7879 138.008 33.6994C138.302 33.606 138.552 33.4759 138.767 33.3041C138.988 33.1339 139.162 32.9221 139.284 32.6752C139.413 32.4266 139.478 32.1397 139.478 31.8244C139.478 31.6226 139.443 31.4241 139.377 31.2339ZM137.338 33.3975C137.126 33.3975 136.941 33.3775 136.791 33.3375C136.663 33.3024 136.544 33.2574 136.437 33.2007V30.7402C136.539 30.7201 136.659 30.7001 136.807 30.6801C136.956 30.6584 137.117 30.6484 137.3 30.6484C137.551 30.6484 137.766 30.6868 137.942 30.7602C138.12 30.8336 138.271 30.937 138.388 31.0688C138.504 31.1956 138.588 31.3474 138.641 31.5192C138.696 31.691 138.724 31.8778 138.724 32.0763C138.724 32.5034 138.598 32.8337 138.352 33.0589C138.105 33.2841 137.763 33.3975 137.338 33.3975Z" fill="#0B162B"/>
<path d="M133.272 35.7829L133.249 35.7963C133.176 35.838 133.079 35.868 132.955 35.8863C132.836 35.9064 132.723 35.9164 132.609 35.9164H132.573L132.05 31.339C131.82 31.9228 131.589 32.5034 131.357 33.0822C131.111 33.7094 130.874 34.3183 130.648 34.9071L130.64 34.9222C130.611 34.9505 130.57 34.9772 130.521 34.9989C130.478 35.0139 130.436 35.0256 130.392 35.0389L130.365 35.0473C130.317 35.0623 130.264 35.074 130.201 35.0856C130.14 35.0907 130.091 35.094 130.044 35.094H130.016L128.432 31.2372C128.402 31.5775 128.373 31.9262 128.343 32.2782C128.316 32.6251 128.29 32.9704 128.265 33.3141L128.252 33.4876C128.237 33.7344 128.22 33.9813 128.204 34.2249L128.176 34.6603C128.156 35.0389 128.138 35.4043 128.123 35.7546V35.7779L128.103 35.7896C128.024 35.8363 127.926 35.868 127.802 35.8863C127.69 35.9064 127.576 35.9164 127.463 35.9164H127.417L127.422 35.8697C127.529 34.9689 127.643 34.0647 127.761 33.1823C127.877 32.3215 127.997 31.4341 128.131 30.4732L128.134 30.4532L128.151 30.4432C128.224 30.3998 128.316 30.3665 128.442 30.3381C128.561 30.3064 128.672 30.2914 128.776 30.2914H128.804L128.814 30.3181L130.421 34.3233C130.664 33.7061 130.914 33.0789 131.167 32.4416C131.448 31.7477 131.714 31.0754 131.959 30.4399L131.964 30.4248L131.979 30.4182C132.067 30.3748 132.164 30.3414 132.268 30.3231C132.382 30.3014 132.492 30.2914 132.594 30.2914H132.631L132.635 30.3281L133.272 35.7829Z" fill="#0B162B"/>
<path d="M124.941 30.2914V35.7779L124.92 35.7896C124.836 35.838 124.736 35.868 124.621 35.8863C124.513 35.9064 124.399 35.9164 124.282 35.9164H124.24V30.4449L124.262 30.4332C124.437 30.3398 124.652 30.2914 124.9 30.2914H124.941Z" fill="#0B162B"/>
<path d="M118.241 34.2082C118.832 34.2082 119.311 33.7249 119.311 33.1289C119.311 32.5328 118.832 32.0496 118.241 32.0496C117.65 32.0496 117.171 32.5328 117.171 33.1289C117.171 33.7249 117.65 34.2082 118.241 34.2082Z" fill="#0B162B"/>
<path d="M30.1971 13.3403C30.1707 13.6723 30.1377 14.027 30.0968 14.4342C29.8447 16.9982 29.4698 19.2263 28.9496 21.2474C28.4401 23.2323 27.7008 25.2467 26.6659 27.4506C27.0236 27.8322 27.3708 28.2219 27.7101 28.6197C28.9193 26.1202 29.7694 23.8558 30.3437 21.6183C30.8823 19.5233 31.2704 17.22 31.5304 14.5807C31.6136 13.7408 31.6677 13.1132 31.6928 12.4534C31.1793 12.9184 30.6275 13.1871 30.1971 13.3403ZM31.6044 9.39485C31.6044 9.39485 31.603 9.38545 31.603 9.38007C31.5938 9.26182 31.5766 9.11534 31.5384 8.9487C31.4789 8.68128 31.3958 8.47971 31.3205 8.31576C31.3007 8.27276 31.2809 8.23378 31.2625 8.19481C31.1357 7.92739 30.9984 7.69491 30.844 7.48393C30.3687 6.83217 29.8262 6.46933 29.4684 6.22879C28.9114 5.85655 28.4546 5.65632 28.1813 5.53807C27.417 5.2048 26.7952 5.05831 26.4243 4.97097C26.1497 4.90646 25.5794 4.78686 24.8454 4.71295C24.3742 4.66592 23.862 4.64307 23.3656 4.64711C22.9089 4.65248 22.4415 4.6807 22.0138 4.72908C21.66 4.76939 21.0119 4.8433 20.1842 5.07175C20.4865 5.51119 20.8086 5.93853 21.1544 6.34302C21.598 6.2503 21.9518 6.20998 22.1749 6.18445C22.5537 6.14145 22.9722 6.11591 23.3815 6.11188C23.825 6.1065 24.2818 6.12666 24.7029 6.16966C25.3814 6.2382 25.9055 6.35242 26.1009 6.39811C26.4454 6.47874 26.9668 6.60237 27.6137 6.88458C27.8579 6.99074 28.2262 7.15201 28.6751 7.45302C28.9826 7.65729 29.3628 7.91396 29.6863 8.35742C29.7879 8.49583 29.879 8.65306 29.9687 8.83717C30.048 9.00246 30.0981 9.11265 30.1338 9.27526C30.1654 9.41502 30.1681 9.5158 30.1681 9.55342V9.56552C30.1668 9.62196 30.1602 9.67169 30.1536 9.71066C30.1483 9.74157 30.143 9.76575 30.139 9.78053C30.0928 9.95389 29.9938 10.0721 29.941 10.1353C29.7734 10.3342 29.4394 10.5156 29.0011 10.646C28.4916 10.7978 28.0704 10.818 27.7602 10.8193H27.7325C26.5193 10.8193 25.5253 10.5909 25.153 10.4928C24.5973 10.3463 23.4435 10.0412 22.1696 9.19328C21.8607 8.98767 21.5637 8.76057 21.2812 8.51868C20.9802 8.26201 20.695 7.98652 20.4231 7.69894C20.138 7.39523 19.8687 7.07675 19.6112 6.74751C19.4885 6.5876 19.367 6.42499 19.2482 6.26104C19.0291 5.95733 18.8258 5.6496 18.6291 5.35395C18.1697 4.66323 17.6931 3.96847 17.103 3.38525C16.9816 3.2643 16.8549 3.14739 16.7229 3.03585C16.1763 2.57223 15.2576 1.92719 13.9771 1.48238C12.2702 0.889751 10.7336 0.950223 9.74612 1.10476C8.87485 1.24183 7.98775 1.52673 7.17985 1.92853C6.88151 2.07635 6.47094 2.30481 6.01155 2.62867C5.38054 3.07348 4.65977 3.69567 4.02216 4.53422C3.78058 4.85002 3.42151 5.37143 3.07564 6.0635C2.90667 6.4008 2.66114 6.94371 2.4552 7.6116C2.34696 7.96234 2.01693 9.02799 1.99185 11.3004C1.97997 12.4561 2.0354 13.2476 2.16741 14.5834C2.28358 15.7619 2.43672 17.3154 2.83011 19.2949C3.26838 19.3271 3.70666 19.3674 4.14362 19.4158C4.57793 19.4642 5.0096 19.5233 5.44127 19.5865C5.84918 19.6375 6.25445 19.7101 6.6584 19.7827C7.05047 19.8539 7.44254 19.9332 7.83197 20.0192C8.22008 20.1038 8.6082 20.1966 8.99367 20.2973C9.37782 20.3968 9.76064 20.503 10.1408 20.6158C10.521 20.7301 10.8999 20.8497 11.2748 20.9773C11.651 21.1036 12.0233 21.238 12.3943 21.3778C12.7639 21.5189 13.1322 21.6654 13.4965 21.8199C13.8609 21.9731 14.2226 22.1344 14.5817 22.301C14.9407 22.4676 15.2971 22.641 15.6496 22.8211C16.0034 23.0025 16.3532 23.1879 16.6991 23.3814C17.0463 23.5736 17.3895 23.7738 17.7288 23.9794C17.7591 23.9969 17.7908 24.0157 17.8199 24.0345C17.8225 24.0359 17.8251 24.0372 17.8265 24.0386C19.9175 25.3139 21.8765 26.827 23.6705 28.5632C24.2184 29.0941 24.7517 29.6464 25.2679 30.2175C25.0038 30.7013 24.724 31.1837 24.423 31.6406C21.9755 28.7998 19.0898 26.4427 15.8331 24.6285C14.7005 23.9969 13.5374 23.4406 12.3494 22.9595C12.3467 22.9581 12.3441 22.9568 12.3414 22.9554C10.3309 22.1438 8.24781 21.5485 6.10529 21.1749C5.89011 21.1372 5.67493 21.101 5.45843 21.0687C5.24194 21.0351 5.02676 21.0042 4.81026 20.976C4.59376 20.9478 4.37726 20.9195 4.16076 20.894C4.16076 20.894 4.13569 20.8913 4.12381 20.89C3.906 20.8644 3.68554 20.8403 3.46641 20.8201C3.36344 20.8093 3.25914 20.7999 3.15617 20.7919C3.5324 22.3749 3.99707 23.9042 4.54095 25.3596C4.54095 25.3596 4.75614 25.3945 4.78254 25.3985C4.90399 25.4187 5.02677 25.4402 5.14953 25.463C5.47032 25.5208 5.79109 25.5867 6.11056 25.6539C6.27689 25.6888 6.44323 25.7237 6.60956 25.7614C7.75673 26.0153 8.88541 26.3526 9.98769 26.7612C11.0293 27.1468 12.0457 27.5984 13.0332 28.1117C14.018 28.6251 14.9724 29.2002 15.8886 29.8332C16.8073 30.4674 17.6892 31.1609 18.5235 31.9054C18.9776 32.3112 19.4172 32.7318 19.8436 33.1659C20.2528 33.5811 20.6488 34.0125 21.033 34.4573C20.8983 34.4855 20.761 34.5083 20.6211 34.5204C19.6178 34.6132 18.8456 34.1791 18.5604 33.9883C17.9453 33.5757 17.4515 32.9844 16.8865 32.506C14.5645 30.5387 11.8649 29.0134 8.83657 27.9531C8.53427 27.847 8.22801 27.7462 7.92175 27.6494C7.61416 27.554 7.30394 27.46 6.99239 27.3767C6.67689 27.2906 6.36137 27.214 6.04323 27.1415C5.75809 27.0756 5.47162 27.0151 5.18384 26.9601C6.07887 29.0349 7.14289 30.9338 8.35078 32.5988C9.54679 34.245 10.9303 35.7931 12.9474 35.9799C13.0899 35.9933 13.2286 36 13.3645 36C14.3889 36 15.2021 35.6493 15.7037 35.355C15.3169 35.0002 14.9183 34.6535 14.5051 34.3135C14.1328 34.4586 13.6417 34.5729 13.0781 34.5204C11.9216 34.4129 10.9751 33.5744 10.1342 32.5437C10.1184 32.5235 10.1012 32.5034 10.0841 32.4832C10.0194 32.4012 9.95469 32.3192 9.89001 32.2359C9.76064 32.0693 9.63523 31.9 9.51114 31.728C8.93293 30.9324 8.38906 30.0778 7.88214 29.1747C8.63328 29.422 9.36329 29.6974 10.0722 30.0038C12.0207 30.8437 13.8041 31.904 15.4054 33.1753C15.9084 33.5744 16.3889 34.0004 16.8588 34.4371C17.1532 34.7099 17.4344 34.9881 17.7684 35.2112C18.2793 35.5552 19.3472 36.1102 20.7518 35.9799C21.6495 35.8965 22.5062 35.5633 23.3115 34.9854C23.0224 34.597 22.724 34.2141 22.4138 33.8418C22.328 33.7383 22.2396 33.6349 22.1511 33.5327C21.2534 32.4872 20.2885 31.5143 19.2654 30.6207C18.9235 30.3196 18.5736 30.0294 18.2185 29.7472C14.9764 27.1724 11.218 25.3394 7.18644 24.3893C6.665 24.267 6.13961 24.1582 5.60893 24.0655C5.43071 23.5521 5.26173 23.028 5.10332 22.4972C5.60496 22.5711 6.10132 22.6571 6.59504 22.7566C9.30389 23.2981 11.9005 24.2133 14.3282 25.4671C16.3466 26.5085 18.2463 27.7852 19.9967 29.2782C20.2304 29.477 20.4627 29.6813 20.6911 29.8883C20.9208 30.0966 21.1478 30.3089 21.3722 30.5252C21.5967 30.7416 21.8184 30.962 22.0363 31.1851C22.2541 31.4095 22.4706 31.6366 22.6818 31.8677C23.2296 32.4644 23.7498 33.0852 24.2659 33.7115C24.2818 33.7303 24.4705 33.9466 24.46 33.9574C25.4197 32.9159 26.1537 31.6352 26.6857 30.6341C26.7939 30.4325 26.8995 30.2323 27.0025 30.0334C26.6711 29.6303 26.3319 29.2352 25.9834 28.8495C25.982 28.8481 25.9807 28.8454 25.9781 28.8441C23.2006 25.8554 19.9703 23.407 16.3638 21.5552C12.8946 19.7733 9.20093 18.6122 5.36339 18.0948C4.92644 18.0357 4.48815 17.9846 4.04724 17.943C3.80698 16.5239 3.69213 15.3615 3.60104 14.4369C3.47431 13.1576 3.42152 12.4037 3.4334 11.3179C3.45584 9.26316 3.73703 8.35204 3.82943 8.05237C4.01557 7.45033 4.24129 6.96521 4.35878 6.7287C4.5898 6.26911 4.87363 5.80952 5.16009 5.43324C5.72773 4.68876 6.37326 4.14585 6.92506 3.76958C7.27357 3.53307 7.58247 3.3624 7.81217 3.24683C8.49202 2.90818 9.23657 2.66899 9.96658 2.55476C10.7943 2.42441 12.0814 2.37334 13.5124 2.87056C14.6397 3.26161 15.4292 3.84752 15.8001 4.16198C16.4945 4.74923 16.9882 5.49237 17.511 6.27851C17.7076 6.5755 17.9123 6.88189 18.1301 7.1856C19.1122 8.55093 20.2053 9.63943 21.3815 10.4215C22.8521 11.3998 24.1616 11.7466 24.79 11.9132C25.3194 12.0529 26.4018 12.2868 27.7312 12.2868H27.7642C28.1391 12.2854 28.716 12.2599 29.4077 12.053C29.7298 11.9575 30.0163 11.8393 30.2684 11.7009V11.7036C30.5549 11.5329 30.8559 11.291 31.108 10.9456C31.2294 10.7803 31.4803 10.4377 31.5753 9.90685C31.6017 9.76037 31.6136 9.62062 31.6123 9.48758C31.6096 9.45667 31.607 9.42711 31.6044 9.3962V9.39485Z" fill="#BC9667"/>
</svg>
