<svg width="40" height="40" viewBox="0 0 40 40" fill="none" xmlns="http://www.w3.org/2000/svg">
  <path d="M13.3333 25C13.3333 23.1667 10.8333 21.6667 10.8333 21.6667C10.8333 21.6667 8.33325 23.1667 8.33325 25V28.3333C8.33325 28.3333 10.8333 30 10.8333 31.6667V36.6667" stroke="#BC9667" stroke-width="2" stroke-linecap="round" stroke-linejoin="round"/>
  <path d="M10.8333 21.6667V16.6667" stroke="#BC9667" stroke-width="2" stroke-linecap="round" stroke-linejoin="round"/>
  <path d="M26.6666 25C26.6666 23.1667 29.1666 21.6667 29.1666 21.6667C29.1666 21.6667 31.6666 23.1667 31.6666 25V28.3333C31.6666 28.3333 29.1666 30 29.1666 31.6667V36.6667" stroke="#BC9667" stroke-width="2" stroke-linecap="round" stroke-linejoin="round"/>
  <path d="M29.1666 21.6667V16.6667" stroke="#BC9667" stroke-width="2" stroke-linecap="round" stroke-linejoin="round"/>
  <path d="M33.3334 13.3333C33.3334 7.81042 27.3596 3.33325 20.0001 3.33325C12.6406 3.33325 6.66675 7.81042 6.66675 13.3333" stroke="#BC9667" stroke-width="2" stroke-linecap="round" stroke-linejoin="round"/>
  <path d="M20 13.3333V36.6667" stroke="#BC9667" stroke-width="2" stroke-linecap="round" stroke-linejoin="round"/>
  <path d="M20 20L15 25" stroke="#BC9667" stroke-width="2" stroke-linecap="round" stroke-linejoin="round"/>
  <path d="M20 26.6667L25 31.6667" stroke="#BC9667" stroke-width="2" stroke-linecap="round" stroke-linejoin="round"/>
</svg> 