<svg width="24" height="24" viewBox="0 0 24 24" fill="none" xmlns="http://www.w3.org/2000/svg">
<g clip-path="url(#clip0_3432_12094)">
<path d="M8.84735 17.1108L9.33837 18.3875C7.91075 18.6581 6.82751 19.9143 6.82751 21.4195V22.0056H19.6692V21.4195C19.6692 19.7175 18.2845 18.3328 16.5825 18.3328H16.408L15.938 17.1108H8.84735Z" fill="#BC9667"/>
<path d="M18.8347 11.719V2H14.2549L12.7453 3.50963C11.5042 2.52779 9.73962 2.43393 8.39589 3.32435L8.13352 3.49818L8.13348 4.96413L12.109 9.06361H13.6989L13.8727 8.80124C14.7932 7.41199 14.6618 5.57299 13.5848 4.32768L14.7405 3.17216H17.6625V11.1862L18.8347 11.719Z" fill="#BC9667"/>
<path d="M20.2021 13.6279L17.2508 12.2865H10.0315L6.70486 9.47162C6.14637 8.99905 5.45334 8.74609 4.72992 8.74609C4.64373 8.74609 4.55715 8.74969 4.47029 8.75692C3.65435 8.8249 2.9137 9.2066 2.38486 9.83163L2.00629 10.279L8.69391 15.9378H16.46L21.4817 18.2204L21.7242 17.6869C22.4236 16.1482 21.7408 14.3273 20.2021 13.6279Z" fill="#BC9667"/>
</g>
<defs>
<clipPath id="clip0_3432_12094">
<rect width="20.0049" height="20.0049" fill="white" transform="translate(1.99854 2)"/>
</clipPath>
</defs>
</svg>
