<svg width="24" height="24" viewBox="0 0 24 24" fill="none" xmlns="http://www.w3.org/2000/svg">
<g clip-path="url(#clip0_3213_122)">
<path d="M15.2953 11.1138C16.08 10.0592 16.4947 8.80684 16.4947 7.49229V4.14882C16.4947 3.82524 16.2324 3.56291 15.9088 3.56291C15.1685 3.56291 14.5028 3.15153 14.1717 2.48933L14.0892 2.32438C13.99 2.12587 13.7871 2.00049 13.5652 2.00049H10.4403C10.2184 2.00049 10.0155 2.12587 9.91631 2.32438L9.83385 2.48933C9.5027 3.15153 8.83707 3.56291 8.09671 3.56291C7.77313 3.56291 7.5108 3.82524 7.5108 4.14882V7.49229C7.5108 8.80684 7.92555 10.0592 8.71028 11.1138C9.495 12.1685 10.5753 12.9257 11.8344 13.3034C11.8893 13.3199 11.946 13.3281 12.0028 13.3281C12.0595 13.3281 12.1162 13.3199 12.1712 13.3034C13.4302 12.9256 14.5105 12.1685 15.2953 11.1138ZM14.0743 6.97376L11.8647 9.18334C11.7502 9.29775 11.6003 9.35497 11.4504 9.35497C11.3004 9.35497 11.1505 9.29779 11.0361 9.18334L9.93131 8.07855C9.70249 7.84977 9.70249 7.47878 9.93131 7.24996C10.1601 7.02118 10.5311 7.02118 10.7599 7.24996L11.4504 7.94047L13.2458 6.14517C13.4745 5.91635 13.8455 5.91635 14.0744 6.14517C14.3031 6.37399 14.3031 6.74498 14.0743 6.97376Z" fill="#BC9667"/>
<path d="M20.7968 7.35104C20.1585 7.36857 19.6579 7.90827 19.6579 8.5468V13.405L17.4432 17.213C17.3376 17.3947 17.1434 17.5064 16.9333 17.5064C16.4785 17.5064 16.1948 17.0136 16.4231 16.6203L17.9639 13.9654C18.3524 13.2925 18.1218 12.4321 17.4489 12.0436C16.8035 11.6709 15.9796 11.8663 15.57 12.4889L13.3623 15.8459C12.985 16.4195 12.784 17.091 12.784 17.7776V21.4124C12.784 21.736 13.0463 21.9983 13.3699 21.9983H19.4626C19.7861 21.9983 20.0485 21.736 20.0485 21.4124V19.2641L22.0015 14.5768V8.52243C22.0015 7.86429 21.459 7.33291 20.7968 7.35104Z" fill="#BC9667"/>
<path d="M8.43392 12.4889C8.02441 11.8663 7.20043 11.671 6.55503 12.0436C5.88213 12.4321 5.65156 13.2925 6.0401 13.9654L7.58096 16.6203C7.80923 17.0136 7.52545 17.5063 7.07075 17.5064C6.86064 17.5064 6.66639 17.3946 6.56077 17.213L4.34608 13.405V8.5468C4.34608 7.90827 3.84548 7.36857 3.20719 7.35104C2.54499 7.33291 2.00244 7.86429 2.00244 8.52243V14.5768L3.95547 19.2641V21.4124C3.95547 21.736 4.2178 21.9983 4.54138 21.9983H10.6341C10.9577 21.9983 11.22 21.736 11.22 21.4124V17.7776C11.22 17.091 11.019 16.4195 10.6417 15.8459L8.43392 12.4889Z" fill="#BC9667"/>
</g>
<defs>
<clipPath id="clip0_3213_122">
<rect width="19.999" height="19.999" fill="white" transform="translate(2.00098 1.99951)"/>
</clipPath>
</defs>
</svg>
