<svg width="30" height="36" viewBox="0 0 30 36" fill="none" xmlns="http://www.w3.org/2000/svg">
<path d="M28.4894 12.9702C28.4627 13.2995 28.4293 13.6515 28.388 14.0555C28.1334 16.5995 27.7547 18.8101 27.2294 20.8154C26.7147 22.7847 25.968 24.7834 24.9227 26.97C25.284 27.3487 25.6347 27.7354 25.9774 28.13C27.1987 25.6501 28.0574 23.4034 28.6373 21.1834C29.1813 19.1048 29.5733 16.8195 29.836 14.2008C29.92 13.3675 29.9747 12.7448 30 12.0902C29.4813 12.5515 28.924 12.8182 28.4894 12.9702ZM29.9107 9.05553C29.9107 9.05553 29.9093 9.0462 29.9093 9.04086C29.9 8.92353 29.8827 8.7782 29.844 8.61287C29.784 8.34753 29.7 8.14754 29.624 7.98488C29.604 7.94221 29.584 7.90354 29.5653 7.86487C29.4373 7.59954 29.2987 7.36888 29.1427 7.15955C28.6627 6.51289 28.1147 6.15289 27.7534 5.91422C27.1907 5.54489 26.7294 5.34623 26.4534 5.2289C25.6814 4.89824 25.0534 4.7529 24.6787 4.66623C24.4014 4.60223 23.8254 4.48357 23.0841 4.41024C22.6081 4.36357 22.0907 4.34091 21.5894 4.34491C21.1281 4.35024 20.6561 4.37824 20.2241 4.42624C19.8668 4.46624 19.2121 4.53957 18.3761 4.76623C18.6814 5.20223 19.0068 5.62623 19.3561 6.02756C19.8041 5.93556 20.1614 5.89556 20.3867 5.87023C20.7694 5.82756 21.1921 5.80222 21.6054 5.79822C22.0534 5.79289 22.5147 5.81289 22.9401 5.85556C23.6254 5.92355 24.1547 6.03689 24.352 6.08222C24.7 6.16222 25.2267 6.28489 25.88 6.56488C26.1267 6.67022 26.4987 6.83022 26.952 7.12888C27.2627 7.33155 27.6467 7.58621 27.9734 8.02621C28.076 8.16354 28.168 8.31954 28.2587 8.50221C28.3387 8.6662 28.3893 8.77554 28.4253 8.93687C28.4573 9.07554 28.46 9.17553 28.46 9.21286V9.22486C28.4587 9.28086 28.452 9.3302 28.4453 9.36887C28.44 9.39953 28.4347 9.42353 28.4307 9.43819C28.384 9.61019 28.284 9.72752 28.2307 9.79019C28.0613 9.98752 27.724 10.1675 27.2814 10.2969C26.7667 10.4475 26.3414 10.4675 26.028 10.4689H26C24.7747 10.4689 23.7707 10.2422 23.3947 10.1449C22.8334 9.99953 21.6681 9.69686 20.3814 8.85553C20.0694 8.65153 19.7694 8.42621 19.4841 8.18621C19.1801 7.93154 18.8921 7.65821 18.6174 7.37288C18.3294 7.07155 18.0574 6.75555 17.7974 6.42889C17.6734 6.27023 17.5508 6.10889 17.4308 5.94622C17.2094 5.64489 17.0041 5.33956 16.8054 5.04623C16.3414 4.3609 15.8601 3.67158 15.2641 3.09292C15.1415 2.97292 15.0135 2.85691 14.8801 2.74625C14.3281 2.28625 13.4001 1.64626 12.1068 1.20493C10.3828 0.616931 8.83084 0.676931 7.83352 0.830263C6.95352 0.966262 6.05754 1.24893 5.24154 1.64759C4.94021 1.79426 4.52554 2.02092 4.06154 2.34225C3.42421 2.78358 2.69623 3.40091 2.05223 4.2329C1.80823 4.54623 1.44556 5.06356 1.09623 5.75023C0.925569 6.08489 0.677578 6.62355 0.469579 7.28622C0.360247 7.63421 0.0269151 8.69153 0.001582 10.9462C-0.0104179 12.0928 0.0455758 12.8782 0.178908 14.2035C0.29624 15.3728 0.450908 16.9141 0.848238 18.8781C1.2909 18.9101 1.73357 18.9501 2.1749 18.9981C2.61357 19.0461 3.04956 19.1048 3.48555 19.1674C3.89755 19.2181 4.30688 19.2901 4.71487 19.3621C5.11087 19.4328 5.50687 19.5114 5.9002 19.5968C6.29219 19.6808 6.6842 19.7728 7.07353 19.8728C7.46152 19.9714 7.84818 20.0768 8.23218 20.1888C8.61617 20.3021 8.99883 20.4208 9.3775 20.5474C9.75749 20.6728 10.1335 20.8061 10.5082 20.9448C10.8815 21.0848 11.2535 21.2301 11.6215 21.3834C11.9895 21.5354 12.3548 21.6954 12.7175 21.8608C13.0801 22.0261 13.4401 22.1981 13.7961 22.3768C14.1535 22.5568 14.5068 22.7408 14.8561 22.9328C15.2068 23.1234 15.5534 23.3221 15.8961 23.5261C15.9268 23.5434 15.9588 23.5621 15.9881 23.5808C15.9908 23.5821 15.9934 23.5834 15.9948 23.5847C18.1068 24.8501 20.0854 26.3514 21.8974 28.074C22.4507 28.6007 22.9894 29.1487 23.5107 29.7154C23.244 30.1954 22.9614 30.674 22.6574 31.1273C20.1854 28.3087 17.2708 25.9701 13.9815 24.1701C12.8375 23.5434 11.6628 22.9914 10.4628 22.5141C10.4602 22.5128 10.4575 22.5114 10.4548 22.5101C8.42418 21.7048 6.3202 21.1141 4.15622 20.7434C3.93889 20.7061 3.72155 20.6701 3.50289 20.6381C3.28422 20.6048 3.06689 20.5741 2.84822 20.5461C2.62956 20.5181 2.41089 20.4901 2.19222 20.4648C2.19222 20.4648 2.1669 20.4621 2.1549 20.4608C1.9349 20.4354 1.71224 20.4114 1.49091 20.3914C1.38691 20.3808 1.28156 20.3714 1.17757 20.3634C1.55756 21.9341 2.02689 23.4514 2.57622 24.8954C2.57622 24.8954 2.79356 24.9301 2.82023 24.9341C2.94289 24.9541 3.0669 24.9754 3.19089 24.9981C3.51489 25.0554 3.83888 25.1207 4.16154 25.1874C4.32954 25.2221 4.49754 25.2567 4.66554 25.2941C5.8242 25.5461 6.96418 25.8807 8.07751 26.2861C9.1295 26.6687 10.1562 27.1167 11.1535 27.626C12.1482 28.1354 13.1121 28.706 14.0375 29.334C14.9655 29.9634 15.8561 30.6514 16.6988 31.39C17.1574 31.7927 17.6014 32.21 18.0321 32.6407C18.4454 33.0527 18.8454 33.4807 19.2334 33.922C19.0974 33.95 18.9588 33.9727 18.8174 33.9847C17.8041 34.0767 17.0241 33.646 16.7361 33.4567C16.1148 33.0473 15.6161 32.4607 15.0455 31.986C12.7001 30.034 9.9735 28.5207 6.91486 27.4687C6.60952 27.3634 6.3002 27.2634 5.99087 27.1674C5.68021 27.0727 5.36687 26.9794 5.05221 26.8967C4.73354 26.8114 4.41487 26.7354 4.09354 26.6634C3.80554 26.5981 3.51621 26.538 3.22555 26.4834C4.12954 28.542 5.20421 30.426 6.4242 32.078C7.63219 33.7113 9.02951 35.2473 11.0668 35.4327C11.2108 35.446 11.3508 35.4526 11.4882 35.4526C12.5228 35.4526 13.3441 35.1047 13.8508 34.8127C13.4601 34.4607 13.0575 34.1167 12.6401 33.7793C12.2642 33.9233 11.7681 34.0367 11.1988 33.9847C10.0308 33.878 9.07483 33.046 8.2255 32.0233C8.20951 32.0033 8.19219 31.9833 8.17485 31.9633C8.10952 31.882 8.04418 31.8007 7.97884 31.718C7.84818 31.5527 7.72151 31.3847 7.59618 31.214C7.01218 30.4247 6.46286 29.5767 5.95087 28.6807C6.70953 28.926 7.44685 29.1994 8.16284 29.5034C10.1308 30.3367 11.9321 31.3887 13.5495 32.65C14.0575 33.046 14.5428 33.4687 15.0175 33.902C15.3148 34.1727 15.5988 34.4487 15.9361 34.67C16.4521 35.0113 17.5308 35.562 18.9494 35.4327C19.8561 35.35 20.7214 35.0193 21.5347 34.446C21.2427 34.0607 20.9414 33.6807 20.6281 33.3113C20.5414 33.2087 20.4521 33.106 20.3627 33.0047C19.4561 31.9673 18.4814 31.002 17.4481 30.1154C17.1028 29.8167 16.7494 29.5287 16.3908 29.2487C13.1161 26.6941 9.32017 24.8754 5.2482 23.9328C4.72154 23.8114 4.19088 23.7034 3.65489 23.6114C3.47489 23.1021 3.30421 22.5821 3.14422 22.0554C3.65088 22.1288 4.15221 22.2141 4.65088 22.3128C7.38685 22.8501 10.0095 23.7581 12.4615 25.0021C14.5001 26.0354 16.4188 27.302 18.1868 28.7834C18.4228 28.9807 18.6574 29.1834 18.8881 29.3887C19.1201 29.5954 19.3494 29.806 19.5761 30.0207C19.8027 30.2354 20.0267 30.454 20.2467 30.6754C20.4667 30.898 20.6854 31.1233 20.8987 31.3527C21.4521 31.9447 21.9774 32.5607 22.4987 33.182C22.5147 33.2007 22.7054 33.4153 22.6947 33.426C23.664 32.3927 24.4054 31.122 24.9427 30.1287C25.052 29.9287 25.1587 29.73 25.2627 29.5327C24.928 29.1327 24.5854 28.7407 24.2334 28.358C24.232 28.3567 24.2307 28.354 24.228 28.3527C21.4227 25.3874 18.1601 22.9581 14.5175 21.1208C11.0135 19.3528 7.28286 18.2008 3.40689 17.6875C2.96556 17.6288 2.52289 17.5781 2.07756 17.5368C1.83489 16.1288 1.71889 14.9755 1.62689 14.0582C1.4989 12.7888 1.44558 12.0408 1.45758 10.9635C1.48024 8.92486 1.76424 8.02087 1.85757 7.72354C2.04557 7.12621 2.27355 6.64489 2.39222 6.41022C2.62555 5.95423 2.91222 5.49823 3.20156 5.1249C3.77488 4.38624 4.42688 3.84757 4.98421 3.47424C5.3362 3.23958 5.6482 3.07024 5.8802 2.95558C6.56686 2.61958 7.31886 2.38226 8.05619 2.26892C8.89218 2.13959 10.1922 2.08892 11.6375 2.58225C12.7761 2.97025 13.5735 3.55157 13.9481 3.86357C14.6495 4.44623 15.1481 5.18356 15.6761 5.96355C15.8748 6.25822 16.0814 6.56222 16.3014 6.86355C17.2934 8.2182 18.3974 9.2982 19.5854 10.0742C21.0707 11.0448 22.3934 11.3888 23.0281 11.5542C23.5627 11.6928 24.656 11.9248 25.9987 11.9248H26.032C26.4107 11.9235 26.9933 11.8982 27.692 11.6928C28.0173 11.5982 28.3067 11.4808 28.5613 11.3435V11.3462C28.8507 11.1768 29.1547 10.9369 29.4093 10.5942C29.532 10.4302 29.7853 10.0902 29.8813 9.56353C29.908 9.41819 29.92 9.27953 29.9187 9.14753C29.916 9.11686 29.9133 9.08753 29.9107 9.05686V9.05553Z" fill="#BC9667"/>
</svg>
