<svg width="24" height="24" viewBox="0 0 24 24" fill="none" xmlns="http://www.w3.org/2000/svg">
<g clip-path="url(#clip0_3213_76)">
<path d="M21.1262 10.2031C20.7744 11.2599 20.6225 12.3923 20.6855 13.5187C20.8601 16.6962 20.7913 19.1143 17.8238 21.1046C17.5329 21.2995 17.1945 21.4025 16.8446 21.4025H14.3055C13.3363 21.4025 12.5477 20.6139 12.5477 19.6447V16.1655C12.5477 15.8342 12.2915 15.5385 11.9467 15.5422C11.6383 15.5483 11.3759 15.8161 11.3759 16.1267V19.6447C11.3759 20.6139 10.5873 21.4025 9.61804 21.4025H7.27429C6.93936 21.4025 6.61298 21.3074 6.33038 21.1275C3.23422 19.1565 3.03067 16.7371 3.24353 13.4288C3.31128 12.3786 3.17044 11.2889 2.83536 10.2353C2.32556 10.6656 2.00085 11.3088 2.00085 12.0266V21.4025C2.00085 21.7261 2.26315 21.9884 2.58679 21.9884H21.4149C21.7386 21.9884 22.0009 21.7261 22.0009 21.4025V12.0275C22.0009 11.2911 21.6591 10.6331 21.1262 10.2031Z" fill="#BC9667"/>
<path d="M4.41247 13.5036C4.21182 16.6219 4.38699 18.501 6.95916 20.1386C7.13601 20.2511 7.25106 20.2302 7.68884 20.2302C7.35208 18.8085 6.68786 15.7555 6.68786 13.7848C6.68786 12.8356 6.95581 11.8935 7.45095 11.0747C7.4685 10.6864 7.47735 9.28731 6.78628 8.25063C6.60684 7.98132 6.67947 7.61755 6.94879 7.4381C7.21795 7.25851 7.58187 7.33129 7.76132 7.60061C8.08236 8.08202 8.28698 8.60937 8.41623 9.11077C8.74902 8.30633 9.03161 7.4201 9.03161 6.75359C9.03161 6.43011 9.29391 6.16766 9.61755 6.16766C9.94119 6.16766 10.2035 6.43011 10.2035 6.75359C10.2035 7.45168 9.98605 8.26788 9.70803 9.02639C10.0076 8.88219 10.3201 8.76546 10.6416 8.68108C10.9545 8.5993 11.275 8.78637 11.3569 9.09933C11.439 9.41244 11.2518 9.73272 10.9388 9.81466C9.1546 10.2825 7.85974 11.9521 7.85974 13.7848C7.85974 15.7476 8.60055 19.0116 8.89459 20.2302H9.61755C9.94119 20.2302 10.2035 19.9679 10.2035 19.6442V16.1263C10.2035 15.1769 10.9757 14.3891 11.925 14.37C12.9156 14.3522 13.7191 15.17 13.7191 16.1651V19.6442C13.7191 19.9679 13.9814 20.2302 14.305 20.2302H15.028C15.322 19.0113 16.0629 15.7461 16.0629 13.7848C16.0629 12.0138 14.9336 10.4506 13.2588 9.89263C12.9517 9.79024 12.7857 9.45852 12.8881 9.15136C12.9904 8.8445 13.3222 8.67834 13.6292 8.78072C13.7805 8.83123 13.9279 8.8886 14.0719 8.95132C13.8871 8.03487 14.1276 7.4024 14.4134 7.00017C14.6008 6.73635 14.9667 6.67455 15.2305 6.86193C15.4942 7.04931 15.5561 7.41506 15.3687 7.67889C15.0532 8.12292 15.1722 8.76485 15.4296 9.36712C15.5929 9.036 15.8143 8.6791 16.1134 8.33913C16.3271 8.09621 16.6973 8.07241 16.9404 8.28619C17.1833 8.49996 17.207 8.87014 16.9932 9.11321C16.4964 9.67809 16.2829 10.3156 16.1999 10.6447C16.891 11.5786 17.2347 12.6806 17.2347 13.7848C17.2347 15.7555 16.5705 18.8085 16.2338 20.2302C16.8592 20.2302 16.9802 20.2585 17.1705 20.1308C18.3302 19.3531 18.9912 18.5137 19.3137 17.409C20.0628 14.8429 18.7695 12.6182 20.3144 9.04378C22.3219 4.39535 17.5611 0.256095 13.3444 2.75075C12.5033 3.24789 11.4584 3.24804 10.6175 2.75091C6.42541 0.270896 1.67382 4.34759 3.62527 8.99145C4.23669 10.4484 4.50891 12.0086 4.41247 13.5036Z" fill="#BC9667"/>
</g>
<defs>
<clipPath id="clip0_3213_76">
<rect width="20" height="20" fill="white" transform="translate(2 2)"/>
</clipPath>
</defs>
</svg>
