<svg width="24" height="24" viewBox="0 0 24 24" fill="none" xmlns="http://www.w3.org/2000/svg">
<path d="M15.2985 13.7676C15.0166 12.4266 13.7871 11.4141 12.3174 11.4141C10.8476 11.4141 9.61818 12.4265 9.3363 13.7676H15.2985Z" fill="#BC9667"/>
<path d="M17.5871 14.9395H6.55128C6.16757 14.9395 5.88048 15.2795 5.9572 15.6428C5.99815 15.8366 6.03797 16.0218 6.07087 16.169L6.11647 16.3732C6.56555 18.3846 6.86226 19.7134 7.29286 20.5726C7.78761 21.5598 8.50903 22.0001 9.63193 22.0001C10.0927 22.0001 10.7581 21.9486 11.2149 21.5038C11.8044 20.9299 11.7974 20.0302 11.7858 18.5398C11.784 18.313 11.7822 18.0785 11.7821 17.8258C11.782 17.5474 12.0029 17.3071 12.2908 17.2936C12.5979 17.2792 12.8525 17.5165 12.8525 17.8102C12.8525 18.0689 12.8507 18.3083 12.8489 18.5398C12.8372 20.0303 12.8302 20.9299 13.4197 21.5038C13.8766 21.9486 14.542 22.0001 15.0027 22.0001C16.1256 22.0001 16.847 21.5598 17.3418 20.5726C17.7724 19.7134 18.0691 18.3846 18.5182 16.3732L18.5637 16.1691C18.5966 16.022 18.6364 15.8366 18.6774 15.6428C18.7541 15.2795 18.467 14.9395 18.0833 14.9395H17.5871Z" fill="#BC9667"/>
<path d="M6.33518 10.2324H18.2979C18.5294 10.2324 18.7406 10.1051 18.8425 9.90428C19.3679 8.86782 19.6265 7.71332 19.6332 6.37471V6.37468C19.6389 5.19209 19.1645 4.08137 18.2975 3.24719C17.4509 2.43269 16.3343 1.99085 15.1518 2.00014C14.4772 2.00585 13.8297 2.15452 13.2274 2.44214C12.6486 2.71855 11.9846 2.71855 11.4057 2.44214C10.8034 2.15456 10.1559 2.00585 9.48144 2.00018C8.29822 1.98979 7.18214 2.43276 6.33562 3.24723C5.4686 4.08141 4.99422 5.19213 4.99996 6.37475C5.00659 7.71336 5.26522 8.86786 5.79066 9.90432C5.89245 10.1051 6.10371 10.2324 6.33518 10.2324Z" fill="#BC9667"/>
</svg>
