<svg width="24" height="24" viewBox="0 0 24 24" fill="none" xmlns="http://www.w3.org/2000/svg">
<path d="M16.4112 3.65291C16.149 3.66594 15.895 3.5167 15.7872 3.26151L15.4135 2.37643C15.2758 2.05021 15.4294 1.67452 15.7563 1.53715C16.0832 1.39994 16.4597 1.55286 16.5974 1.87908L16.9711 2.76416C17.1088 3.09038 16.9554 3.46607 16.6283 3.60327C16.5575 3.63319 16.4839 3.64923 16.4112 3.65291Z" fill="#BC9667"/>
<path d="M19.0515 3.17002C18.9572 3.1747 18.8606 3.15883 18.7682 3.11939C18.4418 2.98067 18.2899 2.60448 18.429 2.27893L18.8085 1.38984C18.9475 1.06429 19.3247 0.912712 19.6511 1.05142C19.9775 1.18997 20.1294 1.56632 19.9904 1.89188L19.6107 2.78096C19.5111 3.01427 19.2893 3.15816 19.0515 3.17002Z" fill="#BC9667"/>
<path d="M20.5734 5.31454C20.309 5.32775 20.0532 5.17566 19.947 4.91746C19.8125 4.5899 19.9696 4.21572 20.2978 4.08152L21.2081 3.70917C21.5364 3.57497 21.9116 3.73156 22.0461 4.05912C22.1806 4.38652 22.0237 4.7607 21.6955 4.8949L20.785 5.26725C20.7156 5.29566 20.6443 5.31087 20.5734 5.31454Z" fill="#BC9667"/>
<path d="M20.8693 8.52962C20.0692 6.40868 18.1244 5.03277 15.9145 5.02441C15.9103 5.02441 15.9062 5.02441 15.902 5.02441C14.7413 5.02441 13.8974 5.63708 13.1523 6.17772C12.5863 6.58851 12.0969 6.94381 11.5941 6.94849C11.0914 6.94381 10.6019 6.58867 10.036 6.17772C9.29098 5.63691 8.44701 5.02441 7.28635 5.02441C7.28217 5.02441 7.278 5.02441 7.27382 5.02441C5.06397 5.03277 3.11901 6.40868 2.31883 8.52962C1.4157 10.924 2.33755 12.8205 3.22914 14.6546C3.36451 14.9332 3.50456 15.2215 3.63558 15.5064C3.84214 15.9557 4.04436 16.7622 4.25844 17.616C4.76165 19.6237 5.33203 21.8992 6.60533 22.6489C7.03968 22.9046 7.53319 22.9699 8.03255 22.8377C9.35315 22.4885 9.80053 20.9889 10.1951 19.6658C10.6134 18.2638 10.9169 17.4098 11.5942 17.4018C12.2714 17.4098 12.5751 18.2638 12.9932 19.6658C13.388 20.9889 13.8352 22.4885 15.1558 22.8377C15.3239 22.8822 15.4914 22.9044 15.6561 22.9044C15.9807 22.9044 16.295 22.8185 16.583 22.6489C17.8563 21.899 18.4268 19.6237 18.93 17.616C19.144 16.7622 19.3462 15.9557 19.5527 15.5064C19.6838 15.2213 19.8238 14.9332 19.9594 14.6545C20.8508 12.8205 21.7726 10.924 20.8693 8.52962ZM7.28853 8.86871C6.67402 8.87105 6.16463 9.25059 5.92565 9.88381C5.82872 10.1407 5.58422 10.2989 5.32451 10.2989C5.24931 10.2989 5.17293 10.2857 5.0984 10.2577C4.76633 10.133 4.59854 9.76348 4.72338 9.43225C5.15121 8.29866 6.13221 7.59174 7.28368 7.58722H7.28619C7.63981 7.58722 7.9271 7.8725 7.92843 8.22563C7.92977 8.57943 7.64332 8.86738 7.28853 8.86871Z" fill="#BC9667"/>
</svg>
