<svg width="24" height="24" viewBox="0 0 24 24" fill="none" xmlns="http://www.w3.org/2000/svg">
<path d="M19.2441 4.15474C19.2093 3.18779 18.5191 2.37744 17.5656 2.18417C14.9009 1.64413 12.7473 2.43121 12.0016 2.76268C11.2559 2.43121 9.10251 1.64413 6.43765 2.18417C5.48413 2.37744 4.7939 3.18776 4.75918 4.15471C4.7008 5.77901 4.91605 8.68427 6.92954 10.4029C6.7904 11.2421 6.46654 13.4682 6.46654 16.01C6.46654 18.0695 6.83144 19.7563 7.13752 20.8087C7.34075 21.5072 7.99052 21.9951 8.71766 21.9951C9.60452 21.9951 10.3267 21.3007 10.3618 20.4142C10.5511 15.632 11.4462 13.8962 12.0016 13.8962C12.5571 13.8962 13.4522 15.632 13.6415 20.4142C13.6766 21.3007 14.3988 21.9951 15.2856 21.9951C16.0128 21.9951 16.6626 21.5072 16.8658 20.8087C17.1719 19.7563 17.5368 18.0696 17.5368 16.0101C17.5368 13.4682 17.2129 11.2421 17.0737 10.403C19.0872 8.68435 19.3024 5.77905 19.2441 4.15474ZM13.4698 10.3342L12.6414 11.1625L12.0016 10.5228L11.3618 11.1625L10.5334 10.3342L11.4158 9.45171V8.79666H10.7608L9.87834 9.6791L9.04995 8.85071L9.68976 8.21089L9.04995 7.57107L9.87834 6.74268L10.7608 7.62512H11.4158V6.97007L10.5334 6.08763L11.3618 5.25923L12.0016 5.89905L12.6414 5.25923L13.4698 6.08763L12.5874 6.97007V7.62512H13.2424L14.1249 6.74268L14.9533 7.57107L14.3134 8.21089L14.9533 8.85071L14.1249 9.6791L13.2424 8.79666H12.5874V9.45171L13.4698 10.3342Z" fill="#BC9667"/>
<path d="M2.83755 13.1079H4.50372V14.2794H2.83755V13.1079Z" fill="#BC9667"/>
<path d="M3.64328 11.1626L4.47156 10.3343L5.33399 11.1968L4.50571 12.025L3.64328 11.1626Z" fill="#BC9667"/>
<path d="M3.64151 16.2227L4.50394 15.3602L5.33222 16.1885L4.46979 17.0509L3.64151 16.2227Z" fill="#BC9667"/>
<path d="M19.4988 13.1079H21.165V14.2794H19.4988V13.1079Z" fill="#BC9667"/>
<path d="M18.6664 11.1968L19.5289 10.3344L20.3571 11.1627L19.4947 12.0251L18.6664 11.1968Z" fill="#BC9667"/>
<path d="M18.6664 16.1909L19.4947 15.3626L20.3571 16.225L19.5289 17.0533L18.6664 16.1909Z" fill="#BC9667"/>
</svg>
