<svg width="24" height="24" viewBox="0 0 24 24" fill="none" xmlns="http://www.w3.org/2000/svg">
<path d="M15.3441 19.3575C13.3662 21.3992 10.6416 21.3922 8.66948 19.3414C6.65095 21.6464 3.7459 21.3171 2.00018 18.6992V19.852C2.00018 21.0367 2.9639 22.0004 4.14857 22.0004H19.851C21.0357 22.0004 21.9992 21.0367 21.9992 19.852V18.6992C20.2387 21.3401 17.3422 21.6209 15.3441 19.3575Z" fill="#BC9667"/>
<path d="M5.58105 19.7108C6.50143 19.7108 7.30876 19.1705 7.92245 18.4073C6.81393 16.7481 6.31254 14.3829 7.60492 12.8625C6.95797 12.6419 6.19901 12.6094 5.58105 12.6094C4.84529 12.6094 3.90964 12.6552 3.20074 13.0105C2.27409 13.4753 1.92773 14.3623 2.01256 15.3953C2.15706 17.2344 3.61088 19.7108 5.58105 19.7108Z" fill="#BC9667"/>
<path d="M20.7998 13.0105C20.0907 12.6552 19.1552 12.6094 18.4193 12.6094C17.8088 12.6094 17.0604 12.6411 16.4186 12.8547C17.72 14.3749 17.2212 16.7536 16.0941 18.4273C16.7061 19.18 17.5073 19.7108 18.4193 19.7108C20.4967 19.7108 22 16.9574 22 15.1011C22 13.8706 21.3474 13.2852 20.7998 13.0105Z" fill="#BC9667"/>
<path d="M8.01086 15.1012C8.01086 17.036 9.76283 19.7108 12.0162 19.7108C14.2693 19.7108 16.0215 17.0363 16.0215 15.1012C16.0215 12.6094 13.2147 12.6094 12.0162 12.6094C10.8176 12.6094 8.01086 12.6094 8.01086 15.1012Z" fill="#BC9667"/>
<path d="M19.8508 2H4.14832C2.96366 2 2.00009 2.96372 2.00009 4.14838V5.30116C3.76732 2.64986 6.66504 2.38833 8.6552 4.64291C10.6331 2.60118 13.3577 2.6082 15.3298 4.65893C17.2995 2.40984 20.2121 2.61934 21.999 5.30116V4.14838C21.999 2.96372 21.0354 2 19.8508 2Z" fill="#BC9667"/>
<path d="M5.58087 4.28711C3.50344 4.28711 2.00018 7.04049 2.00018 8.89683C2.00018 10.1273 2.65294 10.7127 3.20056 10.9874C3.90947 11.3428 4.84496 11.3885 5.58087 11.3885C6.19182 11.3885 6.93979 11.3568 7.58156 11.1432C6.28032 9.62297 6.77912 7.24434 7.90626 5.57065C7.29409 4.81795 6.49302 4.28711 5.58087 4.28711Z" fill="#BC9667"/>
<path d="M18.418 4.28711C17.4978 4.28711 16.6905 4.82741 16.0763 5.59064C17.1855 7.2506 17.6867 9.61504 16.3943 11.1354C17.0413 11.356 17.8001 11.3885 18.418 11.3885C19.1539 11.3885 20.0894 11.3428 20.7985 10.9874C21.7251 10.5226 22.0714 9.63579 21.9867 8.60265C21.8422 6.76355 20.3884 4.28711 18.418 4.28711Z" fill="#BC9667"/>
<path d="M11.9842 4.28711C9.74187 4.28711 7.97891 6.95001 7.97891 8.89667C7.97891 11.3885 10.7858 11.3885 11.9842 11.3885C13.1828 11.3885 15.9896 11.3885 15.9896 8.89667C15.9897 6.94909 14.2262 4.28711 11.9842 4.28711Z" fill="#BC9667"/>
</svg>
