<svg width="142" height="142" viewBox="0 0 142 142" fill="none" xmlns="http://www.w3.org/2000/svg">
<rect width="142" height="142" rx="71" fill="#BC9667"/>
<path d="M44.5407 31.2139L38.0055 29.7171L38.8703 23.4795L39.8584 22.8066L38.4905 28.923L45.5747 30.5098L44.5407 31.2139ZM39.5772 34.5937L34.1826 26.6716L34.9639 26.1396L40.3585 34.0617L39.5772 34.5937Z" fill="#F5F5F5"/>
<path d="M31.6516 43.0155L26.5569 34.0775L27.0993 33.4078L36.9007 36.5343L36.2621 37.3229L31.6873 35.8358L29.7014 38.2878L32.2902 42.2269L31.6516 43.0155ZM27.1714 34.45L29.5072 38.0054L31.3532 35.7262L27.2239 34.3852L27.1714 34.45Z" fill="#F5F5F5"/>
<path d="M94.7036 29.0453L103.235 23.2956L103.943 23.7863L101.56 33.7944L100.726 33.2166L101.866 28.5433L99.272 26.7466L95.5378 29.6232L94.7036 29.0453ZM102.91 23.9363L99.5391 26.5318L101.95 28.2019L102.978 23.9838L102.91 23.9363Z" fill="#F5F5F5"/>
<path d="M35.7331 103.85L29.1152 110.399C29.213 110.498 29.4346 110.683 29.7799 110.954L31.9396 112.65L31.4432 113.141L25.7331 107.371L26.2294 106.88L27.9025 109.057C28.17 109.405 28.3526 109.629 28.4504 109.727L35.0682 103.178L35.7331 103.85Z" fill="#F5F5F5"/>
<path d="M42.4504 121.312L47.2427 113.012L48.0613 113.484L45.6651 117.634L43.269 121.785L42.4504 121.312Z" fill="#F5F5F5"/>
<path d="M43.7221 110.728L37.7489 118.224L34.4333 115.582L34.8515 115.057L36.5576 116.819C36.8568 117.128 37.0644 117.328 37.1804 117.42L39.783 114.155C39.6888 114.079 39.4556 113.911 39.0834 113.65L37.2153 112.336L37.6078 111.843L39.3053 113.371C39.6433 113.676 39.8594 113.865 39.9536 113.94L42.8123 110.353C42.6818 110.249 42.4365 110.089 42.0762 109.872L39.9558 108.585L40.3739 108.06L43.7221 110.728Z" fill="#F5F5F5"/>
<path d="M23.382 104.327L22.3823 102.755C21.8552 101.926 21.6207 101.175 21.6788 100.501C21.7243 99.8241 22.0551 99.2897 22.6713 98.8978C23.1488 98.5941 23.6375 98.4865 24.1373 98.5749C24.6321 98.6556 25.105 98.9314 25.556 99.4023L25.6253 99.3582C25.3972 98.7785 25.3674 98.2044 25.536 97.6359C25.7045 97.0675 26.0138 96.5248 26.4639 96.0079C26.8778 95.536 27.1825 95.139 27.3779 94.817C27.5607 94.4921 27.659 94.2044 27.6728 93.954C27.6817 93.6958 27.636 93.4284 27.5357 93.1517L27.605 93.1076L27.9109 93.5885C28.1297 93.9325 28.2496 94.2571 28.2706 94.5622C28.2866 94.8596 28.198 95.1795 28.0048 95.522C27.8116 95.8646 27.5017 96.2703 27.0752 96.7393C26.4261 97.4706 26.0553 98.1293 25.9628 98.7153C25.8703 99.3012 25.9957 99.864 26.3388 100.404L26.3836 100.474L26.1756 100.606L26.1309 100.536C25.3302 99.2769 24.3599 99.0099 23.2199 99.735C22.0954 100.45 21.9086 101.398 22.6596 102.579L23.152 103.353L30.962 98.3856L31.4693 99.1832L23.382 104.327Z" fill="#F5F5F5"/>
<path d="M17.4492 94.8134L17.1067 93.9324L22.4921 91.8387C23.5216 91.4385 24.2265 90.8711 24.6069 90.1366C24.9755 89.3968 24.9784 88.5604 24.6158 87.6276C24.3874 87.0403 24.0787 86.5737 23.6896 86.2279C23.2886 85.8767 22.8429 85.6622 22.3524 85.5845C21.8585 85.4981 21.3554 85.5644 20.8432 85.7834L14.9308 88.3355L14.5883 87.4545L20.6719 85.3429C21.7063 84.9806 22.6014 84.9905 23.3572 85.3728C24.1096 85.7464 24.6957 86.473 25.1155 87.5527C25.5688 88.7187 25.5912 89.7589 25.1828 90.6733C24.7659 91.591 23.9747 92.2764 22.8091 92.7296L17.4492 94.8134Z" fill="#F5F5F5"/>
<path d="M22.3365 81.5317L21.5119 81.5742L21.4992 81.4917C21.751 81.0873 21.9281 80.6476 22.0305 80.1724C22.1329 79.6972 22.1503 79.2398 22.0827 78.8002C21.9869 78.1774 21.7425 77.6993 21.3495 77.3659C20.9475 77.034 20.4623 76.9117 19.894 76.9991C19.5782 77.0477 19.2962 77.1661 19.0481 77.3542C18.7986 77.5332 18.5593 77.8091 18.3304 78.1819C18.1 78.5455 17.8661 79.0362 17.6286 79.654C17.4636 80.0825 17.2868 80.4941 17.0981 80.8888C16.9005 81.2848 16.6568 81.6223 16.3673 81.9013C16.0687 82.1816 15.6893 82.3571 15.2292 82.4279C14.5435 82.5334 13.9544 82.3661 13.4619 81.9262C12.9604 81.4876 12.6463 80.8562 12.5195 80.0319C12.4632 79.6655 12.4432 79.2654 12.4596 78.8316C12.467 78.3992 12.5117 78.0595 12.5938 77.8125L13.3622 77.7646L13.3749 77.847C12.8958 78.4551 12.7189 79.1668 12.8443 79.9819C12.9345 80.5681 13.1559 81.0169 13.5085 81.3283C13.8522 81.6411 14.2721 81.7594 14.7683 81.6831C15.1382 81.6262 15.4437 81.4808 15.6848 81.2468C15.9154 81.0051 16.1151 80.7118 16.2837 80.3671C16.4433 80.0238 16.5949 79.6583 16.7384 79.2705C16.9096 78.8223 17.0965 78.3857 17.2989 77.9608C17.5 77.5267 17.7665 77.1576 18.0983 76.8534C18.4198 76.5414 18.8557 76.3431 19.406 76.2585C19.9112 76.1808 20.3761 76.2312 20.8007 76.4096C21.2163 76.5895 21.5661 76.8826 21.8503 77.2889C22.133 77.6861 22.3187 78.1732 22.4075 78.7502C22.4638 79.1166 22.4849 79.554 22.4708 80.0625C22.4566 80.571 22.4119 81.0607 22.3365 81.5317Z" fill="#F5F5F5"/>
<path d="M57.8396 24.6099L57.7213 23.7926L57.8022 23.7724C58.2281 23.9858 58.6823 24.1216 59.1649 24.1797C59.6475 24.2378 60.1045 24.2129 60.536 24.105C61.1474 23.9522 61.6009 23.6647 61.8965 23.2427C62.19 22.8118 62.267 22.3174 62.1275 21.7595C62.05 21.4495 61.9061 21.1797 61.6958 20.95C61.4946 20.7181 61.1978 20.5053 60.8055 20.3117C60.4222 20.1158 59.912 19.9282 59.2749 19.7487C58.833 19.624 58.4068 19.4859 57.9964 19.3345C57.5838 19.1742 57.2253 18.9628 56.9208 18.7001C56.6142 18.4287 56.4044 18.0671 56.2914 17.6155C56.1232 16.9425 56.2353 16.3405 56.628 15.8095C57.0184 15.2697 57.6181 14.8986 58.4272 14.6963C58.7868 14.6064 59.1834 14.5496 59.6168 14.5259C60.0481 14.4934 60.3905 14.5065 60.644 14.5655L60.7626 15.3262L60.6817 15.3464C60.032 14.9255 59.307 14.8151 58.5069 15.0151C57.9316 15.159 57.5051 15.4208 57.2275 15.8007C56.9478 16.1718 56.8688 16.6008 56.9906 17.0879C57.0813 17.451 57.2543 17.7417 57.5096 17.9602C57.7715 18.1675 58.0819 18.3393 58.4407 18.4754C58.7973 18.6026 59.1753 18.7198 59.5746 18.827C60.0367 18.9561 60.4887 19.1018 60.9305 19.2643C61.3813 19.4244 61.7734 19.6557 62.1069 19.9581C62.4472 20.2493 62.6849 20.6651 62.82 21.2053C62.9439 21.7012 62.9367 22.1687 62.7981 22.608C62.6574 23.0383 62.3978 23.4137 62.0194 23.7342C61.65 24.0523 61.1821 24.2822 60.6158 24.4238C60.2561 24.5138 59.8225 24.5751 59.3149 24.6079C58.8073 24.6408 58.3155 24.6414 57.8396 24.6099Z" fill="#F5F5F5"/>
<path d="M67.9298 23.1286L67.4379 13.831C67.3087 13.8378 67.0431 13.8793 66.6411 13.9554L64.1265 14.4312L64.0896 13.7339L71.6361 13.3347L71.673 14.032L69.1222 13.8241C68.7144 13.7909 68.4459 13.7777 68.3166 13.7845L68.8085 23.0821L67.9298 23.1286Z" fill="#F5F5F5"/>
<path d="M104.273 36.1634L110.595 29.3283C110.5 29.2405 110.285 29.079 109.95 28.8439L107.856 27.373L108.33 26.8604L113.878 31.9917L113.403 32.5044L111.774 30.5309C111.513 30.2154 111.336 30.0137 111.241 29.9258L104.919 36.7609L104.273 36.1634Z" fill="#F5F5F5"/>
<path d="M72.9915 18.3045C73.0423 17.6035 73.2057 16.961 73.4815 16.3769C73.7667 15.7844 74.1362 15.2804 74.5901 14.8648C75.0533 14.4408 75.5778 14.1264 76.1635 13.9218C76.7584 13.7086 77.3872 13.6261 78.0497 13.6741C78.7122 13.7221 79.3182 13.8942 79.8676 14.1902C80.4262 14.4778 80.8999 14.8645 81.2885 15.3503C81.6863 15.8276 81.9793 16.3796 82.1674 17.0064C82.3648 17.6248 82.4381 18.2845 82.3873 18.9855C82.3365 19.6865 82.1685 20.3333 81.8834 20.9258C81.6075 21.5098 81.238 22.0139 80.7748 22.4379C80.3208 22.8535 79.7964 23.1678 79.2014 23.3809C78.6158 23.5856 77.9917 23.6639 77.3291 23.6159C76.6666 23.5679 76.056 23.4001 75.4974 23.1125C74.948 22.8164 74.4743 22.4297 74.0764 21.9524C73.6878 21.4667 73.3948 20.9146 73.1975 20.2963C73.0094 19.6695 72.9407 19.0055 72.9915 18.3045ZM73.9724 18.3756C73.9051 19.3042 74.0009 20.1303 74.2599 20.8538C74.5195 21.5681 74.9147 22.1413 75.4456 22.5733C75.9772 22.9963 76.6129 23.2345 77.3529 23.2882C78.0928 23.3418 78.7563 23.1977 79.3433 22.8558C79.9309 22.5049 80.405 21.9901 80.7656 21.3115C81.1262 20.633 81.3398 19.8339 81.4064 18.9144C81.4731 17.9949 81.3766 17.1779 81.117 16.4636C80.858 15.7401 80.4631 15.1623 79.9322 14.7303C79.4013 14.2983 78.7659 14.0555 78.0259 14.0019C77.286 13.9482 76.6222 14.0969 76.0345 14.4478C75.4561 14.7903 74.9824 15.3005 74.6132 15.9785C74.2533 16.6479 74.0397 17.447 73.9724 18.3756Z" fill="#F5F5F5"/>
<path d="M121.588 53.0713C122.267 52.8894 122.928 52.833 123.57 52.902C124.223 52.9771 124.821 53.1608 125.362 53.4534C125.915 53.7519 126.384 54.1442 126.769 54.6304C127.165 55.1226 127.45 55.6894 127.622 56.3311C127.793 56.9727 127.83 57.6016 127.73 58.2177C127.642 58.8398 127.432 59.414 127.1 59.9405C126.78 60.4729 126.354 60.9307 125.824 61.314C125.305 61.7032 124.705 61.9888 124.027 62.1707C123.348 62.3526 122.682 62.4061 122.028 62.331C121.386 62.262 120.789 62.0782 120.236 61.7797C119.695 61.4871 119.226 61.0948 118.829 60.6026C118.444 60.1165 118.165 59.5526 117.993 58.9109C117.821 58.2693 117.78 57.6375 117.868 57.0154C117.968 56.3993 118.178 55.825 118.498 55.2926C118.829 54.7662 119.255 54.3083 119.774 53.9191C120.305 53.5358 120.909 53.2532 121.588 53.0713ZM121.843 54.0212C120.944 54.2622 120.195 54.6237 119.596 55.1056C119.006 55.5851 118.594 56.1465 118.36 56.7897C118.135 57.4305 118.119 58.1093 118.311 58.8259C118.503 59.5425 118.856 60.122 119.372 60.5644C119.896 61.0045 120.538 61.2835 121.297 61.4016C122.057 61.5197 122.881 61.4594 123.772 61.2208C124.663 60.9822 125.403 60.6231 125.992 60.1436C126.591 59.6617 127.007 59.0991 127.241 58.4559C127.475 57.8127 127.496 57.1327 127.304 56.4161C127.112 55.6995 126.754 55.1212 126.23 54.6811C125.717 54.2471 125.079 53.9668 124.318 53.8404C123.567 53.72 122.742 53.7803 121.843 54.0212Z" fill="#F5F5F5"/>
<path d="M124.288 70.4482L124.616 70.4725L124.375 73.7374L120.661 73.4628C120.271 73.036 119.979 72.5257 119.785 71.9318C119.591 71.3465 119.519 70.7011 119.571 69.9956C119.625 69.273 119.797 68.6153 120.088 68.0226C120.388 67.4307 120.778 66.9232 121.258 66.5002C121.747 66.0779 122.301 65.7599 122.921 65.5462C123.54 65.3411 124.205 65.2649 124.915 65.3174C125.625 65.3699 126.271 65.5431 126.854 65.837C127.435 66.1395 127.932 66.5352 128.345 67.0242C128.766 67.5138 129.077 68.0731 129.278 68.7022C129.487 69.3318 129.566 70.008 129.512 70.7307C129.489 71.0404 129.442 71.3742 129.369 71.7322C129.297 72.0988 129.207 72.4468 129.1 72.7763C129.002 73.1064 128.89 73.3836 128.764 73.6078L128.004 73.4867L128.01 73.4093C128.354 73.0887 128.626 72.6936 128.825 72.2239C129.025 71.7543 129.144 71.2484 129.184 70.7064C129.244 69.8977 129.101 69.1735 128.755 68.5337C128.418 67.8946 127.911 67.3771 127.236 66.9811C126.569 66.5945 125.771 66.3668 124.842 66.2981C123.914 66.2295 123.087 66.337 122.361 66.6207C121.644 66.9137 121.067 67.3511 120.63 67.933C120.203 68.5155 119.959 69.2112 119.899 70.0199C119.862 70.5189 119.901 70.9845 120.016 71.4169C120.129 71.8578 120.311 72.2432 120.562 72.5731L124.112 72.8356L124.288 70.4482Z" fill="#F5F5F5"/>
<path d="M119.98 77.1032L129.46 78.5182L129.32 79.4531L124.58 78.7455L119.841 78.038L119.98 77.1032Z" fill="#F5F5F5"/>
<path d="M111.485 36.2793C112.045 35.8543 112.635 35.5526 113.256 35.3739C113.889 35.1966 114.511 35.1411 115.123 35.2074C115.748 35.275 116.33 35.4612 116.87 35.7657C117.423 36.0716 117.901 36.4891 118.302 37.0182C118.704 37.5474 118.975 38.116 119.116 38.724C119.269 39.3334 119.291 39.9444 119.183 40.5571C119.088 41.1711 118.867 41.7557 118.52 42.311C118.187 42.8676 117.74 43.3583 117.18 43.7833C116.62 44.2082 116.023 44.5093 115.39 44.6866C114.77 44.8653 114.147 44.9208 113.523 44.8531C112.911 44.7868 112.328 44.6007 111.775 44.2948C111.235 43.9902 110.764 43.5734 110.362 43.0443C109.961 42.5152 109.683 41.9459 109.53 41.3365C109.39 40.7284 109.367 40.1174 109.463 39.5034C109.571 38.8908 109.792 38.3062 110.125 37.7495C110.472 37.1943 110.925 36.7042 111.485 36.2793ZM112.079 37.0626C111.338 37.6255 110.781 38.2431 110.409 38.9154C110.044 39.5822 109.875 40.2575 109.901 40.9415C109.934 41.6199 110.175 42.2546 110.624 42.8456C111.073 43.4366 111.619 43.8395 112.263 44.0544C112.915 44.2638 113.615 44.2797 114.362 44.1022C115.11 43.9247 115.851 43.5572 116.585 42.9999C117.32 42.4425 117.869 41.8305 118.234 41.1637C118.606 40.4914 118.779 39.8133 118.753 39.1293C118.727 38.4453 118.489 37.8079 118.041 37.2169C117.592 36.6259 117.042 36.2257 116.39 36.0164C115.751 35.8083 115.055 35.7897 114.302 35.9603C113.562 36.1323 112.821 36.4998 112.079 37.0626Z" fill="#F5F5F5"/>
<path d="M123.137 44.8262L123.538 45.6092L115.253 49.8568C115.328 50.0027 115.47 50.2205 115.68 50.5102L116.965 52.2656L116.343 52.5841L114.608 49.1987L123.137 44.8262Z" fill="#F5F5F5"/>
<path d="M95.4506 18.571L92.2441 27.6032L91.4149 27.3088L94.3557 19.025L94.2825 18.999L89.206 23.9384L88.828 23.8042L87.348 17.3364L87.2749 17.3104L86.0646 21.1451L84.8543 24.9798L84.0251 24.6854L87.6005 15.5808L87.8444 15.6673L89.5419 23.0697L89.6151 23.0957L94.5726 18.2593L95.4506 18.571Z" fill="#F5F5F5"/>
<path d="M22.9797 65.6435L22.2711 72.9765L21.9986 72.9502L13.5999 65.9102C13.5857 66.0578 13.5713 66.3962 13.5568 66.9255L13.4336 71.7595L12.7658 71.695L13.4343 64.777L13.7069 64.8034L22.1055 71.8433C22.1207 71.6865 22.135 71.3481 22.1486 70.828L22.2847 65.5764L22.9797 65.6435Z" fill="#F5F5F5"/>
<path d="M29.5754 45.7585L26.5436 52.4729L26.294 52.3603L20.6092 42.9911C20.5482 43.1262 20.4257 43.442 20.2416 43.9384L18.5685 48.4753L17.9571 48.1992L20.8173 41.8649L21.0669 41.9776L26.7517 51.3468C26.8165 51.2032 26.9391 50.8874 27.1193 50.3994L28.939 45.4712L29.5754 45.7585Z" fill="#F5F5F5"/>
<path d="M23.843 54.5624L24.6282 54.8591C24.6668 55.1381 24.6779 55.4672 24.6613 55.8466C24.6447 56.2259 24.6049 56.6037 24.5418 56.9802C24.4876 57.359 24.4221 57.6916 24.3453 57.978C24.151 58.7031 23.8521 59.3425 23.4486 59.8964C23.0362 60.4478 22.5516 60.8984 21.9949 61.2481C21.4405 61.5889 20.8376 61.8111 20.1861 61.9147C19.5258 62.016 18.8518 61.9745 18.1641 61.7902C17.4764 61.606 16.8763 61.3061 16.3639 60.8906C15.8428 60.4727 15.4273 59.9776 15.1176 59.4054C14.8103 58.8241 14.6203 58.1928 14.5478 57.5114C14.4664 56.8276 14.5228 56.1232 14.7171 55.3982C14.7962 55.1028 14.907 54.7775 15.0494 54.4223C15.1919 54.0671 15.3495 53.7256 15.5224 53.3978C15.6865 53.0676 15.8494 52.7947 16.0111 52.579L16.7338 52.8446L16.7122 52.9251C16.3237 53.176 15.9829 53.5308 15.6899 53.9895C15.3969 54.4483 15.1784 54.9462 15.0345 55.4832C14.8186 56.2888 14.8175 57.0512 15.0312 57.7704C15.2384 58.4783 15.6347 59.0978 16.2201 59.6288C16.799 60.1485 17.5382 60.5288 18.4375 60.7698C19.3457 61.0132 20.1804 61.0545 20.9416 60.8939C21.7052 60.7244 22.3582 60.3861 22.9004 59.879C23.4338 59.3695 23.8096 58.7075 24.0279 57.893C24.191 57.2843 24.2451 56.6944 24.1902 56.1233C24.1378 55.5432 24.0148 55.0497 23.8214 54.6429L23.843 54.5624Z" fill="#F5F5F5"/>
<path d="M55.7857 117.554L52.7148 126.633L51.0689 126.077C50.0067 125.717 49.2576 125.213 48.8215 124.565C48.3825 123.925 48.2976 123.207 48.5666 122.412C48.8357 121.616 49.3404 121.093 50.0806 120.842C50.8179 120.6 51.7176 120.659 52.7798 121.018L53.5304 121.272L54.8903 117.251L55.7857 117.554ZM51.1742 125.765L51.9247 126.019L53.4251 121.583L52.6745 121.329C51.0681 120.786 50.0148 121.254 49.5147 122.732C49.0146 124.211 49.5678 125.222 51.1742 125.765Z" fill="#F5F5F5"/>
<path d="M119.088 82.0573L127.693 87.6967L127.515 88.5399L117.365 90.2174L117.574 89.2246L122.325 88.4664L122.977 85.3791L118.879 83.0501L119.088 82.0573ZM126.976 87.6447L123.278 85.5422L122.672 88.4119L126.959 87.7263L126.976 87.6447Z" fill="#F5F5F5"/>
<circle cx="49.1384" cy="22.5917" r="1.42431" fill="#F5F5F5"/>
<circle cx="70.6826" cy="71.0074" r="63.5391" transform="rotate(45 70.6826 71.0074)" stroke="#F5F5F5" stroke-width="1.08199"/>
<path d="M118.633 96.0262C113.168 106.499 104.424 114.895 93.7384 119.931C83.0524 124.967 71.0115 126.366 59.4556 123.914" stroke="#F5F5F5" stroke-width="0.757396"/>
<path d="M82.3144 52.64C82.6087 53.0723 82.9172 53.539 83.2676 54.0778C85.4808 57.465 87.2101 60.5647 88.5548 63.5571C89.8769 66.4945 90.9423 69.6985 91.8264 73.4308C92.6477 73.5384 93.4638 73.6665 94.278 73.8124C93.3193 69.5439 92.1456 65.923 90.655 62.6119C89.2605 59.5106 87.4734 56.3057 85.1959 52.8186C84.4717 51.7085 83.9205 50.887 83.3014 50.0553C83.1207 51.1389 82.6989 52.021 82.3144 52.64ZM80.177 46.4053C80.177 46.4053 80.1661 46.3952 80.1608 46.3886C80.0328 46.2533 79.8671 46.0915 79.6552 45.9262C79.3177 45.6589 79.0156 45.4959 78.7604 45.371C78.6934 45.3383 78.6303 45.3105 78.5689 45.2814C78.1476 45.0817 77.7477 44.9353 77.3476 44.8323C76.1139 44.5124 75.0811 44.6132 74.3989 44.6781C73.3388 44.7819 72.5732 44.9954 72.1166 45.125C70.837 45.4845 69.9189 45.9292 69.3713 46.1946C68.966 46.3912 68.1385 46.8172 67.1524 47.4632C66.5196 47.8785 65.8597 48.3644 65.246 48.8673C64.683 49.3322 64.1293 49.8355 63.6447 50.3237C63.2442 50.728 62.5105 51.4686 61.7057 52.5782C62.5149 52.8121 63.3369 53.0113 64.166 53.1588C64.6265 52.6004 65.027 52.1962 65.2795 51.9412C65.7085 51.5085 66.2041 51.0575 66.7093 50.642C67.256 50.1904 67.8442 49.7568 68.4106 49.3869C69.3225 48.7899 70.0872 48.4038 70.3753 48.2636C70.8835 48.0165 71.6542 47.6445 72.7373 47.3405C73.1458 47.2252 73.763 47.0529 74.6182 46.9705C75.2023 46.9116 75.9283 46.8439 76.7678 47.0615C77.0307 47.1288 77.299 47.2296 77.5921 47.3646C77.8536 47.4872 78.0246 47.5715 78.2292 47.7345C78.4064 47.8736 78.509 47.9941 78.5461 48.0401L78.558 48.0549C78.612 48.1252 78.6528 48.1926 78.683 48.2469C78.7069 48.29 78.7241 48.3248 78.7338 48.3469C78.8471 48.6051 78.8405 48.849 78.837 48.9792C78.8244 49.3905 78.5876 49.9473 78.1707 50.5464C77.6863 51.2432 77.1821 51.6903 76.7974 52.0032L76.763 52.031C75.2533 53.2482 73.7913 53.9662 73.2313 54.2197C72.3954 54.5983 70.6591 55.3829 68.2382 55.6244C67.6512 55.683 67.0578 55.7034 66.4678 55.6911C65.8404 55.6793 65.214 55.6286 64.5922 55.5499C63.9381 55.4648 63.2891 55.3456 62.6443 55.2014C62.3339 55.1291 62.0226 55.0522 61.7131 54.971C61.1411 54.8196 60.5849 54.6474 60.0488 54.4833C58.7964 54.0999 57.5186 53.7288 56.2096 53.6078C55.9393 53.5818 55.6663 53.5661 55.3921 53.5622C54.2552 53.5437 52.4762 53.677 50.4444 54.418C47.7364 55.406 45.8839 57.0215 44.8075 58.2011C43.8584 59.2428 43.0353 60.481 42.426 61.7827C42.2004 62.2627 41.9147 62.9538 41.6622 63.8106C41.3154 64.9874 41.0317 66.4711 41.0647 68.1358C41.0753 68.7642 41.1424 69.7618 41.3941 70.9547C41.5162 71.5366 41.7458 72.4466 42.1477 73.4696C42.3587 74.0069 42.9983 75.6406 45.2066 78.4436C46.3308 79.8682 47.1799 80.7801 48.6606 82.2805C49.9667 83.6046 51.6882 85.3498 54.1286 87.3748C54.7057 86.9746 55.2908 86.5841 55.8822 86.2049C56.4704 85.8283 57.0658 85.4675 57.6652 85.1116C58.2231 84.7648 58.7989 84.4469 59.3731 84.1304C59.9312 83.8241 60.4972 83.5276 61.0665 83.2421C61.6329 82.9562 62.2072 82.6802 62.7862 82.4166C63.3622 82.1528 63.9432 81.8985 64.5276 81.655C65.1132 81.4132 65.7026 81.1793 66.2949 80.9593C66.8875 80.7362 67.4832 80.527 68.0826 80.3257C68.6816 80.1273 69.2842 79.9369 69.8899 79.7602C70.4943 79.582 71.1033 79.4162 71.7143 79.2597C72.3254 79.1031 72.9397 78.9575 73.5558 78.824C74.1748 78.6908 74.7929 78.5665 75.414 78.4561C76.0354 78.3426 76.6598 78.2431 77.2846 78.154C77.3396 78.1449 77.3976 78.1361 77.4523 78.13C77.4569 78.129 77.4615 78.128 77.4644 78.1283C81.3233 77.5893 85.2523 77.4736 89.1958 77.796C90.4007 77.8953 91.6086 78.0354 92.8138 78.2157C92.962 79.0719 93.0893 79.9424 93.165 80.8028C87.3197 79.7857 81.4058 79.7996 75.5654 80.8492C73.5336 81.2135 71.5381 81.7003 69.5855 82.3042C69.5809 82.3052 69.5763 82.3062 69.5717 82.3072C66.27 83.3321 63.0911 84.6942 60.0569 86.3871C59.7521 86.557 59.4485 86.7285 59.1474 86.9063C58.8448 87.0824 58.5466 87.2605 58.2494 87.4432C57.9522 87.6259 57.655 87.8086 57.3604 87.9946C57.3604 87.9946 57.3266 88.0165 57.3105 88.0268C57.0143 88.2141 56.7161 88.4057 56.4236 88.6009C56.2848 88.6911 56.1458 88.7842 56.0097 88.8776C58.038 90.4352 60.1234 91.8384 62.2345 93.0718C62.2345 93.0718 62.5367 92.8986 62.5735 92.877C62.7445 92.7798 62.9185 92.683 63.0938 92.5877C63.5499 92.3365 64.0139 92.0952 64.4777 91.8568C64.7191 91.7326 64.9605 91.6085 65.2046 91.4876C66.8824 90.6472 68.6193 89.9271 70.3935 89.3206C72.0697 88.7471 73.7795 88.2793 75.5142 87.9161C77.2455 87.5556 79 87.3011 80.7638 87.1557C82.5322 87.0092 84.3129 86.9722 86.0848 87.0452C87.0499 87.0857 88.0114 87.1588 88.9698 87.2616C89.8883 87.3586 90.8062 87.4886 91.7226 87.6469C91.5828 87.8165 91.4345 87.9822 91.2723 88.1374C90.1153 89.2572 88.7265 89.5014 88.1836 89.5542C87.0116 89.6671 85.8145 89.4397 84.6399 89.4217C79.8115 89.3465 74.9491 90.1904 70.1358 91.9325C69.655 92.1061 69.1746 92.2901 68.6982 92.4791C68.2214 92.671 67.7427 92.8673 67.2729 93.078C66.7955 93.2894 66.3274 93.5123 65.86 93.7428C65.4403 93.9484 65.0242 94.1618 64.6118 94.3832C67.7704 96.0216 70.9658 97.2752 74.1098 98.0986C77.2205 98.911 80.4677 99.4154 83.1618 97.62C83.3524 97.4934 83.5315 97.3626 83.7007 97.2262C84.9754 96.1984 85.6416 94.9539 85.9758 94.0908C85.1449 94.0452 84.3071 94.0214 83.4579 94.0203C83.1377 94.5712 82.6392 95.2035 81.8861 95.705C80.3411 96.7337 78.3369 96.6583 76.2747 96.242C76.2351 96.2333 76.194 96.2258 76.1527 96.2184C75.9915 96.1831 75.8302 96.1478 75.6675 96.1109C75.3423 96.037 75.0194 95.9558 74.6955 95.87C73.192 95.4777 71.6729 94.9786 70.1521 94.3833C71.3304 93.9319 72.5103 93.5363 73.6944 93.1996C76.9467 92.2715 80.2109 91.7783 83.4564 91.7257C84.4756 91.709 85.4934 91.7477 86.5086 91.81C87.1437 91.8482 87.7678 91.9061 88.4032 91.8437C89.378 91.7517 91.2539 91.3587 92.8732 89.7902C93.9081 88.7878 94.6458 87.5208 95.0783 86.0066C94.3358 85.8219 93.5871 85.6531 92.8342 85.5093C92.6255 85.4689 92.4134 85.4311 92.2027 85.395C90.0553 85.0176 87.8957 84.7965 85.7419 84.7305C85.0198 84.7056 84.2984 84.7017 83.5784 84.713C77.0065 84.8184 70.5233 86.3483 64.5702 89.2317C63.8008 89.6053 63.0398 89.9994 62.288 90.4184C61.5604 89.9697 60.8336 89.4986 60.1133 89.0087C60.8104 88.5958 61.5128 88.2029 62.2251 87.8292C66.1296 85.7735 70.2627 84.2871 74.5192 83.3841C78.0573 82.6322 81.6793 82.2869 85.3288 82.3557C85.8156 82.3644 86.306 82.381 86.7942 82.4049C87.2853 82.429 87.7771 82.4608 88.2695 82.5001C88.762 82.5394 89.2552 82.5863 89.7461 82.6405C90.2383 82.6963 90.7315 82.7567 91.2221 82.8273C92.4919 83.0071 93.751 83.2442 95.0104 83.4918C95.0487 83.4989 95.4968 83.574 95.4943 83.5977C95.6621 81.3618 95.3133 79.06 94.9886 77.3025C94.9246 76.9475 94.8587 76.5968 94.7908 76.2504C93.9812 76.09 93.1696 75.9474 92.3559 75.8256C92.3529 75.8253 92.3486 75.8233 92.344 75.8243C85.9424 74.9575 79.5097 75.2054 73.1969 76.5601C67.1238 77.8624 61.3833 80.1488 56.0982 83.3664C55.4962 83.7325 54.9005 84.1098 54.3108 84.5012C52.6132 83.0076 51.3247 81.7019 50.3002 80.6631C48.8817 79.2264 48.073 78.3579 47.0177 77.0187C45.0206 74.4845 44.4725 73.0887 44.2922 72.6297C43.9305 71.707 43.7332 70.8875 43.6463 70.4806C43.4809 69.687 43.3811 68.8404 43.3667 68.0931C43.3394 66.6136 43.6076 65.3023 43.9234 64.2888C44.1239 63.65 44.3401 63.1315 44.512 62.7598C45.0243 61.6637 45.715 60.6244 46.5108 59.7524C47.4123 58.7626 48.9636 57.4089 51.2343 56.5811C53.0225 55.928 54.5823 55.8523 55.3538 55.8645C56.7966 55.8857 58.1433 56.2988 59.5686 56.7353C60.106 56.901 60.6626 57.0702 61.233 57.2229C63.8007 57.9065 66.2336 58.1405 68.468 57.9165C71.2621 57.637 73.2334 56.747 74.1795 56.3202C74.9759 55.96 76.5534 55.1598 78.2076 53.8262L78.2486 53.793C78.7138 53.4153 79.4065 52.8053 80.0633 51.8583C80.3701 51.4186 80.61 50.9866 80.7873 50.5645L80.79 50.5677C80.9782 50.0717 81.1144 49.4741 81.0877 48.799C81.076 48.4751 81.0504 47.8045 80.6455 47.0603C80.534 46.8548 80.411 46.672 80.2783 46.5107C80.2445 46.4756 80.2121 46.4421 80.1784 46.407L80.177 46.4053Z" fill="#F5F5F5"/>
</svg>
