<svg width="70" height="49" viewBox="0 0 70 49" fill="none" xmlns="http://www.w3.org/2000/svg">
<path d="M30.0781 35.0391C30.0781 42.9776 24.3359 49 15.8594 49C7.92969 49 0 42.4302 0 30.1117C0 15.6034 11.7578 2.46369 26.25 0V8.75978C17.7734 10.4022 11.2109 17.2458 11.2109 24.0894C12.5781 22.9944 14.7656 22.1732 18.3203 22.1732C24.3359 22.1732 30.0781 26.5531 30.0781 35.0391ZM70 35.0391C70 42.9776 64.2578 49 55.7812 49C47.8516 49 39.9219 42.4302 39.9219 30.1117C39.9219 15.6034 51.6797 2.46369 66.1719 0V8.75978C57.6953 10.4022 51.1328 17.2458 51.1328 24.0894C52.5 22.9944 54.6875 22.1732 58.2422 22.1732C64.2578 22.1732 70 26.5531 70 35.0391Z" fill="#122548"/>
</svg>
