<svg width="48" height="48" viewBox="0 0 48 48" fill="none" xmlns="http://www.w3.org/2000/svg">
<path d="M22.1045 15.3574C22.9143 16.3028 23.4608 17.4957 23.6859 18.8072C23.7809 19.3633 24.2033 19.767 24.6894 19.767C25.1755 19.767 25.5979 19.3633 25.6934 18.8061L25.9733 17.1706C25.9922 17.0602 26.1536 17.0608 26.1726 17.17L26.4525 18.8066C26.5479 19.3633 26.9704 19.767 27.4565 19.767C27.9425 19.767 28.365 19.3633 28.4604 18.8066C28.685 17.4952 29.232 16.3028 30.0418 15.3569L30.2466 15.1178C30.8267 14.4411 31.1459 13.541 31.1459 12.5833C31.1459 10.6075 29.7688 9 28.0758 9H27.7267L27.3213 9.47321C26.9925 9.85652 26.5378 10.0767 26.0729 10.0767C25.6081 10.0767 25.1534 9.85652 24.8245 9.47321L24.4192 9H24.07C22.3771 9 21 10.6075 21 12.5838C21 13.5415 21.3191 14.4417 21.8993 15.1178L22.1045 15.3574ZM24.0373 10.0767L24.1724 10.2339C24.6728 10.8186 25.3655 11.1534 26.0729 11.1534C26.7804 11.1534 27.4731 10.8186 27.9734 10.2344L28.1086 10.0767C29.2777 10.0977 30.2235 11.2142 30.2235 12.5838C30.2235 13.2541 30.0003 13.8834 29.5945 14.3566L29.3897 14.5956C28.4508 15.6923 27.8166 17.0747 27.5561 18.5945C27.5372 18.7049 27.3758 18.7043 27.3569 18.5951L27.0769 16.9585C26.9815 16.4023 26.559 15.9986 26.0729 15.9986C25.5869 15.9986 25.1644 16.4023 25.069 16.9595L24.789 18.5951C24.7701 18.7054 24.6087 18.7054 24.5898 18.5951C24.3297 17.0753 23.6956 15.6923 22.7562 14.5962L22.5514 14.3561C22.1456 13.8829 21.9224 13.2535 21.9224 12.5838C21.9224 11.2142 22.8682 10.0977 24.0373 10.0767Z" fill="#A9722D"/>
<path d="M42.258 28.122C41.8718 27.8949 41.4308 27.7748 40.9836 27.7748C40.0967 27.7748 39.2658 28.2497 38.8142 29.0152L37.6775 30.9475C37.3718 29.7335 36.6428 28.6881 35.5936 27.9893C35.4465 27.8911 35.2905 27.8113 35.1351 27.7301C36.378 26.9514 37.2089 25.5733 37.2089 24.0007C37.2089 21.769 35.5383 19.9241 33.3827 19.6398C34.6357 18.0069 35.3219 16.0325 35.3219 13.9366C35.3219 8.73406 31.0893 4.50146 25.8868 4.50146C20.6843 4.50146 16.4517 8.73406 16.4517 13.9366C16.4517 14.4228 16.4932 14.9084 16.5686 15.3902C16.1309 15.2657 15.6711 15.1946 15.1936 15.1946C12.4191 15.1946 10.1616 17.4521 10.1616 20.2267C10.1616 22.0087 11.095 23.573 12.4958 24.4675C9.31052 25.5858 7.01652 28.6151 7.01652 32.1778V37.2099C7.01652 37.6703 7.14987 38.0962 7.36625 38.4679H7.01652C5.62893 38.4679 4.50049 39.5964 4.50049 40.984C4.50049 42.3716 5.62893 43.5 7.01652 43.5H31.4554C34.3407 43.5 37.041 41.9552 38.5041 39.4687L43.1531 31.5646C43.8544 30.3682 43.4531 28.8233 42.258 28.122ZM36.5051 31.4381C36.5982 31.9017 36.6045 32.3703 36.5202 32.8559L36.5101 32.932L34.1658 36.9174C33.6041 37.8741 32.5643 38.4679 31.4554 38.4679H25.8868C25.3666 38.4679 24.9433 38.0446 24.9433 37.5244C24.9433 37.0042 25.3666 36.5809 25.8868 36.5809H30.6578C31.4265 36.5809 32.1492 36.1714 32.5455 35.5122L33.9739 33.1308L32.8952 32.4835L31.4667 34.865C31.2975 35.1474 30.9868 35.3229 30.6578 35.3229H26.1724L29.6646 30.0839C30.3634 29.0322 31.5372 28.4038 32.804 28.4038C33.5506 28.4038 34.274 28.6227 34.8961 29.0372C35.7352 29.5958 36.3069 30.4481 36.5051 31.4381ZM20.0911 21.3658C21.7422 22.6609 23.7557 23.3717 25.8868 23.3717C26.7888 23.3717 27.6707 23.2289 28.5286 22.9754C28.4494 23.305 28.4028 23.6472 28.4028 24.0007C28.4028 25.5676 29.2281 26.9426 30.4647 27.7232C29.7307 28.1088 29.0916 28.6736 28.6173 29.3869L25.0798 34.6939H24.8194L23.3707 33.7284V32.1778C23.3707 28.6151 21.0768 25.5858 17.8915 24.4675C18.984 23.7699 19.7885 22.6647 20.0911 21.3658ZM22.5512 34.6939H12.048L13.9885 33.239C14.9011 32.5546 16.0315 32.1778 17.1719 32.1778C18.2223 32.1778 19.2394 32.4861 20.1137 33.0685L22.5512 34.6939ZM35.9509 24.0007C35.9509 25.7349 34.5401 27.1458 32.8059 27.1458C31.0717 27.1458 29.6608 25.7349 29.6608 24.0007C29.6608 22.2666 31.0717 20.8557 32.8059 20.8557C34.5401 20.8557 35.9509 22.2666 35.9509 24.0007ZM17.7097 13.9366C17.7097 9.42786 21.378 5.75948 25.8868 5.75948C30.3955 5.75948 34.0639 9.42786 34.0639 13.9366C34.0639 16.1526 33.1852 18.2164 31.5963 19.7706C30.6672 20.0367 29.8653 20.6009 29.2966 21.3526C28.2122 21.8539 27.0668 22.1137 25.8868 22.1137C23.7456 22.1137 21.7397 21.2891 20.2043 19.7996C20.0722 18.239 19.2281 16.8785 17.9952 16.0488C17.8091 15.3556 17.7097 14.6467 17.7097 13.9366ZM11.4196 20.2267C11.4196 18.1453 13.1122 16.4526 15.1936 16.4526C17.275 16.4526 18.9677 18.1453 18.9677 20.2267C18.9677 22.3081 17.275 24.0007 15.1936 24.0007C13.1122 24.0007 11.4196 22.3081 11.4196 20.2267ZM15.1936 25.2587C19.0086 25.2587 22.1127 28.3629 22.1127 32.1778V32.8899L20.8113 32.0219C19.73 31.301 18.4714 30.9198 17.1719 30.9198C15.7616 30.9198 14.3627 31.3859 13.2343 32.2319L9.95211 34.6939H9.53256C9.07212 34.6939 8.64628 34.8272 8.27454 35.0436V32.1778C8.27454 28.3629 11.3787 25.2587 15.1936 25.2587ZM8.27454 37.2099C8.27454 36.5161 8.83876 35.9519 9.53256 35.9519H24.3507C23.9413 36.3519 23.6853 36.908 23.6853 37.5244C23.6853 37.8635 23.7689 38.1811 23.906 38.4679H9.52941C8.8375 38.466 8.27454 37.9025 8.27454 37.2099ZM42.068 30.9274L37.419 38.8309C36.1811 40.9349 33.896 42.242 31.4554 42.242H7.01652C6.32273 42.242 5.75851 41.6778 5.75851 40.984C5.75851 40.2902 6.32273 39.7259 7.01652 39.7259H9.52941H9.53256H23.3707H25.8868H31.4554H31.5183V39.7215C33.048 39.6995 34.474 38.8755 35.2515 37.5552L39.8992 29.6536C40.2376 29.0775 41.0421 28.8674 41.6221 29.207C42.2184 29.5574 42.4184 30.3298 42.068 30.9274Z" fill="#A9722D"/>
</svg>
