<svg width="48" height="48" viewBox="0 0 48 48" fill="none" xmlns="http://www.w3.org/2000/svg">
<path fill-rule="evenodd" clip-rule="evenodd" d="M23.9999 47.9931C23.7915 47.9931 23.0265 47.6255 22.7942 47.526C14.0683 43.7907 8.77435 37.8352 6.24168 29.4514L6.21777 9.38213C6.21777 7.41563 13.4243 11.7697 21.6956 2.3337C24.3953 -0.745999 23.6033 -0.745999 26.3033 2.3337C34.5744 11.7694 41.7814 7.41563 41.7814 9.38213L41.7572 29.4517C39.2293 37.8324 33.9255 43.7943 25.2048 47.5265C24.973 47.6258 24.2074 47.9931 23.9999 47.9931ZM7.3425 29.2061C9.79416 37.3126 14.7701 42.8676 23.2366 46.4921L23.9999 46.8189L24.7624 46.4924C33.0134 42.961 38.1853 37.3964 40.5737 29.4798L40.6564 29.2056V9.93198L38.7605 9.88979C33.662 9.77729 29.4351 7.61166 25.4573 3.07508L23.9996 1.41204L22.5419 3.07508C18.5641 7.61194 14.3372 9.77729 9.23813 9.88979L7.34222 9.93198L7.3425 29.2061Z" fill="#A9722D"/>
<path fill-rule="evenodd" clip-rule="evenodd" d="M24.0004 45.2697C23.925 45.2697 23.8496 45.2545 23.7793 45.2244C15.9259 41.8629 11.0074 36.5818 8.74391 29.0792L8.71973 11.8255C8.71973 11.5198 8.96385 11.2704 9.26957 11.2636C14.7813 11.1415 19.3274 8.82684 23.5768 3.97976C23.7903 3.73591 24.2093 3.73591 24.4228 3.97976C28.6722 8.82712 33.2189 11.1418 38.7306 11.2639C39.0361 11.2706 39.2808 11.5204 39.2808 11.8258L39.2566 29.0795C36.9928 36.5821 32.0745 41.8634 24.2212 45.2244C24.1514 45.2545 24.076 45.2697 24.0007 45.2697H24.0004ZM9.84473 28.8331C11.9957 35.8855 16.6279 40.8796 24.0004 44.0941C31.3731 40.8796 36.005 35.8852 38.1558 28.8331V12.3681C32.8033 12.1062 28.1621 9.75356 24.0004 5.19336C19.8387 9.75384 15.1969 12.1065 9.84473 12.3681V28.8331Z" fill="#A9722D"/>
<path fill-rule="evenodd" clip-rule="evenodd" d="M20.76 35.0706C20.637 35.0706 20.5139 35.0301 20.4115 34.9496C16.1548 31.5932 16.1337 27.2028 16.6821 23.6616C12.5055 20.6514 14.5814 13.9922 19.8723 13.9922C23.3821 13.9922 23.2532 16.5029 24.6978 15.2508C27.9299 12.449 33.5324 14.5628 33.5324 19.3264C33.5324 21.0626 32.7106 22.6567 31.3159 23.6622C31.8643 27.2034 31.8435 31.594 27.5865 34.9502C27.148 35.2961 26.5225 34.847 26.7079 34.3213C28.1037 30.3714 24.9765 27.9681 23.9997 27.3328C23.033 27.9662 19.9421 30.352 21.262 34.2406C21.4802 34.7387 21.0975 35.0708 20.76 35.0708V35.0706ZM23.9991 26.1105C24.5341 26.1105 28.4955 28.8085 28.1636 32.8934C30.2589 30.6077 30.8529 27.6933 30.1487 23.4886C30.1107 23.2636 30.2128 23.0384 30.4069 22.918C33.9481 20.7222 32.5576 15.1175 28.1256 15.1175C25.2029 15.1175 24.801 18.043 22.5628 16.1004C20.092 13.9559 15.5906 15.4519 15.5906 19.3261C15.5906 20.7979 16.3384 22.1403 17.5911 22.9174C17.7849 23.0378 17.887 23.2631 17.8493 23.4881C17.145 27.6928 17.7388 30.6068 19.8344 32.8928C19.5025 28.8096 23.4628 26.1105 23.9988 26.1105H23.9991Z" fill="#A9722D"/>
<path fill-rule="evenodd" clip-rule="evenodd" d="M24.0005 19.6813C23.1911 19.6813 20.8272 18.6401 21.5688 17.7845C22.4714 16.7439 23.0623 19.9617 25.6383 17.7283C26.198 17.2431 26.9345 18.0928 26.3749 18.5779C25.5584 19.2855 24.7774 19.6813 24.0003 19.6813H24.0005Z" fill="#A9722D"/>
</svg>
