<svg width="446" height="80" viewBox="0 0 446 80" fill="none" xmlns="http://www.w3.org/2000/svg">
<path d="M28.3861 5.40227C30.4647 6.27241 32.0358 7.52927 33.0993 9.17286C34.2111 10.8164 34.9121 12.6292 35.2021 14.6112C35.5405 16.5448 35.5405 18.551 35.2021 20.6296C34.8637 22.7083 34.332 24.6419 33.6069 26.4305C32.06 29.9594 29.9571 33.2708 27.2984 36.3646C24.688 39.4584 21.6667 41.9238 18.2345 43.7607C18.2828 45.4043 18.3312 47.0479 18.3795 48.6915C18.4762 50.2868 18.5245 51.9304 18.5245 53.6223C18.5245 53.864 18.3795 54.009 18.0895 54.0574C17.8478 54.1057 17.6786 53.9848 17.5819 53.6948C17.1952 52.1962 16.9534 50.6735 16.8568 49.1266C16.8084 47.5313 16.7843 45.9603 16.7843 44.4133C16.5909 44.3167 16.47 44.1716 16.4217 43.9783C16.3734 43.7366 16.47 43.5432 16.7117 43.3982L16.7843 43.3257C16.8326 42.2138 16.8809 41.102 16.9293 39.9902C16.9776 38.83 17.0501 37.7181 17.1468 36.6546C17.5819 30.9504 18.597 25.367 20.1923 19.9045C20.1923 19.7112 20.2648 19.6387 20.4098 19.687C20.5548 19.7353 20.6274 19.832 20.6274 19.977C20.0956 22.8292 19.6122 25.7054 19.1771 28.6059C18.7904 31.458 18.5004 34.3343 18.307 37.2347C18.2103 38.0565 18.162 38.9267 18.162 39.8451C18.162 40.7153 18.162 41.5612 18.162 42.383C20.9174 40.6428 23.3828 38.7333 25.5581 36.6546C27.7335 34.576 29.5946 32.0864 31.1415 29.186C32.0116 27.5907 32.7609 25.8263 33.3893 23.8927C34.0661 21.959 34.4528 20.0496 34.5495 18.1643C34.6462 16.2306 34.4045 14.3695 33.8244 12.5809C33.2443 10.7923 32.1567 9.19703 30.5614 7.79514C28.9662 6.4416 27.2017 5.74066 25.2681 5.69232C23.3344 5.64397 21.425 6.00653 19.5397 6.77998C17.6544 7.55344 15.8899 8.59277 14.2464 9.89797C12.6028 11.2032 11.2492 12.5567 10.1857 13.9586C9.07389 15.4088 8.22792 17.0041 7.64783 18.7444C7.06774 20.4846 6.7777 22.2491 6.7777 24.0377C6.7777 25.7779 7.06774 27.494 7.64783 29.186C8.22792 30.8779 9.1464 32.449 10.4033 33.8992C10.5483 34.0442 10.5483 34.1893 10.4033 34.3343C10.2582 34.431 10.1132 34.4068 9.96819 34.2618C8.66299 32.9082 7.672 31.3855 6.99523 29.6936C6.31846 27.9533 5.9559 26.1888 5.90756 24.4002C5.85922 22.6116 6.10092 20.823 6.63267 19.0344C7.11608 17.2458 7.88954 15.578 8.95303 14.0311C9.87151 12.6776 11.08 11.324 12.5786 9.97048C14.0772 8.61694 15.6966 7.5051 17.4369 6.63496C19.2255 5.71648 21.0624 5.11222 22.9477 4.82218C24.833 4.48379 26.6458 4.67716 28.3861 5.40227ZM40.4542 40.4252C40.5509 40.5703 40.5751 40.812 40.5268 41.1503C40.5268 41.4404 40.4542 41.6338 40.3092 41.7304C40.2125 41.8755 40.0675 41.9963 39.8742 42.093C39.6808 42.1413 39.5116 42.093 39.3666 41.948V41.8029C39.2216 41.6579 39.1732 41.4646 39.2216 41.2229C39.2216 41.0295 39.2457 40.8361 39.2941 40.6428C39.3907 40.4011 39.5599 40.256 39.8016 40.2077H39.9467C39.995 40.2077 40.0675 40.2319 40.1642 40.2802C40.2609 40.2802 40.3092 40.3044 40.3092 40.3527H40.3817C40.3817 40.3527 40.4059 40.3769 40.4542 40.4252ZM55.6789 5.40227C57.7576 6.27241 59.3287 7.52927 60.3922 9.17286C61.504 10.8164 62.205 12.6292 62.495 14.6112C62.8334 16.5448 62.8334 18.551 62.495 20.6296C62.1566 22.7083 61.6249 24.6419 60.8998 26.4305C59.3529 29.9594 57.25 33.2708 54.5913 36.3646C51.9809 39.4584 48.9596 41.9238 45.5274 43.7607C45.5757 45.4043 45.624 47.0479 45.6724 48.6915C45.7691 50.2868 45.8174 51.9304 45.8174 53.6223C45.8174 53.864 45.6724 54.009 45.3823 54.0574C45.1406 54.1057 44.9714 53.9848 44.8748 53.6948C44.488 52.1962 44.2463 50.6735 44.1496 49.1266C44.1013 47.5313 44.0771 45.9603 44.0771 44.4133C43.8838 44.3167 43.7629 44.1716 43.7146 43.9783C43.6662 43.7366 43.7629 43.5432 44.0046 43.3982L44.0771 43.3257C44.1255 42.2138 44.1738 41.102 44.2222 39.9902C44.2705 38.83 44.343 37.7181 44.4397 36.6546C44.8748 30.9504 45.8899 25.367 47.4852 19.9045C47.4852 19.7112 47.5577 19.6387 47.7027 19.687C47.8477 19.7353 47.9202 19.832 47.9202 19.977C47.3885 22.8292 46.9051 25.7054 46.47 28.6059C46.0833 31.458 45.7932 34.3343 45.5999 37.2347C45.5032 38.0565 45.4549 38.9267 45.4549 39.8451C45.4549 40.7153 45.4549 41.5612 45.4549 42.383C48.2103 40.6428 50.6757 38.7333 52.851 36.6546C55.0263 34.576 56.8875 32.0864 58.4344 29.186C59.3045 27.5907 60.0538 25.8263 60.6822 23.8927C61.359 21.959 61.7457 20.0496 61.8424 18.1643C61.9391 16.2306 61.6974 14.3695 61.1173 12.5809C60.5372 10.7923 59.4495 9.19703 57.8543 7.79514C56.259 6.4416 54.4946 5.74066 52.561 5.69232C50.6273 5.64397 48.7179 6.00653 46.8326 6.77998C44.9473 7.55344 43.1828 8.59277 41.5392 9.89797C39.8957 11.2032 38.5421 12.5567 37.4786 13.9586C36.3668 15.4088 35.5208 17.0041 34.9407 18.7444C34.3606 20.4846 34.0706 22.2491 34.0706 24.0377C34.0706 25.7779 34.3606 27.494 34.9407 29.186C35.5208 30.8779 36.4393 32.449 37.6961 33.8992C37.8412 34.0442 37.8412 34.1893 37.6961 34.3343C37.5511 34.431 37.4061 34.4068 37.2611 34.2618C35.9559 32.9082 34.9649 31.3855 34.2881 29.6936C33.6113 27.9533 33.2488 26.1888 33.2004 24.4002C33.1521 22.6116 33.3938 20.823 33.9256 19.0344C34.409 17.2458 35.1824 15.578 36.2459 14.0311C37.1644 12.6776 38.3729 11.324 39.8715 9.97048C41.37 8.61694 42.9895 7.5051 44.7297 6.63496C46.5184 5.71648 48.3553 5.11222 50.2406 4.82218C52.1259 4.48379 53.9387 4.67716 55.6789 5.40227ZM65.2092 37.4523C65.4026 37.2589 65.596 37.2831 65.7893 37.5248C66.031 37.8632 66.1519 38.2015 66.1519 38.5399C66.2002 38.8783 66.2244 39.2409 66.2244 39.6276C66.2244 39.9176 66.2727 40.2802 66.3694 40.7153C66.4661 41.1503 66.6111 41.5371 66.8045 41.8755C66.9978 42.2138 67.2637 42.4555 67.6021 42.6006C67.9405 42.7456 68.3272 42.6731 68.7623 42.383C69.5841 41.8996 70.2125 41.2954 70.6476 40.5703C71.0827 39.8451 71.5177 39.0959 71.9528 38.3224C72.0011 38.2257 72.0736 38.2015 72.1703 38.2499C72.3153 38.2982 72.3637 38.3707 72.3153 38.4674C72.2187 38.9992 72.0253 39.6034 71.7353 40.2802C71.4452 40.9086 71.0827 41.5129 70.6476 42.093C70.2125 42.6247 69.7049 43.0598 69.1248 43.3982C68.5448 43.7366 67.9163 43.8574 67.2396 43.7607C66.6595 43.7124 66.1277 43.4224 65.6443 42.8906C65.2092 42.3589 64.895 41.7546 64.7017 41.0778C64.46 40.4011 64.3874 39.7243 64.4841 39.0475C64.5325 38.3707 64.7742 37.839 65.2092 37.4523ZM65.8618 35.6395C65.7652 35.7845 65.6201 35.857 65.4268 35.857C65.2817 35.857 65.1609 35.7845 65.0642 35.6395C64.8225 35.0111 64.7258 34.3343 64.7742 33.6092C64.8225 32.8357 65.0159 32.1589 65.3543 31.5788C65.5476 31.2888 65.8135 31.1921 66.1519 31.2888C66.4903 31.3855 66.6595 31.603 66.6595 31.9414C66.6595 32.2798 66.6353 32.6182 66.587 32.9566C66.5386 33.2466 66.4661 33.5608 66.3694 33.8992C66.2727 34.1893 66.2002 34.4793 66.1519 34.7693C66.1035 35.0594 66.0069 35.3494 65.8618 35.6395ZM84.2057 38.2499C84.3023 38.1532 84.399 38.1532 84.4957 38.2499C84.6407 38.3466 84.6649 38.4674 84.5682 38.6124C83.9881 39.6276 83.118 40.5944 81.9578 41.5129C80.7976 42.4314 79.6133 42.9873 78.4047 43.1807C77.4379 43.3257 76.4469 43.1565 75.4318 42.6731C74.465 42.1413 73.8124 41.392 73.474 40.4252C73.3773 40.0385 73.329 39.6034 73.329 39.12C73.329 38.5883 73.4015 38.1049 73.5465 37.6698C73.7399 37.1864 74.0057 36.7997 74.3441 36.5096C74.6825 36.2196 75.1176 36.0987 75.6493 36.1471C75.891 36.1471 76.1327 36.2437 76.3744 36.4371C76.6161 36.5821 76.7612 36.7997 76.8095 37.0897C76.9062 37.5731 76.737 37.984 76.3019 38.3224C75.8669 38.6608 75.4801 38.9508 75.1417 39.1925V39.265C75.1901 40.1835 75.5043 40.9328 76.0844 41.5129C76.6645 42.0446 77.4138 42.2622 78.3322 42.1655C78.9123 42.1172 79.4682 41.9721 80 41.7304C80.5317 41.4404 81.0152 41.102 81.4502 40.7153C81.9336 40.3285 82.3929 39.9176 82.8279 39.4826C83.3113 39.0475 83.7706 38.6366 84.2057 38.2499ZM75.4318 38.1049C75.6735 37.9115 75.6735 37.7907 75.4318 37.7423V38.1049ZM100.638 22.2974C100.831 22.3457 100.904 22.4666 100.856 22.66C100.856 22.805 100.759 22.8775 100.566 22.8775C98.3903 22.8292 96.2391 22.7808 94.1121 22.7325C91.9851 22.6841 89.8339 22.66 87.6586 22.66C87.5619 24.0618 87.4652 25.4879 87.3685 26.9381C87.3202 28.3884 87.296 29.8144 87.296 31.2163C87.2477 34.2134 87.296 37.1864 87.4411 40.1352C87.5861 43.0356 87.7069 45.9844 87.8036 48.9816C87.8036 49.4166 87.5861 49.6342 87.151 49.6342C86.7643 49.6342 86.5226 49.4166 86.4259 48.9816C86.0875 45.9361 85.8942 42.8906 85.8458 39.8451C85.7975 36.7513 85.8216 33.6817 85.9183 30.6362C85.9667 29.331 85.9908 28.0258 85.9908 26.7206C86.0392 25.367 86.1117 24.0135 86.2084 22.66C84.8065 22.66 83.4288 22.7083 82.0752 22.805C80.7217 22.8533 79.344 22.9258 77.9421 23.0225C77.7487 23.0709 77.652 22.9983 77.652 22.805C77.6037 22.6116 77.6762 22.4908 77.8696 22.4424C80.5767 22.104 83.3804 21.814 86.2809 21.5723C86.3776 20.1704 86.5226 18.8169 86.7159 17.5117C86.9093 16.1581 87.151 14.8046 87.4411 13.451C87.4894 13.306 87.5861 13.2577 87.7311 13.306C87.9245 13.306 88.0212 13.3785 88.0212 13.5235C88.0212 14.8771 87.997 16.2306 87.9486 17.5842C87.9003 18.8894 87.8278 20.1946 87.7311 21.4998C89.9064 21.4031 92.0576 21.4273 94.1846 21.5723C96.36 21.669 98.5111 21.9107 100.638 22.2974ZM91.2073 34.1167C91.304 33.875 91.4731 33.8025 91.7148 33.8992C92.0049 33.9959 92.1499 34.1651 92.1499 34.4068C92.1499 35.3736 92.1499 36.3404 92.1499 37.3072C92.1499 38.2741 92.3675 39.1925 92.8025 40.0627C92.9475 40.3527 93.0442 40.4736 93.0926 40.4252C93.1892 40.3285 93.2376 40.1594 93.2376 39.9176C93.2859 39.6759 93.3101 39.4101 93.3101 39.12C93.3584 38.7816 93.3826 38.4916 93.3826 38.2499C93.3826 37.8148 93.4068 37.3556 93.4551 36.8722C93.5035 36.3888 93.6243 35.9295 93.8177 35.4945C93.9144 35.2528 94.0594 35.1319 94.2527 35.1319C94.4461 35.1319 94.5911 35.2286 94.6878 35.4219C95.1712 36.0504 95.6546 36.4371 96.138 36.5821C96.6698 36.7272 97.2015 36.7513 97.7333 36.6546C98.265 36.5096 98.7968 36.2921 99.3285 36.002C99.9086 35.712 100.465 35.4461 100.996 35.2044C101.141 35.1077 101.238 35.1319 101.286 35.2769C101.383 35.3736 101.383 35.4703 101.286 35.567C100.851 36.0987 100.32 36.5821 99.6911 37.0172C99.111 37.4039 98.4826 37.694 97.8058 37.8873C97.129 38.0324 96.4764 38.0324 95.848 37.8873C95.2679 37.7423 94.7603 37.3798 94.3253 36.7997C94.1319 37.3314 94.011 38.0565 93.9627 38.975C93.9627 39.8935 93.8418 40.6186 93.6001 41.1503C93.5035 41.3437 93.4309 41.4887 93.3826 41.5854C93.3343 41.6821 93.1892 41.7788 92.9475 41.8755C92.7058 42.0205 92.5125 41.9963 92.3675 41.8029C91.9324 41.3679 91.5698 40.8361 91.2798 40.2077C91.0381 39.5309 90.8689 38.8542 90.7722 38.1774C90.6755 37.4523 90.6755 36.7513 90.7722 36.0746C90.8205 35.3494 90.9656 34.6968 91.2073 34.1167ZM114.795 38.1774C114.891 38.0324 115.012 38.0082 115.157 38.1049C115.302 38.2015 115.326 38.3224 115.23 38.4674C115.036 38.8541 114.77 39.3134 114.432 39.8451C114.094 40.3285 113.707 40.7878 113.272 41.2229C112.837 41.6096 112.378 41.9238 111.894 42.1655C111.411 42.3589 110.903 42.3589 110.371 42.1655C109.356 41.7788 108.583 41.0053 108.051 39.8451C107.809 40.3769 107.495 40.812 107.108 41.1503C106.77 41.4887 106.335 41.5854 105.803 41.4404C105.416 41.3437 105.126 41.102 104.933 40.7153C104.788 40.3285 104.691 39.966 104.643 39.6276C104.401 38.3707 104.425 37.2106 104.715 36.1471C104.764 35.9537 104.861 35.8812 105.006 35.9295C105.199 35.9295 105.296 36.0262 105.296 36.2196C105.296 36.848 105.271 37.5006 105.223 38.1774C105.223 38.8058 105.344 39.4342 105.586 40.0627C105.731 40.4011 105.948 40.5461 106.238 40.4977C106.577 40.4011 106.842 40.2319 107.036 39.9902C107.229 39.7001 107.35 39.4826 107.398 39.3376C107.447 39.2409 107.471 39.1684 107.471 39.12C107.519 39.0233 107.568 38.9267 107.616 38.83C107.471 38.2982 107.374 37.7907 107.326 37.3072C107.326 36.7755 107.423 36.2921 107.616 35.857C107.713 35.6153 107.882 35.5186 108.124 35.567C108.365 35.6153 108.534 35.7603 108.631 36.002C108.824 36.8238 108.969 37.694 109.066 38.6124C109.163 39.5309 109.55 40.3044 110.226 40.9328C110.661 41.3195 111.096 41.4646 111.532 41.3679C111.967 41.2229 112.378 40.9811 112.764 40.6428C113.199 40.256 113.586 39.821 113.924 39.3376C114.263 38.8542 114.553 38.4674 114.795 38.1774ZM122.182 38.0324C122.278 38.0324 122.351 38.0807 122.399 38.1774C122.496 38.2741 122.496 38.3466 122.399 38.3949C122.109 38.5883 121.795 38.7816 121.457 38.975C121.167 39.1684 120.852 39.3859 120.514 39.6276C120.272 39.821 120.006 40.0385 119.716 40.2802C119.426 40.4736 119.16 40.6669 118.919 40.8603C118.919 40.957 118.919 41.0537 118.919 41.1503C118.967 41.247 118.991 41.3437 118.991 41.4404C118.991 41.6821 118.967 41.948 118.919 42.238C118.919 42.5281 118.846 42.7939 118.701 43.0356C118.605 43.2773 118.435 43.4707 118.194 43.6157C118 43.7124 117.734 43.6882 117.396 43.5432C116.864 43.3015 116.647 42.939 116.743 42.4555C116.888 41.9238 117.082 41.4887 117.324 41.1503L117.541 40.9328C117.396 40.5461 117.227 40.2319 117.033 39.9902C116.55 39.4584 116.139 38.9025 115.801 38.3224C115.559 37.8873 115.366 37.4281 115.221 36.9447C115.076 36.4129 115.124 35.9054 115.366 35.4219C115.607 35.0352 115.922 34.7693 116.308 34.6243C116.695 34.431 117.082 34.4793 117.469 34.7693C117.662 34.866 117.734 35.0352 117.686 35.2769C117.686 35.4703 117.565 35.6153 117.324 35.712C116.888 35.857 116.671 36.0987 116.671 36.4371C116.671 36.7272 116.743 37.0414 116.888 37.3798C117.082 37.7181 117.299 38.0565 117.541 38.3949C117.783 38.7333 117.976 38.9992 118.121 39.1925C118.218 39.3376 118.29 39.4826 118.339 39.6276C118.435 39.7726 118.508 39.9176 118.556 40.0627L119.209 39.6276C119.692 39.3376 120.176 39.0233 120.659 38.685C121.142 38.3466 121.65 38.129 122.182 38.0324ZM134.452 42.8181C134.645 42.8664 134.766 42.9873 134.814 43.1807C134.911 43.3257 134.935 43.4707 134.887 43.6157C134.838 43.7607 134.742 43.9058 134.597 44.0508C134.452 44.1475 134.282 44.1716 134.089 44.1233C130.802 43.3982 127.539 43.0356 124.3 43.0356C124.01 43.0356 123.792 42.8906 123.647 42.6006C123.551 42.3105 123.623 42.0446 123.865 41.8029C125.17 40.5461 126.524 39.3134 127.926 38.1049C129.328 36.848 130.729 35.6395 132.131 34.4793C131.551 34.4793 130.971 34.4793 130.391 34.4793C129.859 34.4793 129.328 34.5276 128.796 34.6243C128.119 34.6727 127.442 34.7693 126.765 34.9144C126.089 35.0111 125.412 35.0111 124.735 34.9144C124.59 34.9144 124.469 34.8419 124.373 34.6968C124.324 34.5518 124.397 34.431 124.59 34.3343C125.75 33.7542 127.104 33.44 128.651 33.3916C130.198 33.3433 131.6 33.3191 132.856 33.3191C133.243 33.3191 133.437 33.4883 133.437 33.8267C133.437 34.1651 133.316 34.3826 133.074 34.4793C131.962 35.7362 130.802 36.9689 129.593 38.1774C128.385 39.3376 127.152 40.5219 125.895 41.7304C128.747 41.8755 131.6 42.238 134.452 42.8181ZM143.238 34.1167C143.238 34.3584 143.093 34.5035 142.803 34.5518C142.561 34.5518 142.392 34.431 142.295 34.1893C142.054 33.1258 141.619 32.6665 140.99 32.8115C140.41 32.9566 139.951 33.3675 139.613 34.0442C139.226 34.576 138.96 35.3011 138.815 36.2196C138.622 36.8963 138.501 37.6456 138.452 38.4674C138.452 39.2409 138.549 39.966 138.742 40.6428C138.839 41.0295 138.96 41.4646 139.105 41.948C139.25 42.383 139.468 42.7456 139.758 43.0356C140.241 43.519 140.676 43.8091 141.063 43.9058C141.498 43.9541 141.885 43.9058 142.223 43.7607C142.61 43.6157 142.948 43.3982 143.238 43.1081C143.577 42.8181 143.915 42.5281 144.253 42.238C144.737 41.8513 145.293 41.2229 145.921 40.3527C146.598 39.4826 147.202 38.8058 147.734 38.3224C147.879 38.2257 148 38.2257 148.096 38.3224C148.241 38.4191 148.266 38.5399 148.169 38.685C147.395 39.6034 146.574 40.6428 145.704 41.8029C144.882 42.9631 144.012 43.8816 143.093 44.5584C142.368 45.1385 141.57 45.4285 140.7 45.4285C140.023 45.3802 139.468 45.1143 139.032 44.6309C138.597 44.1475 138.235 43.5674 137.945 42.8906C137.703 42.2138 137.534 41.5371 137.437 40.8603C137.341 40.1352 137.292 39.5068 137.292 38.975C137.292 38.4916 137.341 37.9115 137.437 37.2347C137.534 36.558 137.679 35.9054 137.872 35.2769C138.114 34.6002 138.404 33.9959 138.742 33.4641C139.129 32.8841 139.588 32.449 140.12 32.1589C141.039 31.7239 141.836 31.6997 142.513 32.0864C143.19 32.4248 143.432 33.1016 143.238 34.1167ZM160.116 42.8181C160.309 42.8664 160.43 42.9873 160.478 43.1807C160.575 43.3257 160.599 43.4707 160.551 43.6157C160.503 43.7607 160.406 43.9058 160.261 44.0508C160.116 44.1475 159.947 44.1716 159.753 44.1233C156.466 43.3982 153.203 43.0356 149.964 43.0356C149.674 43.0356 149.457 42.8906 149.312 42.6006C149.215 42.3105 149.288 42.0446 149.529 41.8029C150.834 40.5461 152.188 39.3134 153.59 38.1049C154.992 36.848 156.394 35.6395 157.796 34.4793C157.215 34.4793 156.635 34.4793 156.055 34.4793C155.523 34.4793 154.992 34.5276 154.46 34.6243C153.783 34.6727 153.106 34.7693 152.43 34.9144C151.753 35.0111 151.076 35.0111 150.399 34.9144C150.254 34.9144 150.133 34.8419 150.037 34.6968C149.988 34.5518 150.061 34.431 150.254 34.3343C151.415 33.7542 152.768 33.44 154.315 33.3916C155.862 33.3433 157.264 33.3191 158.521 33.3191C158.907 33.3191 159.101 33.4883 159.101 33.8267C159.101 34.1651 158.98 34.3826 158.738 34.4793C157.626 35.7362 156.466 36.9689 155.258 38.1774C154.049 39.3376 152.816 40.5219 151.56 41.7304C154.412 41.8755 157.264 42.238 160.116 42.8181ZM176.153 38.1049C176.25 37.9598 176.371 37.9357 176.516 38.0324C176.661 38.0807 176.685 38.2015 176.589 38.3949C176.105 39.3617 175.501 40.2077 174.776 40.9328C174.099 41.6579 173.422 42.1897 172.745 42.5281C172.214 42.7698 171.585 42.8423 170.86 42.7456C170.183 42.6006 169.652 42.238 169.265 41.6579C168.927 41.1262 168.661 40.5944 168.467 40.0627C168.322 39.4826 168.129 38.9025 167.887 38.3224C167.355 38.9992 166.848 39.7243 166.364 40.4977C165.929 41.2229 165.325 41.7063 164.552 41.948C164.02 42.093 163.561 42.0205 163.174 41.7304C162.836 41.392 162.594 40.9811 162.449 40.4977C162.255 39.821 162.328 39.12 162.666 38.3949C162.956 37.6698 163.367 37.0414 163.899 36.5096C164.479 35.9779 165.108 35.6153 165.784 35.4219C166.509 35.1802 167.21 35.2528 167.887 35.6395C168.129 35.7845 168.177 35.9537 168.032 36.1471C167.936 36.2921 167.766 36.3163 167.525 36.2196C167.041 36.0745 166.485 36.1954 165.857 36.5821C165.277 36.9205 164.769 37.3798 164.334 37.9598C163.899 38.5399 163.633 39.12 163.537 39.7001C163.44 40.2802 163.682 40.6911 164.262 40.9328C164.648 41.0778 164.987 40.9811 165.277 40.6428C165.567 40.3044 166.05 39.7001 166.727 38.83C166.969 38.3949 167.307 37.9598 167.742 37.5248C167.839 37.4281 167.96 37.4039 168.105 37.4523C168.25 37.4523 168.346 37.5006 168.395 37.5973C168.588 38.129 168.83 38.7333 169.12 39.4101C169.41 40.0868 169.748 40.6669 170.135 41.1503C170.57 41.5854 171.078 41.8271 171.658 41.8755C172.286 41.8755 173.011 41.4646 173.833 40.6428C174.268 40.2077 174.679 39.821 175.066 39.4826C175.501 39.0959 175.863 38.6366 176.153 38.1049ZM190.717 38.3224C190.814 38.2741 190.91 38.2982 191.007 38.3949C191.104 38.4916 191.104 38.5883 191.007 38.685C190.33 39.4101 189.533 40.0385 188.614 40.5703C187.696 41.0537 186.705 41.4404 185.641 41.7304C184.578 42.0205 183.514 42.1897 182.451 42.238C181.387 42.238 180.396 42.093 179.478 41.8029V41.7304C179.526 42.3105 179.55 42.8906 179.55 43.4707C179.599 44.0025 179.623 44.5584 179.623 45.1385C179.623 45.4768 179.454 45.6702 179.115 45.7186C178.777 45.7669 178.559 45.6219 178.463 45.2835C177.399 39.4342 176.964 33.3675 177.157 27.0831C177.351 20.7988 177.883 14.7321 178.753 8.88281C178.801 8.64111 178.922 8.54443 179.115 8.59277C179.357 8.59277 179.478 8.71362 179.478 8.95532C179.381 11.9041 179.236 14.8529 179.043 17.8017C178.849 20.7022 178.753 23.6268 178.753 26.5756C178.753 28.4125 178.801 30.2253 178.898 32.0139C178.994 33.8025 179.115 35.5911 179.26 37.3798C180.082 35.6878 181.049 34.2618 182.161 33.1016C182.257 33.0049 182.33 33.0049 182.378 33.1016C182.475 33.1499 182.523 33.2224 182.523 33.3191C182.378 33.9959 182.161 34.6485 181.871 35.2769C181.581 35.9054 181.242 36.558 180.856 37.2347C180.711 37.5248 180.517 37.8632 180.275 38.2499C180.034 38.5883 179.889 38.9267 179.84 39.265C179.744 40.1835 179.865 40.6911 180.203 40.7878C180.541 40.8845 181.025 40.9811 181.653 41.0778C183.393 41.2712 184.965 41.0778 186.366 40.4977C187.768 39.8693 189.219 39.1442 190.717 38.3224Z" fill="#0B162B"/>
<path d="M7.475 73.8413H0.585V73.5813L6.383 65.0013C6.24433 65.0013 5.928 65.0186 5.434 65.0533L0.923 65.3783V64.7413H7.423V65.0013L1.625 73.5813C1.77233 73.5813 2.08867 73.564 2.574 73.5293L7.475 73.1783V73.8413ZM10.0392 73.8413L13.5362 64.7413H14.3422L17.8392 73.8413H16.8902L15.2782 69.5773H12.3272L10.9882 73.8413H10.0392ZM13.6272 65.4173L12.4182 69.2653H15.1612L13.7052 65.4173H13.6272ZM20.3558 69.8243L20.2518 69.5253L21.4478 69.0963V64.7413H22.3318V68.8363L24.1648 68.1733L24.2688 68.4723L22.3318 69.1743V73.5813C22.4965 73.5813 22.7565 73.5553 23.1118 73.5033L25.2698 73.1783V73.8413H21.4478V69.4343L20.3558 69.8243ZM27.8964 69.2913C27.8964 68.624 28.0134 68.0043 28.2474 67.4323C28.4901 66.8516 28.8238 66.349 29.2484 65.9243C29.6818 65.491 30.1844 65.1573 30.7564 64.9233C31.3371 64.6806 31.9611 64.5593 32.6284 64.5593C33.2958 64.5593 33.9154 64.6806 34.4874 64.9233C35.0681 65.1573 35.5708 65.491 35.9954 65.9243C36.4288 66.349 36.7624 66.8516 36.9964 67.4323C37.2391 68.0043 37.3604 68.624 37.3604 69.2913C37.3604 69.9586 37.2391 70.5826 36.9964 71.1633C36.7624 71.7353 36.4288 72.238 35.9954 72.6713C35.5708 73.096 35.0681 73.4296 34.4874 73.6723C33.9154 73.9063 33.2958 74.0233 32.6284 74.0233C31.9611 74.0233 31.3371 73.9063 30.7564 73.6723C30.1844 73.4296 29.6818 73.096 29.2484 72.6713C28.8238 72.238 28.4901 71.7353 28.2474 71.1633C28.0134 70.5826 27.8964 69.9586 27.8964 69.2913ZM28.8844 69.2913C28.8844 70.1753 29.0404 70.951 29.3524 71.6183C29.6644 72.277 30.1021 72.7926 30.6654 73.1653C31.2288 73.5293 31.8831 73.7113 32.6284 73.7113C33.3738 73.7113 34.0281 73.5293 34.5914 73.1653C35.1548 72.7926 35.5924 72.2726 35.9044 71.6053C36.2164 70.938 36.3724 70.1666 36.3724 69.2913C36.3724 68.416 36.2164 67.649 35.9044 66.9903C35.5924 66.323 35.1548 65.803 34.5914 65.4303C34.0281 65.0576 33.3738 64.8713 32.6284 64.8713C31.8831 64.8713 31.2288 65.0576 30.6654 65.4303C30.1108 65.7943 29.6731 66.31 29.3524 66.9773C29.0404 67.636 28.8844 68.4073 28.8844 69.2913ZM47.0541 73.8413H40.1641V73.5813L45.9621 65.0013C45.8234 65.0013 45.5071 65.0186 45.0131 65.0533L40.5021 65.3783V64.7413H47.0021V65.0013L41.2041 73.5813C41.3514 73.5813 41.6678 73.564 42.1531 73.5293L47.0541 73.1783V73.8413ZM43.2191 62.8563C43.2191 62.6743 43.2754 62.527 43.3881 62.4143C43.5094 62.293 43.6611 62.2323 43.8431 62.2323C44.0251 62.2323 44.1724 62.293 44.2851 62.4143C44.4064 62.527 44.4671 62.6743 44.4671 62.8563C44.4671 63.0383 44.4064 63.19 44.2851 63.3113C44.1724 63.424 44.0251 63.4803 43.8431 63.4803C43.6611 63.4803 43.5094 63.424 43.3881 63.3113C43.2754 63.19 43.2191 63.0383 43.2191 62.8563ZM52.9203 73.8413V69.9933L49.6963 64.7413H50.6843L53.5833 69.4993H53.6613L55.9753 64.7413H56.9633L53.8563 69.8113V73.8413H52.9203ZM67.3034 72.7233L67.2254 73.5163C66.9827 73.6203 66.688 73.7113 66.3414 73.7893C65.9947 73.8673 65.6437 73.9236 65.2884 73.9583C64.933 74.0016 64.6167 74.0233 64.3394 74.0233C63.6374 74.0233 62.9874 73.9063 62.3894 73.6723C61.7914 73.4296 61.267 73.096 60.8164 72.6713C60.3744 72.2466 60.0277 71.7483 59.7764 71.1763C59.525 70.5956 59.3994 69.9673 59.3994 69.2913C59.3994 68.6153 59.525 67.9913 59.7764 67.4193C60.0277 66.8386 60.3744 66.336 60.8164 65.9113C61.267 65.4866 61.7914 65.1573 62.3894 64.9233C62.9874 64.6806 63.6374 64.5593 64.3394 64.5593C64.6254 64.5593 64.946 64.581 65.3014 64.6243C65.6567 64.6676 66.0034 64.7283 66.3414 64.8063C66.6794 64.8756 66.9654 64.958 67.1994 65.0533L67.1344 65.7813H67.0564C66.7357 65.4866 66.3327 65.2613 65.8474 65.1053C65.362 64.9493 64.8594 64.8713 64.3394 64.8713C63.5594 64.8713 62.8704 65.0576 62.2724 65.4303C61.683 65.7943 61.2194 66.31 60.8814 66.9773C60.552 67.636 60.3874 68.4073 60.3874 69.2913C60.3874 70.184 60.552 70.9596 60.8814 71.6183C61.2194 72.277 61.683 72.7926 62.2724 73.1653C62.8617 73.5293 63.5507 73.7113 64.3394 73.7113C64.9287 73.7113 65.4747 73.616 65.9774 73.4253C66.4887 73.2346 66.9047 73.0006 67.2254 72.7233H67.3034ZM71.4009 73.8413V64.7413H72.2849V73.8413H71.4009ZM77.1666 73.8413V64.7413H81.1316V65.3783L78.8566 65.0793C78.4579 65.0273 78.1892 65.0013 78.0506 65.0013V68.9663C78.1632 68.9663 78.4319 68.9533 78.8566 68.9273L80.9886 68.7973V69.3953L78.8566 69.2653C78.4319 69.2393 78.1632 69.2263 78.0506 69.2263V73.5813C78.2066 73.5813 78.4796 73.5553 78.8696 73.5033L81.1706 73.2043V73.8413H77.1666ZM85.3951 64.7413H86.2791V73.5813C86.4437 73.5813 86.7037 73.5553 87.0591 73.5033L89.2171 73.1783V73.8413H85.3951V64.7413ZM97.8912 73.8413V64.7413H98.7752V73.8413H97.8912ZM107.387 64.7413H108.336L111.521 72.6973H111.599L113.679 67.5493L112.548 64.7413H113.497L116.669 72.6713H116.747L119.373 64.7413H120.322L116.578 74.0233H116.292L113.861 67.9783L111.417 74.0233H111.131L107.387 64.7413ZM122.754 69.8243L122.65 69.5253L123.846 69.0963V64.7413H124.73V68.8363L126.563 68.1733L126.667 68.4723L124.73 69.1743V73.5813C124.895 73.5813 125.155 73.5553 125.51 73.5033L127.668 73.1783V73.8413H123.846V69.4343L122.754 69.8243ZM130.24 73.8413L133.737 64.7413H134.543L138.04 73.8413H137.091L135.479 69.5773H132.528L131.189 73.8413H130.24ZM133.828 65.4173L132.619 69.2653H135.362L133.906 65.4173H133.828ZM140.856 73.5553L140.934 72.7753H141.012C141.35 73.07 141.731 73.2996 142.156 73.4643C142.581 73.629 143.001 73.7113 143.417 73.7113C144.006 73.7113 144.483 73.551 144.847 73.2303C145.211 72.901 145.393 72.4633 145.393 71.9173C145.393 71.614 145.324 71.3323 145.185 71.0723C145.055 70.8123 144.834 70.548 144.522 70.2793C144.219 70.0106 143.798 69.7203 143.261 69.4083C142.888 69.1916 142.533 68.9663 142.195 68.7323C141.857 68.4896 141.58 68.2123 141.363 67.9003C141.146 67.5796 141.038 67.1983 141.038 66.7563C141.038 66.0976 141.276 65.569 141.753 65.1703C142.23 64.763 142.858 64.5593 143.638 64.5593C143.985 64.5593 144.357 64.5983 144.756 64.6763C145.155 64.7456 145.462 64.8366 145.679 64.9493L145.614 65.6773H145.536C145.042 65.14 144.409 64.8713 143.638 64.8713C143.083 64.8713 142.637 65.0143 142.299 65.3003C141.961 65.5776 141.792 65.9546 141.792 66.4313C141.792 66.7866 141.883 67.0943 142.065 67.3543C142.256 67.6056 142.498 67.8353 142.793 68.0433C143.088 68.2426 143.404 68.4376 143.742 68.6283C144.132 68.8536 144.509 69.092 144.873 69.3433C145.246 69.5946 145.549 69.898 145.783 70.2533C146.026 70.6 146.147 71.0376 146.147 71.5663C146.147 72.0516 146.034 72.4806 145.809 72.8533C145.584 73.2173 145.263 73.5033 144.847 73.7113C144.44 73.9193 143.963 74.0233 143.417 74.0233C143.07 74.0233 142.663 73.98 142.195 73.8933C141.727 73.8066 141.281 73.694 140.856 73.5553ZM142.819 63.7663L144.08 62.1803H145.25V62.2583L142.988 63.9223L142.819 63.7663ZM157.462 72.7233L157.384 73.5163C157.141 73.6203 156.846 73.7113 156.5 73.7893C156.153 73.8673 155.802 73.9236 155.447 73.9583C155.091 74.0016 154.775 74.0233 154.498 74.0233C153.796 74.0233 153.146 73.9063 152.548 73.6723C151.95 73.4296 151.425 73.096 150.975 72.6713C150.533 72.2466 150.186 71.7483 149.935 71.1763C149.683 70.5956 149.558 69.9673 149.558 69.2913C149.558 68.6153 149.683 67.9913 149.935 67.4193C150.186 66.8386 150.533 66.336 150.975 65.9113C151.425 65.4866 151.95 65.1573 152.548 64.9233C153.146 64.6806 153.796 64.5593 154.498 64.5593C154.784 64.5593 155.104 64.581 155.46 64.6243C155.815 64.6676 156.162 64.7283 156.5 64.8063C156.838 64.8756 157.124 64.958 157.358 65.0533L157.293 65.7813H157.215C156.894 65.4866 156.491 65.2613 156.006 65.1053C155.52 64.9493 155.018 64.8713 154.498 64.8713C153.718 64.8713 153.029 65.0576 152.431 65.4303C151.841 65.7943 151.378 66.31 151.04 66.9773C150.71 67.636 150.546 68.4073 150.546 69.2913C150.546 70.184 150.71 70.9596 151.04 71.6183C151.378 72.277 151.841 72.7926 152.431 73.1653C153.02 73.5293 153.709 73.7113 154.498 73.7113C155.087 73.7113 155.633 73.616 156.136 73.4253C156.647 73.2346 157.063 73.0006 157.384 72.7233H157.462ZM161.559 73.8413V64.7413H162.443V73.8413H161.559ZM174.579 72.7233L174.501 73.5163C174.258 73.6203 173.963 73.7113 173.617 73.7893C173.27 73.8673 172.919 73.9236 172.564 73.9583C172.208 74.0016 171.892 74.0233 171.615 74.0233C170.913 74.0233 170.263 73.9063 169.665 73.6723C169.067 73.4296 168.542 73.096 168.092 72.6713C167.65 72.2466 167.303 71.7483 167.052 71.1763C166.8 70.5956 166.675 69.9673 166.675 69.2913C166.675 68.6153 166.8 67.9913 167.052 67.4193C167.303 66.8386 167.65 66.336 168.092 65.9113C168.542 65.4866 169.067 65.1573 169.665 64.9233C170.263 64.6806 170.913 64.5593 171.615 64.5593C171.901 64.5593 172.221 64.581 172.577 64.6243C172.932 64.6676 173.279 64.7283 173.617 64.8063C173.955 64.8756 174.241 64.958 174.475 65.0533L174.41 65.7813H174.332C174.011 65.4866 173.608 65.2613 173.123 65.1053C172.637 64.9493 172.135 64.8713 171.615 64.8713C170.835 64.8713 170.146 65.0576 169.548 65.4303C168.958 65.7943 168.495 66.31 168.157 66.9773C167.827 67.636 167.663 68.4073 167.663 69.2913C167.663 70.184 167.827 70.9596 168.157 71.6183C168.495 72.277 168.958 72.7926 169.548 73.1653C170.137 73.5293 170.826 73.7113 171.615 73.7113C172.204 73.7113 172.75 73.616 173.253 73.4253C173.764 73.2346 174.18 73.0006 174.501 72.7233H174.579ZM178.676 73.8413V64.7413H179.56V73.8413H178.676ZM184.442 73.8413V64.7413H188.407V65.3783L186.132 65.0793C185.733 65.0273 185.465 65.0013 185.326 65.0013V68.9663C185.439 68.9663 185.707 68.9533 186.132 68.9273L188.264 68.7973V69.3953L186.132 69.2653C185.707 69.2393 185.439 69.2263 185.326 69.2263V73.5813C185.482 73.5813 185.755 73.5553 186.145 73.5033L188.446 73.2043V73.8413H184.442ZM192.67 64.7413H193.554V73.5813C193.719 73.5813 193.979 73.5553 194.334 73.5033L196.492 73.1783V73.8413H192.67V64.7413ZM205.167 73.8413V64.7413H206.792C207.84 64.7413 208.655 64.9666 209.236 65.4173C209.816 65.8593 210.107 66.479 210.107 67.2763C210.107 68.0736 209.816 68.6976 209.236 69.1483C208.655 69.5903 207.84 69.8113 206.792 69.8113H206.051V73.8413H205.167ZM206.792 65.0533H206.051V69.4993H206.792C208.378 69.4993 209.171 68.7583 209.171 67.2763C209.171 65.7943 208.378 65.0533 206.792 65.0533ZM214.081 73.8413V64.7413H214.965V73.8413H214.081ZM219.846 73.8413V64.7413H223.811V65.3783L221.536 65.0793C221.138 65.0273 220.869 65.0013 220.73 65.0013V68.9663C220.843 68.9663 221.112 68.9533 221.536 68.9273L223.668 68.7973V69.3953L221.536 69.2653C221.112 69.2393 220.843 69.2263 220.73 69.2263V73.5813C220.886 73.5813 221.159 73.5553 221.549 73.5033L223.85 73.2043V73.8413H219.846ZM230.155 73.8413V65.0013C230.025 65.0013 229.756 65.0273 229.349 65.0793L226.801 65.4043V64.7413H234.393V65.4043L231.845 65.0793C231.437 65.0273 231.169 65.0013 231.039 65.0013V73.8413H230.155ZM238.004 64.7413H239.746C240.665 64.7413 241.376 64.9363 241.878 65.3263C242.39 65.7076 242.645 66.245 242.645 66.9383C242.645 67.4756 242.485 67.922 242.164 68.2773C241.852 68.6326 241.397 68.871 240.799 68.9923V69.0703C241.371 69.183 241.839 69.4516 242.203 69.8763C242.567 70.301 242.84 70.8253 243.022 71.4493C243.187 72.0213 243.347 72.4676 243.503 72.7883C243.668 73.1003 243.846 73.3256 244.036 73.4643C244.236 73.603 244.47 73.7026 244.738 73.7633V73.8413H244.205C243.824 73.8413 243.508 73.772 243.256 73.6333C243.014 73.4946 242.806 73.2606 242.632 72.9313C242.459 72.602 242.294 72.147 242.138 71.5663C241.887 70.6736 241.553 70.041 241.137 69.6683C240.721 69.2956 240.214 69.1093 239.616 69.1093H239.538V68.8753H239.616C241.012 68.8753 241.709 68.234 241.709 66.9513C241.709 65.686 241.055 65.0533 239.746 65.0533H238.888V73.8413H238.004V64.7413ZM247.715 64.7413H248.599V70.2273C248.599 71.276 248.855 72.095 249.366 72.6843C249.886 73.265 250.614 73.5553 251.55 73.5553C252.14 73.5553 252.651 73.4426 253.084 73.2173C253.526 72.9833 253.864 72.6626 254.098 72.2553C254.341 71.848 254.454 71.38 254.436 70.8513L254.215 64.7413H255.099L254.878 70.8513C254.844 71.8913 254.532 72.68 253.942 73.2173C253.362 73.7546 252.53 74.0233 251.446 74.0233C250.276 74.0233 249.362 73.6853 248.703 73.0093C248.045 72.3246 247.715 71.3886 247.715 70.2013V64.7413ZM258.924 73.5553L259.002 72.7753H259.08C259.418 73.07 259.8 73.2996 260.224 73.4643C260.649 73.629 261.069 73.7113 261.485 73.7113C262.075 73.7113 262.551 73.551 262.915 73.2303C263.279 72.901 263.461 72.4633 263.461 71.9173C263.461 71.614 263.392 71.3323 263.253 71.0723C263.123 70.8123 262.902 70.548 262.59 70.2793C262.287 70.0106 261.867 69.7203 261.329 69.4083C260.957 69.1916 260.601 68.9663 260.263 68.7323C259.925 68.4896 259.648 68.2123 259.431 67.9003C259.215 67.5796 259.106 67.1983 259.106 66.7563C259.106 66.0976 259.345 65.569 259.821 65.1703C260.298 64.763 260.926 64.5593 261.706 64.5593C262.053 64.5593 262.426 64.5983 262.824 64.6763C263.223 64.7456 263.531 64.8366 263.747 64.9493L263.682 65.6773H263.604C263.11 65.14 262.478 64.8713 261.706 64.8713C261.152 64.8713 260.705 65.0143 260.367 65.3003C260.029 65.5776 259.86 65.9546 259.86 66.4313C259.86 66.7866 259.951 67.0943 260.133 67.3543C260.324 67.6056 260.567 67.8353 260.861 68.0433C261.156 68.2426 261.472 68.4376 261.81 68.6283C262.2 68.8536 262.577 69.092 262.941 69.3433C263.314 69.5946 263.617 69.898 263.851 70.2533C264.094 70.6 264.215 71.0376 264.215 71.5663C264.215 72.0516 264.103 72.4806 263.877 72.8533C263.652 73.2173 263.331 73.5033 262.915 73.7113C262.508 73.9193 262.031 74.0233 261.485 74.0233C261.139 74.0233 260.731 73.98 260.263 73.8933C259.795 73.8066 259.349 73.694 258.924 73.5553ZM274.061 73.8413H267.171V73.5813L272.969 65.0013C272.83 65.0013 272.514 65.0186 272.02 65.0533L267.509 65.3783V64.7413H274.009V65.0013L268.211 73.5813C268.358 73.5813 268.675 73.564 269.16 73.5293L274.061 73.1783V73.8413ZM284.914 72.7233L284.836 73.5163C284.593 73.6203 284.298 73.7113 283.952 73.7893C283.605 73.8673 283.254 73.9236 282.899 73.9583C282.543 74.0016 282.227 74.0233 281.95 74.0233C281.248 74.0233 280.598 73.9063 280 73.6723C279.402 73.4296 278.877 73.096 278.427 72.6713C277.985 72.2466 277.638 71.7483 277.387 71.1763C277.135 70.5956 277.01 69.9673 277.01 69.2913C277.01 68.6153 277.135 67.9913 277.387 67.4193C277.638 66.8386 277.985 66.336 278.427 65.9113C278.877 65.4866 279.402 65.1573 280 64.9233C280.598 64.6806 281.248 64.5593 281.95 64.5593C282.236 64.5593 282.556 64.581 282.912 64.6243C283.267 64.6676 283.614 64.7283 283.952 64.8063C284.29 64.8756 284.576 64.958 284.81 65.0533L284.745 65.7813H284.667C284.346 65.4866 283.943 65.2613 283.458 65.1053C282.972 64.9493 282.47 64.8713 281.95 64.8713C281.17 64.8713 280.481 65.0576 279.883 65.4303C279.293 65.7943 278.83 66.31 278.492 66.9773C278.162 67.636 277.998 68.4073 277.998 69.2913C277.998 70.184 278.162 70.9596 278.492 71.6183C278.83 72.277 279.293 72.7926 279.883 73.1653C280.472 73.5293 281.161 73.7113 281.95 73.7113C282.539 73.7113 283.085 73.616 283.588 73.4253C284.099 73.2346 284.515 73.0006 284.836 72.7233H284.914ZM294.796 73.8413H287.906V73.5813L293.704 65.0013C293.566 65.0013 293.249 65.0186 292.755 65.0533L288.244 65.3783V64.7413H294.744V65.0013L288.946 73.5813C289.094 73.5813 289.41 73.564 289.895 73.5293L294.796 73.1783V73.8413ZM297.36 73.8413L300.857 64.7413H301.663L305.16 73.8413H304.211L302.599 69.5773H299.648L298.309 73.8413H297.36ZM300.948 65.4173L299.739 69.2653H302.482L301.026 65.4173H300.948ZM314.385 73.8413L310.121 69.1743L314.073 64.7413H315.191L310.914 68.8103L315.555 73.8413H314.385ZM308.769 73.8413V64.7413H309.653V73.8413H308.769ZM323.214 73.5553L323.292 72.7753H323.37C323.708 73.07 324.09 73.2996 324.514 73.4643C324.939 73.629 325.359 73.7113 325.775 73.7113C326.365 73.7113 326.841 73.551 327.205 73.2303C327.569 72.901 327.751 72.4633 327.751 71.9173C327.751 71.614 327.682 71.3323 327.543 71.0723C327.413 70.8123 327.192 70.548 326.88 70.2793C326.577 70.0106 326.157 69.7203 325.619 69.4083C325.247 69.1916 324.891 68.9663 324.553 68.7323C324.215 68.4896 323.938 68.2123 323.721 67.9003C323.505 67.5796 323.396 67.1983 323.396 66.7563C323.396 66.0976 323.635 65.569 324.111 65.1703C324.588 64.763 325.216 64.5593 325.996 64.5593C326.343 64.5593 326.716 64.5983 327.114 64.6763C327.513 64.7456 327.821 64.8366 328.037 64.9493L327.972 65.6773H327.894C327.4 65.14 326.768 64.8713 325.996 64.8713C325.442 64.8713 324.995 65.0143 324.657 65.3003C324.319 65.5776 324.15 65.9546 324.15 66.4313C324.15 66.7866 324.241 67.0943 324.423 67.3543C324.614 67.6056 324.857 67.8353 325.151 68.0433C325.446 68.2426 325.762 68.4376 326.1 68.6283C326.49 68.8536 326.867 69.092 327.231 69.3433C327.604 69.5946 327.907 69.898 328.141 70.2533C328.384 70.6 328.505 71.0376 328.505 71.5663C328.505 72.0516 328.393 72.4806 328.167 72.8533C327.942 73.2173 327.621 73.5033 327.205 73.7113C326.798 73.9193 326.321 74.0233 325.775 74.0233C325.429 74.0233 325.021 73.98 324.553 73.8933C324.085 73.8066 323.639 73.694 323.214 73.5553ZM334.392 73.8413V65.0013C334.262 65.0013 333.993 65.0273 333.586 65.0793L331.038 65.4043V64.7413H338.63V65.4043L336.082 65.0793C335.675 65.0273 335.406 65.0013 335.276 65.0013V73.8413H334.392ZM341.198 69.2913C341.198 68.624 341.315 68.0043 341.549 67.4323C341.792 66.8516 342.126 66.349 342.55 65.9243C342.984 65.491 343.486 65.1573 344.058 64.9233C344.639 64.6806 345.263 64.5593 345.93 64.5593C346.598 64.5593 347.217 64.6806 347.789 64.9233C348.37 65.1573 348.873 65.491 349.297 65.9243C349.731 66.349 350.064 66.8516 350.298 67.4323C350.541 68.0043 350.662 68.624 350.662 69.2913C350.662 69.9586 350.541 70.5826 350.298 71.1633C350.064 71.7353 349.731 72.238 349.297 72.6713C348.873 73.096 348.37 73.4296 347.789 73.6723C347.217 73.9063 346.598 74.0233 345.93 74.0233C345.263 74.0233 344.639 73.9063 344.058 73.6723C343.486 73.4296 342.984 73.096 342.55 72.6713C342.126 72.238 341.792 71.7353 341.549 71.1633C341.315 70.5826 341.198 69.9586 341.198 69.2913ZM342.186 69.2913C342.186 70.1753 342.342 70.951 342.654 71.6183C342.966 72.277 343.404 72.7926 343.967 73.1653C344.531 73.5293 345.185 73.7113 345.93 73.7113C346.676 73.7113 347.33 73.5293 347.893 73.1653C348.457 72.7926 348.894 72.2726 349.206 71.6053C349.518 70.938 349.674 70.1666 349.674 69.2913C349.674 68.416 349.518 67.649 349.206 66.9903C348.894 66.323 348.457 65.803 347.893 65.4303C347.33 65.0576 346.676 64.8713 345.93 64.8713C345.185 64.8713 344.531 65.0576 343.967 65.4303C343.413 65.7943 342.975 66.31 342.654 66.9773C342.342 67.636 342.186 68.4073 342.186 69.2913ZM363.455 64.7413V73.8413H362.571V65.4953H362.493L359.347 71.5273H358.944L355.369 66.2103H355.291L355.577 73.8413H354.693L355.018 64.5593H355.278L359.373 70.6433H359.451L362.519 64.7413H363.455ZM366.983 73.8413L370.48 64.7413H371.286L374.783 73.8413H373.834L372.222 69.5773H369.271L367.932 73.8413H366.983ZM370.571 65.4173L369.362 69.2653H372.105L370.649 65.4173H370.571ZM379.697 73.8413V65.0013C379.567 65.0013 379.298 65.0273 378.891 65.0793L376.343 65.4043V64.7413H383.935V65.4043L381.387 65.0793C380.979 65.0273 380.711 65.0013 380.581 65.0013V73.8413H379.697ZM386.503 69.2913C386.503 68.624 386.62 68.0043 386.854 67.4323C387.097 66.8516 387.43 66.349 387.855 65.9243C388.288 65.491 388.791 65.1573 389.363 64.9233C389.944 64.6806 390.568 64.5593 391.235 64.5593C391.902 64.5593 392.522 64.6806 393.094 64.9233C393.675 65.1573 394.177 65.491 394.602 65.9243C395.035 66.349 395.369 66.8516 395.603 67.4323C395.846 68.0043 395.967 68.624 395.967 69.2913C395.967 69.9586 395.846 70.5826 395.603 71.1633C395.369 71.7353 395.035 72.238 394.602 72.6713C394.177 73.096 393.675 73.4296 393.094 73.6723C392.522 73.9063 391.902 74.0233 391.235 74.0233C390.568 74.0233 389.944 73.9063 389.363 73.6723C388.791 73.4296 388.288 73.096 387.855 72.6713C387.43 72.238 387.097 71.7353 386.854 71.1633C386.62 70.5826 386.503 69.9586 386.503 69.2913ZM387.491 69.2913C387.491 70.1753 387.647 70.951 387.959 71.6183C388.271 72.277 388.709 72.7926 389.272 73.1653C389.835 73.5293 390.49 73.7113 391.235 73.7113C391.98 73.7113 392.635 73.5293 393.198 73.1653C393.761 72.7926 394.199 72.2726 394.511 71.6053C394.823 70.938 394.979 70.1666 394.979 69.2913C394.979 68.416 394.823 67.649 394.511 66.9903C394.199 66.323 393.761 65.803 393.198 65.4303C392.635 65.0576 391.98 64.8713 391.235 64.8713C390.49 64.8713 389.835 65.0576 389.272 65.4303C388.717 65.7943 388.28 66.31 387.959 66.9773C387.647 67.636 387.491 68.4073 387.491 69.2913ZM400.193 64.7413H401.077V73.5813C401.242 73.5813 401.502 73.5553 401.857 73.5033L404.015 73.1783V73.8413H400.193V64.7413ZM406.642 69.2913C406.642 68.624 406.759 68.0043 406.993 67.4323C407.235 66.8516 407.569 66.349 407.994 65.9243C408.427 65.491 408.93 65.1573 409.502 64.9233C410.082 64.6806 410.706 64.5593 411.374 64.5593C412.041 64.5593 412.661 64.6806 413.233 64.9233C413.813 65.1573 414.316 65.491 414.741 65.9243C415.174 66.349 415.508 66.8516 415.742 67.4323C415.984 68.0043 416.106 68.624 416.106 69.2913C416.106 69.9586 415.984 70.5826 415.742 71.1633C415.508 71.7353 415.174 72.238 414.741 72.6713C414.316 73.096 413.813 73.4296 413.233 73.6723C412.661 73.9063 412.041 74.0233 411.374 74.0233C410.706 74.0233 410.082 73.9063 409.502 73.6723C408.93 73.4296 408.427 73.096 407.994 72.6713C407.569 72.238 407.235 71.7353 406.993 71.1633C406.759 70.5826 406.642 69.9586 406.642 69.2913ZM407.63 69.2913C407.63 70.1753 407.786 70.951 408.098 71.6183C408.41 72.277 408.847 72.7926 409.411 73.1653C409.974 73.5293 410.628 73.7113 411.374 73.7113C412.119 73.7113 412.773 73.5293 413.337 73.1653C413.9 72.7926 414.338 72.2726 414.65 71.6053C414.962 70.938 415.118 70.1666 415.118 69.2913C415.118 68.416 414.962 67.649 414.65 66.9903C414.338 66.323 413.9 65.803 413.337 65.4303C412.773 65.0576 412.119 64.8713 411.374 64.8713C410.628 64.8713 409.974 65.0576 409.411 65.4303C408.856 65.7943 408.418 66.31 408.098 66.9773C407.786 67.636 407.63 68.4073 407.63 69.2913ZM424.869 69.5253V69.2133H428.158V72.7493C427.759 73.148 427.269 73.46 426.689 73.6853C426.117 73.9106 425.475 74.0233 424.765 74.0233C424.037 74.0233 423.365 73.9063 422.75 73.6723C422.134 73.4296 421.597 73.096 421.138 72.6713C420.678 72.238 420.319 71.7353 420.059 71.1633C419.807 70.5913 419.682 69.9673 419.682 69.2913C419.682 68.6153 419.807 67.9913 420.059 67.4193C420.319 66.8473 420.678 66.349 421.138 65.9243C421.597 65.491 422.134 65.1573 422.75 64.9233C423.365 64.6806 424.037 64.5593 424.765 64.5593C425.077 64.5593 425.415 64.581 425.779 64.6243C426.151 64.6676 426.507 64.7283 426.845 64.8063C427.183 64.8756 427.469 64.9623 427.703 65.0663L427.638 65.7943H427.56C427.213 65.491 426.797 65.2613 426.312 65.1053C425.826 64.9493 425.311 64.8713 424.765 64.8713C423.95 64.8713 423.235 65.0576 422.62 65.4303C422.004 65.7943 421.523 66.31 421.177 66.9773C420.839 67.636 420.67 68.4073 420.67 69.2913C420.67 70.1753 420.839 70.951 421.177 71.6183C421.523 72.277 422.004 72.7926 422.62 73.1653C423.235 73.5293 423.95 73.7113 424.765 73.7113C425.267 73.7113 425.731 73.642 426.156 73.5033C426.589 73.3646 426.962 73.1653 427.274 72.9053V69.5253H424.869ZM432.648 73.8413V64.7413H433.532V73.8413H432.648ZM437.062 73.8413L440.559 64.7413H441.365L444.862 73.8413H443.913L442.301 69.5773H439.35L438.011 73.8413H437.062ZM440.65 65.4173L439.441 69.2653H442.184L440.728 65.4173H440.65Z" fill="#A9722D"/>
</svg>
