<svg width="48" height="48" viewBox="0 0 48 48" fill="none" xmlns="http://www.w3.org/2000/svg">
<path d="M7.84277 19.6567C9.8239 23.4386 12.8493 25.7872 15.7503 27.2433C20.3864 29.5703 25.3761 29.864 30.0912 28.1273L30.177 28.096" stroke="#A9722D" stroke-miterlimit="10" stroke-linecap="round" stroke-linejoin="round"/>
<path d="M32.8379 26.8662C35.5054 25.392 38.2067 23.1313 40.0259 19.6706" stroke="#A9722D" stroke-miterlimit="10" stroke-linecap="round" stroke-linejoin="round"/>
<path d="M2.99756 19.0593C3.72151 19.9294 4.45079 20.7931 5.18176 21.6549C8.84952 25.9797 12.4169 30.2337 17.1969 32.8124C21.7877 35.2892 26.1979 35.2955 30.8007 32.8123C35.5806 30.2337 39.148 25.9797 42.8157 21.6549C43.5467 20.7931 44.276 19.9294 45 19.0593" stroke="#A9722D" stroke-miterlimit="10" stroke-linecap="round" stroke-linejoin="round"/>
<path d="M19.8706 20.5165V23.3264C19.8706 23.772 20.2318 24.1333 20.6775 24.1333H23.1754C23.621 24.1333 23.9823 23.772 23.9823 23.3264V20.5992" stroke="#A9722D" stroke-miterlimit="10" stroke-linecap="round" stroke-linejoin="round"/>
<path d="M23.9883 20.5992V23.3264C23.9883 23.7721 24.3496 24.1333 24.7952 24.1333H27.2931C27.7387 24.1333 28.1 23.7721 28.1 23.3264V20.5165" stroke="#A9722D" stroke-miterlimit="10" stroke-linecap="round" stroke-linejoin="round"/>
<path d="M28.1274 20.5165V23.4377C28.1274 23.8218 28.4389 24.1333 28.823 24.1333H30.9761C31.3602 24.1333 31.6716 23.8218 31.6716 23.4377V20.3528" stroke="#A9722D" stroke-miterlimit="10" stroke-linecap="round" stroke-linejoin="round"/>
<path d="M31.6724 20.3537V22.2555C31.6724 22.6189 31.967 22.9136 32.3304 22.9136H34.3676C34.7311 22.9136 35.0257 22.6189 35.0257 22.2555V20.1279" stroke="#A9722D" stroke-miterlimit="10" stroke-linecap="round" stroke-linejoin="round"/>
<path d="M19.8699 20.5165V23.4377C19.8699 23.8218 19.5584 24.1333 19.1743 24.1333H17.0212C16.6371 24.1333 16.3257 23.8218 16.3257 23.4377V20.3528" stroke="#A9722D" stroke-miterlimit="10" stroke-linecap="round" stroke-linejoin="round"/>
<path d="M16.3245 20.3538V22.2555C16.3245 22.6189 16.0299 22.9136 15.6665 22.9136H13.6293C13.2658 22.9136 12.9712 22.6189 12.9712 22.2555V20.1279" stroke="#A9722D" stroke-miterlimit="10" stroke-linecap="round" stroke-linejoin="round"/>
<path d="M16.2882 12.4051C18.9169 11.4449 21.6024 11.2717 23.9992 13.3576C28.6798 9.28428 34.4613 13.826 38.7707 16.0193C40.8295 17.0671 42.9238 18.035 44.9917 19.0625C44.9917 19.0625 35.0278 20.5479 24.008 20.599V20.5991C24.0051 20.5991 24.0022 20.599 23.9992 20.599C23.9963 20.599 23.9934 20.5991 23.9904 20.5991V20.599C12.9707 20.5479 3.00684 19.0625 3.00684 19.0625C5.07472 18.035 7.16895 17.0671 9.22771 16.0193C10.5439 15.3494 11.9974 14.4605 13.5149 13.6649L13.6432 13.5979" stroke="#A9722D" stroke-miterlimit="10" stroke-linecap="round" stroke-linejoin="round"/>
<path d="M37.8395 33.0503C37.5655 33.6314 36.7719 35.0505 35.3733 35.5333C35.2649 35.5707 35.2649 35.7249 35.3733 35.7623C36.7719 36.245 37.5655 37.6641 37.8395 38.2452C37.8834 38.3382 38.0158 38.3382 38.0596 38.2452C38.3336 37.6641 39.1273 36.245 40.5259 35.7623C40.6343 35.7249 40.6343 35.5707 40.5259 35.5333C39.1273 35.0505 38.3336 33.6314 38.0596 33.0503C38.0158 32.9573 37.8834 32.9573 37.8395 33.0503Z" stroke="#A9722D" stroke-miterlimit="10" stroke-linecap="round" stroke-linejoin="round"/>
<path d="M10.8995 3.96468C10.5221 4.76509 9.42894 6.71969 7.50264 7.38451C7.35329 7.43604 7.35329 7.64841 7.50264 7.69994C9.42894 8.36477 10.5221 10.3194 10.8995 11.1198C10.9599 11.2478 11.1422 11.2478 11.2026 11.1198C11.58 10.3194 12.6731 8.36477 14.5994 7.69994C14.7487 7.64841 14.7487 7.43604 14.5994 7.38451C12.6731 6.71969 11.58 4.76509 11.2026 3.96468C11.1422 3.83662 10.9599 3.83662 10.8995 3.96468Z" stroke="#A9722D" stroke-miterlimit="10" stroke-linecap="round" stroke-linejoin="round"/>
<path d="M31.6051 36.8758C31.2276 37.6762 30.1345 39.6308 28.2082 40.2956C28.0589 40.3472 28.0589 40.5595 28.2082 40.6111C30.1345 41.2759 31.2276 43.2306 31.6051 44.0309C31.6654 44.159 31.8478 44.159 31.9082 44.0309C32.2856 43.2306 33.3787 41.2759 35.305 40.6111C35.4543 40.5595 35.4543 40.3472 35.305 40.2956C33.3787 39.6308 32.2856 37.6762 31.9082 36.8758C31.8478 36.7478 31.6654 36.7478 31.6051 36.8758Z" stroke="#A9722D" stroke-miterlimit="10" stroke-linecap="round" stroke-linejoin="round"/>
</svg>
