<svg width="48" height="48" viewBox="0 0 48 48" fill="none" xmlns="http://www.w3.org/2000/svg">
<path d="M10.9865 7.63572C10.9404 7.36292 10.7267 7.14927 10.4539 7.10312C9.39458 6.92613 8.56456 6.09586 8.38789 5.03644C8.328 4.68245 7.99246 4.44395 7.63848 4.50384C7.36568 4.55 7.15204 4.76364 7.10589 5.03644C6.92922 6.09586 6.0992 6.92621 5.03985 7.10312C4.68587 7.16301 4.44737 7.49854 4.50726 7.85252C4.55341 8.12532 4.76705 8.33897 5.03985 8.38512C6.0992 8.56211 6.92922 9.39238 7.10589 10.4518C7.16578 10.8058 7.50131 11.0443 7.85529 10.9844C8.12809 10.9382 8.34173 10.7246 8.38789 10.4518C8.56456 9.39238 9.39458 8.56211 10.4539 8.38512C10.8079 8.32531 11.0464 7.98978 10.9865 7.63572ZM7.74689 8.67247C7.49343 8.31174 7.17927 7.99758 6.81854 7.74412C7.17927 7.49066 7.49343 7.1765 7.74689 6.81577C8.00035 7.1765 8.31451 7.49066 8.67524 7.74412C8.31443 7.99766 8.00035 8.31174 7.74689 8.67247Z" fill="#A9722D"/>
<path d="M30.3229 8.39691C29.0654 8.39682 27.8211 8.65223 26.6654 9.14778C24.9625 9.87321 23.0374 9.87321 21.3345 9.14778C16.6239 7.12815 11.168 9.30965 9.14833 14.0203C8.65287 15.176 8.39738 16.4203 8.39746 17.6778C8.39616 21.5063 9.47217 25.258 11.5024 28.504L11.6883 28.8024L14.4954 41.1544C14.8646 42.7811 16.4826 43.8005 18.1094 43.4313C19.306 43.1598 20.2194 42.1913 20.4205 40.9808L22.3708 29.2828C22.5217 28.3826 23.3737 27.7754 24.2739 27.9263C24.9691 28.0429 25.5139 28.5876 25.6304 29.2828L27.5807 40.9801C27.8552 42.6259 29.4118 43.7375 31.0576 43.463C32.267 43.2613 33.2345 42.3487 33.5064 41.153L36.3129 28.8011L36.4989 28.5027C38.5284 25.2569 39.6039 21.5058 39.6025 17.6778C39.6028 12.5525 35.4481 8.39731 30.3229 8.39691ZM35.395 27.8155L35.1505 28.2056C35.1122 28.2674 35.0842 28.335 35.0673 28.4058L32.2374 40.8631C32.0267 41.7898 31.1046 42.3703 30.1779 42.1596C29.4969 42.0048 28.9771 41.4537 28.8621 40.7649L26.9118 29.0676C26.6433 27.4595 25.122 26.3734 23.5138 26.642C22.2702 26.8496 21.2958 27.824 21.0881 29.0676L19.1378 40.7656C18.9825 41.7028 18.0968 42.3367 17.1596 42.1814C16.4696 42.067 15.9176 41.5464 15.7631 40.8644L12.9326 28.4065C12.9158 28.3357 12.8877 28.2681 12.8494 28.2062L12.6049 27.8162C10.7041 24.7763 9.6967 21.263 9.69767 17.6778C9.70271 13.2726 13.2725 9.7028 17.6777 9.69776C18.7587 9.69663 19.8284 9.91604 20.8216 10.3427C22.852 11.2089 25.148 11.2089 27.1783 10.3427C31.2297 8.60673 35.9212 10.4837 37.6572 14.535C38.0828 15.5281 38.3022 16.5973 38.3023 17.6778C38.3031 21.2629 37.2956 24.7758 35.395 27.8155Z" fill="#A9722D"/>
<path d="M15.5471 12.9467L15.4171 12.3096C14.1169 12.5703 11.6465 13.9901 11.6465 17.4974H12.9467C12.9467 14.2007 15.5666 13.6072 15.6771 13.5831L15.5471 12.9467Z" fill="#A9722D"/>
<path d="M18.1493 12.2959H16.8491V13.5961H18.1493V12.2959Z" fill="#A9722D"/>
<path d="M43.4909 34.9419C43.4448 34.6691 43.2311 34.4554 42.9583 34.4093C41.899 34.2323 41.069 33.402 40.8923 32.3426C40.8324 31.9886 40.4969 31.7501 40.1429 31.81C39.8701 31.8561 39.6564 32.0698 39.6103 32.3426C39.4336 33.402 38.6036 34.2323 37.5442 34.4093C37.1903 34.4692 36.9518 34.8047 37.0117 35.1587C37.0578 35.4315 37.2714 35.6451 37.5442 35.6913C38.6036 35.8683 39.4336 36.6985 39.6103 37.758C39.6702 38.1119 40.0057 38.3504 40.3597 38.2906C40.6325 38.2444 40.8461 38.0308 40.8923 37.758C41.069 36.6985 41.899 35.8683 42.9583 35.6913C43.3123 35.6315 43.5508 35.2959 43.4909 34.9419ZM40.2513 35.9786C39.9978 35.6179 39.6837 35.3037 39.3229 35.0503C39.6837 34.7968 39.9978 34.4826 40.2513 34.1219C40.5047 34.4826 40.8189 34.7968 41.1796 35.0503C40.8188 35.3038 40.5047 35.6179 40.2513 35.9786Z" fill="#A9722D"/>
</svg>
