<svg width="230" height="109" viewBox="0 0 230 109" fill="none" xmlns="http://www.w3.org/2000/svg">
<path d="M45.0656 105.224C45.0475 104.903 44.9912 104.598 44.8987 104.317C44.7825 103.954 44.6065 103.634 44.3779 103.366C44.1474 103.097 43.8589 102.885 43.5177 102.733C43.182 102.582 42.7882 102.504 42.3473 102.504C41.9426 102.504 41.5488 102.584 41.1786 102.74C40.8157 102.896 40.4891 103.121 40.2114 103.406C39.9374 103.691 39.716 104.034 39.5491 104.429C39.4257 104.727 39.3476 105.052 39.3186 105.4C39.3132 105.451 39.3095 105.502 39.3077 105.554C39.3059 105.612 39.3041 105.67 39.3041 105.73C39.3041 105.832 39.3077 105.934 39.315 106.032C39.315 106.035 39.315 106.041 39.315 106.044C39.3404 106.395 39.4093 106.721 39.5218 107.015C39.6725 107.387 39.8757 107.712 40.1279 107.981C40.3802 108.244 40.6742 108.447 41.0026 108.587C41.3383 108.726 41.6976 108.797 42.0733 108.797C42.5396 108.797 42.9643 108.71 43.3344 108.538C43.7083 108.363 44.0276 108.124 44.2835 107.83C44.5412 107.534 44.739 107.18 44.8733 106.779C44.9422 106.571 44.9949 106.351 45.0257 106.122C45.0584 105.915 45.0729 105.701 45.0729 105.482C45.0729 105.395 45.0711 105.309 45.0638 105.224H45.0656ZM43.7282 107.681C43.3889 108.104 42.9062 108.318 42.2892 108.318C41.9989 108.318 41.7194 108.256 41.4563 108.133C41.1986 108.01 40.9699 107.826 40.7758 107.59C40.5816 107.345 40.4219 107.044 40.304 106.694C40.1896 106.34 40.1316 105.926 40.1316 105.465C40.1316 105.035 40.1878 104.662 40.2949 104.353C40.3149 104.293 40.3384 104.235 40.362 104.179C40.46 103.943 40.5834 103.742 40.725 103.584C40.8157 103.482 40.9137 103.393 41.0189 103.317C41.1242 103.242 41.2367 103.179 41.3547 103.13C41.5942 103.034 41.8482 102.985 42.1077 102.985C42.4307 102.985 42.7247 103.05 42.9824 103.179C43.2455 103.308 43.4705 103.495 43.6538 103.738C43.8426 103.974 43.9895 104.268 44.093 104.609C44.1964 104.945 44.2472 105.329 44.2472 105.747C44.2472 106.605 44.073 107.255 43.7282 107.681Z" fill="#BC9667"/>
<path d="M37.8191 102.604L37.8137 102.654C37.801 102.769 37.7701 102.881 37.7175 102.985C37.6703 103.09 37.6159 103.168 37.556 103.215L37.5415 103.226H37.5233C37.2747 103.202 36.9826 103.175 36.6468 103.142C36.342 103.106 36.0407 103.075 35.7268 103.048V108.556L35.7032 108.568C35.6107 108.619 35.5036 108.654 35.3729 108.674C35.2568 108.695 35.1316 108.706 35.0028 108.706H34.9574V103.048C34.805 103.063 34.6435 103.081 34.4693 103.101C34.2751 103.117 34.0845 103.133 33.8976 103.15C33.7089 103.166 33.5293 103.182 33.3587 103.199C33.1917 103.211 33.0502 103.219 32.934 103.224L32.8832 103.228L32.8869 103.175C32.8996 103.048 32.925 102.937 32.9649 102.847C33.0121 102.747 33.0683 102.671 33.1355 102.614L33.1482 102.604H37.8191Z" fill="#BC9667"/>
<path d="M31.0179 106.865C31.0179 107.119 30.9635 107.364 30.8564 107.596C30.7494 107.826 30.5933 108.035 30.3901 108.215C30.1886 108.389 29.9418 108.53 29.6551 108.637C29.3775 108.737 29.0581 108.788 28.7042 108.788C28.3504 108.788 28.0619 108.743 27.8114 108.654C27.561 108.565 27.3469 108.452 27.1781 108.316C27.0075 108.175 26.8751 108.017 26.7843 107.846C26.699 107.676 26.6537 107.507 26.6464 107.345V107.331L26.6555 107.318C26.7154 107.229 26.8115 107.148 26.944 107.073C27.0747 106.999 27.2072 106.957 27.336 106.952H27.3777L27.3832 106.993C27.3995 107.142 27.4431 107.296 27.512 107.451C27.581 107.598 27.6808 107.734 27.8078 107.857C27.9439 107.977 28.109 108.077 28.2996 108.155C28.4901 108.229 28.7242 108.267 28.9946 108.267C29.3847 108.267 29.6987 108.167 29.9255 107.971C30.1505 107.774 30.2648 107.511 30.2648 107.188C30.2648 106.865 30.185 106.621 30.0271 106.422C29.8693 106.22 29.5735 106.064 29.1488 105.955L28.3704 105.756C28.1762 105.709 27.9856 105.651 27.8024 105.583C27.6209 105.514 27.4612 105.426 27.3269 105.318C27.189 105.204 27.0801 105.064 27.0003 104.905C26.9622 104.823 26.935 104.732 26.915 104.634C26.915 104.631 26.915 104.629 26.9132 104.625C26.8968 104.527 26.8878 104.42 26.8878 104.306V104.275C26.8932 104.054 26.9495 103.838 27.0583 103.631C27.1709 103.417 27.3287 103.224 27.5247 103.063C27.7261 102.894 27.962 102.758 28.2252 102.658C28.4956 102.557 28.7877 102.504 29.0944 102.504C29.1271 102.504 29.1579 102.504 29.1888 102.506H29.2069C29.3974 102.502 29.5844 102.528 29.7622 102.586C29.8057 102.596 29.8475 102.609 29.8874 102.624C30.1052 102.702 30.2848 102.8 30.4227 102.912C30.5588 103.027 30.6604 103.155 30.724 103.293C30.7911 103.422 30.8328 103.542 30.8437 103.645V103.66L30.8401 103.671C30.7984 103.756 30.7221 103.832 30.6078 103.905C30.4935 103.97 30.3665 104.012 30.2249 104.028L30.1832 104.034L30.1759 103.992C30.1542 103.872 30.1124 103.758 30.0562 103.649C29.9963 103.531 29.911 103.428 29.8021 103.34C29.695 103.244 29.5608 103.166 29.4011 103.106C29.2396 103.048 29.0472 103.017 28.8295 103.017C28.4665 103.017 28.1725 103.114 27.9566 103.304C27.737 103.491 27.6318 103.732 27.6318 104.041C27.6318 104.217 27.659 104.364 27.7098 104.478C27.7624 104.587 27.835 104.68 27.9312 104.76C28.0256 104.834 28.1381 104.896 28.2651 104.943C28.4103 104.994 28.5591 105.039 28.7061 105.073L29.4356 105.255C29.7404 105.333 29.9963 105.429 30.1995 105.54C30.4082 105.652 30.5733 105.779 30.6931 105.915C30.8129 106.052 30.8964 106.206 30.9417 106.373C30.9925 106.529 31.0179 106.694 31.0179 106.865Z" fill="#BC9667"/>
<path d="M104.352 102.62L104.341 102.589H104.311C104.196 102.589 104.086 102.6 103.971 102.623C103.864 102.643 103.757 102.68 103.655 102.727L103.637 102.734L103.632 102.75C103.496 103.095 103.342 103.48 103.171 103.903L103.102 104.075C102.908 104.561 102.706 105.066 102.498 105.59C102.293 106.109 102.089 106.634 101.884 107.164C101.743 107.528 101.605 107.879 101.474 108.212L101.286 108.697L101.338 108.708C101.367 108.713 101.4 108.715 101.44 108.715C101.485 108.722 101.531 108.724 101.579 108.724C101.661 108.724 101.745 108.715 101.824 108.699C101.912 108.688 101.984 108.666 102.039 108.635L102.055 108.626L102.06 108.608C102.211 108.076 102.38 107.519 102.563 106.951H105.149L105.791 108.702L105.817 108.708C105.848 108.713 105.873 108.715 105.9 108.715H105.984C106.109 108.715 106.218 108.704 106.305 108.682C106.401 108.664 106.472 108.643 106.526 108.612L106.561 108.594L104.352 102.62ZM102.726 106.463C102.911 105.926 103.102 105.385 103.293 104.854C103.458 104.404 103.652 103.883 103.846 103.376L104.975 106.463H102.726Z" fill="#BC9667"/>
<path d="M99.0513 102.589V108.557L99.0277 108.57C98.9352 108.621 98.8263 108.655 98.6975 108.675C98.5813 108.697 98.4579 108.708 98.3273 108.708H98.2819V102.756L98.3055 102.743C98.4979 102.641 98.7338 102.589 99.006 102.589H99.0513Z" fill="#BC9667"/>
<path d="M95.488 105.534V107.868L95.4771 107.881C95.4154 107.952 95.3247 108.039 95.2067 108.14C95.087 108.246 94.9273 108.347 94.7331 108.445C94.5462 108.538 94.3176 108.621 94.0544 108.688C93.7913 108.761 93.4883 108.797 93.1562 108.797C92.7914 108.797 92.4321 108.735 92.091 108.614C91.7516 108.487 91.4431 108.293 91.1709 108.04C90.906 107.779 90.6919 107.456 90.5322 107.08C90.3761 106.694 90.2963 106.24 90.2963 105.73C90.2963 105.293 90.3761 104.872 90.5322 104.48C90.6937 104.088 90.9169 103.743 91.1945 103.455C91.4776 103.161 91.8133 102.927 92.1944 102.756C92.5755 102.589 92.9929 102.504 93.4374 102.504C93.8113 102.504 94.127 102.553 94.3738 102.649C94.6242 102.747 94.8184 102.86 94.9672 102.998C95.1215 103.128 95.234 103.268 95.3011 103.409C95.3682 103.544 95.4118 103.66 95.4299 103.752V103.767L95.4245 103.781C95.381 103.863 95.3011 103.945 95.1868 104.021C95.0725 104.092 94.9418 104.139 94.7948 104.161L94.7531 104.166L94.744 104.126C94.7114 103.992 94.6569 103.856 94.5825 103.725C94.5081 103.591 94.4028 103.473 94.2722 103.373C94.1415 103.264 93.9782 103.177 93.7877 103.115C93.5971 103.05 93.3649 103.017 93.0981 103.017C92.8314 103.017 92.5973 103.066 92.3614 103.163C92.1273 103.255 91.9113 103.399 91.7244 103.593C91.543 103.783 91.3923 104.035 91.278 104.339C91.1691 104.642 91.1147 105.008 91.1147 105.424C91.1147 105.923 91.1818 106.356 91.3125 106.718C91.4468 107.073 91.6246 107.371 91.8406 107.603C92.0583 107.828 92.3124 107.997 92.5936 108.106C92.8731 108.213 93.1652 108.267 93.4629 108.267C93.8076 108.267 94.0817 108.233 94.2758 108.164C94.4664 108.088 94.6115 108.022 94.7168 107.964V105.984C94.4664 105.995 94.2105 106.006 93.9456 106.015C93.6625 106.021 93.4048 106.023 93.1725 106.023H93.1199L93.1271 105.972C93.1417 105.868 93.1689 105.779 93.2088 105.701C93.256 105.614 93.3086 105.556 93.3667 105.524L93.3776 105.518L95.488 105.534Z" fill="#BC9667"/>
<path d="M87.8571 104.317C87.7392 103.952 87.5631 103.633 87.3345 103.366C87.104 103.097 86.8155 102.885 86.4743 102.733C86.1404 102.582 85.7448 102.504 85.3039 102.504C84.8992 102.504 84.5054 102.584 84.1352 102.74C83.7723 102.896 83.4457 103.121 83.168 103.406C82.894 103.691 82.6726 104.034 82.5057 104.429C82.3442 104.819 82.2625 105.257 82.2625 105.73C82.2625 106.204 82.3351 106.636 82.4803 107.015C82.6309 107.385 82.8341 107.71 83.0864 107.981C83.3386 108.244 83.6326 108.447 83.961 108.587C84.2986 108.726 84.6579 108.797 85.0317 108.797C85.4981 108.797 85.9227 108.71 86.2929 108.538C86.6667 108.363 86.9861 108.126 87.2437 107.83C87.4996 107.534 87.6974 107.182 87.8317 106.779C87.966 106.378 88.0331 105.941 88.0331 105.482C88.0331 105.064 87.9732 104.672 87.8571 104.317ZM85.2458 108.318C84.9555 108.318 84.676 108.256 84.4129 108.133C84.157 108.01 83.9284 107.826 83.7342 107.59C83.5364 107.342 83.3785 107.041 83.2624 106.694C83.1481 106.34 83.09 105.926 83.09 105.465C83.09 105.034 83.1444 104.66 83.2533 104.353C83.3622 104.037 83.5074 103.778 83.6834 103.584C83.863 103.38 84.0754 103.228 84.3113 103.13C84.5526 103.034 84.8048 102.985 85.0643 102.985C85.3892 102.985 85.6831 103.05 85.939 103.179C86.2003 103.306 86.4272 103.495 86.6104 103.738C86.7992 103.974 86.9462 104.268 87.0496 104.609C87.153 104.945 87.2056 105.329 87.2056 105.747C87.2056 106.603 87.0314 107.253 86.6848 107.681C86.3473 108.104 85.8628 108.318 85.2458 108.318Z" fill="#BC9667"/>
<path d="M80.6019 108.084L80.5983 108.136C80.5874 108.267 80.5548 108.387 80.5021 108.492C80.4495 108.594 80.3878 108.664 80.3188 108.702L80.3079 108.708H76.8147V102.756L76.8383 102.743C77.0343 102.64 77.2648 102.589 77.5388 102.589H77.5841V108.251C78.0414 108.234 78.4806 108.212 78.927 108.185C79.4097 108.158 79.9505 108.125 80.5493 108.087L80.6019 108.084Z" fill="#BC9667"/>
<path d="M74.0275 104.317C73.9131 103.957 73.7371 103.638 73.5066 103.366C73.2762 103.097 72.9858 102.883 72.6447 102.733C72.3126 102.582 71.9188 102.504 71.476 102.504C71.0695 102.504 70.6758 102.584 70.3074 102.74C69.9427 102.896 69.6178 103.121 69.3402 103.406C69.0662 103.691 68.843 104.034 68.6778 104.429C68.5145 104.818 68.4329 105.255 68.4329 105.73C68.4329 106.206 68.5073 106.632 68.6524 107.015C68.803 107.389 69.0063 107.714 69.2567 107.981C69.5089 108.244 69.8047 108.449 70.1332 108.587C70.4689 108.726 70.8282 108.797 71.202 108.797C71.6702 108.797 72.0948 108.71 72.465 108.538C72.837 108.363 73.1564 108.126 73.4141 107.83C73.6718 107.532 73.8696 107.18 74.0039 106.779C74.1363 106.382 74.2035 105.945 74.2035 105.482C74.2035 105.064 74.1436 104.672 74.0275 104.317ZM71.418 108.318C71.1276 108.318 70.8482 108.256 70.585 108.133C70.3255 108.008 70.0969 107.826 69.9045 107.59C69.7104 107.347 69.5507 107.046 69.4327 106.694C69.3184 106.34 69.2603 105.926 69.2603 105.465C69.2603 105.037 69.3148 104.663 69.4255 104.353C69.5307 104.041 69.6759 103.783 69.8537 103.584C70.0388 103.377 70.2439 103.228 70.4816 103.13C70.7229 103.034 70.977 102.985 71.2365 102.985C71.5595 102.985 71.8535 103.05 72.1094 103.179C72.3743 103.308 72.5993 103.497 72.7808 103.738C72.9713 103.974 73.1183 104.268 73.2199 104.609C73.3234 104.945 73.376 105.329 73.376 105.747C73.376 106.605 73.2018 107.257 72.8552 107.681C72.5195 108.104 72.035 108.318 71.418 108.318Z" fill="#BC9667"/>
<path d="M53.7121 108.563L53.6867 108.577C53.6069 108.623 53.5016 108.655 53.3637 108.675C53.2367 108.697 53.1078 108.708 52.9844 108.708H52.9445L52.3729 103.728C52.1188 104.364 51.8648 104.995 51.6107 105.625C51.3404 106.307 51.0809 106.969 50.8323 107.61L50.8214 107.626C50.7887 107.659 50.7451 107.686 50.6925 107.71C50.6435 107.726 50.5945 107.741 50.5401 107.757L50.5219 107.762C50.4693 107.779 50.4112 107.791 50.3423 107.804C50.277 107.81 50.2207 107.813 50.1699 107.813H50.139L48.4006 103.618C48.3679 103.988 48.3353 104.365 48.3026 104.75L48.2028 106.066C48.1756 106.496 48.1466 106.922 48.1193 107.341C48.0976 107.755 48.0776 108.151 48.0613 108.532V108.557L48.0395 108.57C47.9524 108.621 47.8435 108.655 47.7074 108.675C47.5858 108.697 47.4606 108.708 47.3372 108.708H47.2864L47.2918 108.657C47.4062 107.713 47.5314 106.73 47.6657 105.734C47.8 104.723 47.9379 103.732 48.0703 102.787L48.074 102.765L48.0921 102.754C48.1701 102.707 48.2718 102.672 48.4115 102.64C48.5403 102.607 48.6637 102.589 48.7781 102.589H48.8089L48.8198 102.618L50.5836 106.975C50.8504 106.303 51.1244 105.621 51.4021 104.928C51.6978 104.206 51.99 103.474 52.2713 102.75L52.2785 102.734L52.2931 102.727C52.3892 102.68 52.4963 102.645 52.6124 102.623C52.7358 102.6 52.8556 102.589 52.9681 102.589H53.008L53.0135 102.629L53.7121 108.563Z" fill="#BC9667"/>
<path d="M66.9479 102.604L66.9424 102.654C66.9316 102.769 66.8989 102.881 66.8445 102.986C66.7973 103.092 66.7447 103.168 66.683 103.215L66.6702 103.226H66.6521C66.4035 103.202 66.1113 103.175 65.7756 103.142C65.4708 103.106 65.1695 103.075 64.8556 103.048V108.556L64.832 108.568C64.7394 108.619 64.6306 108.654 64.5017 108.674C64.3856 108.695 64.2622 108.706 64.1315 108.706H64.0862V103.048C63.9337 103.063 63.7722 103.081 63.598 103.101L63.0246 103.15C62.8377 103.166 62.658 103.182 62.4875 103.199C62.3205 103.211 62.179 103.219 62.0628 103.224L62.012 103.228L62.0156 103.175C62.0265 103.05 62.0538 102.939 62.0937 102.847C62.1409 102.747 62.1953 102.671 62.2643 102.614L62.277 102.604H66.9479Z" fill="#BC9667"/>
<path d="M58.7385 102.62L58.7276 102.589H58.6968C58.5842 102.589 58.4699 102.6 58.3556 102.623C58.2449 102.645 58.1397 102.68 58.0398 102.727L58.0235 102.734L58.0181 102.75C57.862 103.142 57.686 103.583 57.4882 104.075C57.294 104.561 57.0926 105.066 56.8821 105.59C56.6789 106.109 56.4738 106.634 56.2706 107.164L56.1363 107.503C55.982 107.902 55.8332 108.283 55.6899 108.646L55.6699 108.697L55.7225 108.708C55.7534 108.713 55.7879 108.715 55.8241 108.715C55.8695 108.721 55.9167 108.724 55.9639 108.724C56.0474 108.724 56.1308 108.715 56.2089 108.699C56.2978 108.688 56.3704 108.666 56.4248 108.635L56.4411 108.626L56.4466 108.608C56.5936 108.076 56.7641 107.519 56.9492 106.951H59.5351L60.1703 108.679L60.1775 108.702L60.2029 108.708C60.2301 108.713 60.2592 108.715 60.2864 108.715H60.3699C60.4933 108.715 60.6021 108.704 60.6929 108.682C60.7872 108.664 60.858 108.643 60.9124 108.612L60.9469 108.594L58.7385 102.62ZM59.3591 106.463H57.1125C57.2976 105.924 57.4882 105.383 57.6787 104.854C57.8566 104.365 58.0435 103.87 58.2304 103.378L59.3591 106.463Z" fill="#BC9667"/>
<path d="M201.263 102.62L201.252 102.589H201.221C201.108 102.589 200.992 102.6 200.88 102.623C200.773 102.643 200.666 102.68 200.564 102.727L200.546 102.734L200.54 102.75C200.373 103.171 200.196 103.618 200.011 104.075C199.818 104.561 199.617 105.066 199.406 105.59C199.203 106.109 198.998 106.634 198.795 107.164L198.662 107.503C198.506 107.902 198.357 108.283 198.214 108.646L198.194 108.697L198.247 108.708C198.276 108.713 198.31 108.715 198.348 108.715C198.394 108.721 198.441 108.724 198.488 108.724C198.571 108.724 198.655 108.715 198.733 108.699C198.82 108.688 198.891 108.666 198.949 108.635L198.965 108.626L198.971 108.608C199.118 108.078 199.286 107.521 199.473 106.951H202.059L202.694 108.679L202.702 108.702L202.727 108.708C202.756 108.713 202.781 108.715 202.811 108.715H202.892C203.017 108.715 203.126 108.704 203.217 108.682C203.308 108.664 203.382 108.641 203.437 108.612L203.471 108.594L201.263 102.62ZM199.637 106.463C199.822 105.924 200.012 105.383 200.205 104.854C200.383 104.365 200.568 103.87 200.755 103.378L201.883 106.463H199.637Z" fill="#BC9667"/>
<path d="M195.96 102.589V108.557L195.936 108.57C195.847 108.621 195.737 108.655 195.608 108.675C195.49 108.697 195.365 108.708 195.236 108.708H195.19V102.756L195.214 102.743C195.406 102.641 195.642 102.589 195.914 102.589H195.96Z" fill="#BC9667"/>
<path d="M192.397 105.534V107.866L192.386 107.879C192.331 107.946 192.242 108.031 192.115 108.14C191.995 108.246 191.836 108.347 191.642 108.445C191.455 108.538 191.226 108.621 190.963 108.688C190.7 108.761 190.397 108.797 190.066 108.797C189.702 108.797 189.342 108.735 188.999 108.614C188.658 108.485 188.35 108.291 188.081 108.039C187.816 107.781 187.6 107.458 187.441 107.08C187.285 106.694 187.205 106.24 187.205 105.73C187.205 105.293 187.285 104.872 187.441 104.48C187.602 104.088 187.825 103.743 188.103 103.455C188.388 103.161 188.724 102.927 189.103 102.756C189.484 102.589 189.903 102.504 190.348 102.504C190.722 102.504 191.036 102.553 191.282 102.649C191.533 102.745 191.732 102.863 191.878 102.998C192.028 103.126 192.141 103.264 192.21 103.408C192.279 103.547 192.32 103.66 192.338 103.752V103.767L192.333 103.78C192.291 103.863 192.211 103.945 192.095 104.021C191.981 104.092 191.848 104.139 191.703 104.161L191.662 104.166L191.653 104.126C191.62 103.992 191.565 103.856 191.491 103.725C191.418 103.595 191.315 103.477 191.181 103.373C191.05 103.264 190.889 103.179 190.698 103.115C190.504 103.05 190.277 103.017 190.008 103.017C189.754 103.017 189.506 103.066 189.27 103.163C189.034 103.255 188.82 103.4 188.633 103.593C188.45 103.787 188.301 104.039 188.187 104.339C188.079 104.638 188.025 105.005 188.025 105.424C188.025 105.926 188.09 106.36 188.221 106.718C188.355 107.073 188.533 107.371 188.749 107.603C188.969 107.828 189.223 107.997 189.502 108.106C189.782 108.213 190.074 108.267 190.371 108.267C190.716 108.267 190.99 108.233 191.186 108.164C191.379 108.088 191.52 108.022 191.627 107.964V105.984C191.377 105.995 191.119 106.006 190.854 106.015C190.571 106.021 190.315 106.023 190.083 106.023H190.032L190.037 105.972C190.048 105.877 190.076 105.787 190.117 105.701C190.164 105.614 190.217 105.556 190.275 105.524L190.286 105.518L192.397 105.534Z" fill="#BC9667"/>
<path d="M184.766 104.317C184.649 103.952 184.472 103.633 184.244 103.366C184.017 103.099 183.727 102.885 183.384 102.733C183.05 102.582 182.656 102.504 182.215 102.504C181.809 102.504 181.415 102.584 181.045 102.74C180.682 102.898 180.357 103.121 180.079 103.406C179.803 103.693 179.58 104.037 179.415 104.429C179.254 104.819 179.172 105.257 179.172 105.73C179.172 106.204 179.246 106.638 179.391 107.015C179.542 107.389 179.745 107.714 179.996 107.981C180.248 108.244 180.544 108.449 180.872 108.587C181.208 108.726 181.567 108.797 181.941 108.797C182.409 108.797 182.834 108.71 183.204 108.538C183.576 108.363 183.895 108.124 184.153 107.83C184.409 107.534 184.607 107.182 184.741 106.779C184.875 106.384 184.942 105.946 184.942 105.482C184.942 105.064 184.883 104.672 184.766 104.317ZM182.157 108.318C181.863 108.318 181.591 108.258 181.324 108.133C181.066 108.01 180.838 107.826 180.644 107.59C180.449 107.345 180.29 107.044 180.172 106.694C180.057 106.34 179.999 105.926 179.999 105.465C179.999 105.034 180.054 104.66 180.163 104.353C180.27 104.041 180.415 103.781 180.593 103.584C180.778 103.377 180.983 103.228 181.221 103.13C181.462 103.034 181.714 102.985 181.974 102.985C182.299 102.985 182.592 103.05 182.848 103.179C183.11 103.306 183.337 103.495 183.52 103.738C183.709 103.974 183.855 104.268 183.959 104.609C184.062 104.945 184.115 105.329 184.115 105.747C184.115 106.605 183.941 107.257 183.594 107.681C183.257 108.104 182.772 108.318 182.157 108.318Z" fill="#BC9667"/>
<path d="M177.51 108.084L177.507 108.136C177.494 108.274 177.463 108.39 177.411 108.494C177.356 108.597 177.296 108.666 177.227 108.702L177.216 108.708H173.723V102.756L173.747 102.743C173.941 102.641 174.177 102.589 174.449 102.589H174.494V108.251C174.95 108.234 175.402 108.212 175.835 108.185C176.318 108.158 176.857 108.125 177.458 108.087L177.51 108.084Z" fill="#BC9667"/>
<path d="M170.938 104.317C170.82 103.952 170.644 103.633 170.416 103.366C170.185 103.097 169.895 102.883 169.554 102.733C169.222 102.582 168.828 102.504 168.385 102.504C167.981 102.504 167.587 102.584 167.217 102.74C166.854 102.896 166.527 103.121 166.249 103.406C165.975 103.691 165.754 104.034 165.587 104.429C165.425 104.819 165.344 105.257 165.344 105.73C165.344 106.204 165.416 106.636 165.562 107.015C165.712 107.387 165.915 107.71 166.168 107.981C166.42 108.244 166.714 108.447 167.042 108.587C167.38 108.726 167.739 108.797 168.113 108.797C168.579 108.797 169.004 108.71 169.374 108.538C169.748 108.363 170.067 108.126 170.325 107.83C170.581 107.536 170.779 107.182 170.913 106.779C171.047 106.378 171.114 105.941 171.114 105.482C171.114 105.064 171.055 104.672 170.938 104.317ZM168.327 108.318C168.037 108.318 167.757 108.256 167.494 108.133C167.238 108.01 167.01 107.826 166.815 107.59C166.62 107.344 166.46 107.042 166.342 106.694C166.229 106.338 166.171 105.925 166.171 105.465C166.171 105.034 166.226 104.66 166.335 104.353C166.443 104.037 166.589 103.778 166.765 103.584C166.944 103.38 167.157 103.228 167.393 103.13C167.632 103.034 167.884 102.985 168.146 102.985C168.47 102.985 168.764 103.05 169.02 103.179C169.283 103.308 169.508 103.495 169.69 103.738C169.879 103.974 170.027 104.266 170.131 104.609C170.234 104.946 170.285 105.318 170.285 105.747C170.285 106.605 170.111 107.257 169.764 107.681C169.429 108.104 168.944 108.318 168.327 108.318Z" fill="#BC9667"/>
<path d="M163.858 102.604L163.853 102.654C163.842 102.769 163.809 102.879 163.756 102.985C163.707 103.092 163.655 103.168 163.597 103.215L163.582 103.226H163.564C163.315 103.202 163.023 103.175 162.686 103.142C162.381 103.106 162.08 103.075 161.766 103.048V108.556L161.742 108.568C161.65 108.621 161.541 108.654 161.414 108.674C161.296 108.695 161.17 108.706 161.042 108.706H160.996V103.048C160.846 103.063 160.682 103.081 160.508 103.101C160.314 103.117 160.123 103.133 159.937 103.15C159.748 103.166 159.568 103.182 159.398 103.199C159.232 103.211 159.089 103.219 158.973 103.224L158.922 103.228L158.926 103.175C158.937 103.05 158.964 102.939 159.004 102.847C159.053 102.747 159.107 102.671 159.174 102.614L159.187 102.604H163.858Z" fill="#BC9667"/>
<path d="M151.821 102.439L151.84 102.463L156.033 107.614L155.851 102.627L155.849 102.56H156.559L156.556 102.627L156.344 108.774L156.342 108.837H156.148L156.128 108.813L151.935 103.661L152.118 108.649L152.119 108.717H151.41L151.412 108.649L151.624 102.502L151.626 102.439H151.821Z" fill="#BC9667" stroke="#BC9667" stroke-width="0.128924"/>
<path d="M147.078 102.62L147.067 102.589H147.036C146.922 102.589 146.811 102.6 146.697 102.623C146.59 102.643 146.482 102.68 146.381 102.727L146.363 102.734L146.357 102.75C146.221 103.095 146.067 103.48 145.896 103.903L145.827 104.075C145.633 104.561 145.432 105.066 145.223 105.59C145.018 106.109 144.815 106.634 144.61 107.164C144.468 107.528 144.332 107.877 144.201 108.211L144.011 108.697L144.064 108.708C144.093 108.713 144.127 108.717 144.165 108.715C144.212 108.722 144.258 108.724 144.303 108.724C144.387 108.724 144.468 108.717 144.55 108.699C144.637 108.688 144.71 108.666 144.764 108.635L144.78 108.626L144.786 108.608C144.926 108.105 145.091 107.563 145.288 106.951H147.874L148.509 108.679L148.517 108.702L148.542 108.708C148.569 108.713 148.598 108.715 148.626 108.715H148.709C148.834 108.715 148.943 108.704 149.032 108.682C149.126 108.664 149.199 108.643 149.252 108.612L149.286 108.594L147.078 102.62ZM145.452 106.463C145.639 105.924 145.829 105.383 146.018 104.854C146.185 104.402 146.379 103.879 146.571 103.376L147.7 106.463H145.452Z" fill="#BC9667"/>
<path d="M142.231 108.084L142.227 108.136C142.216 108.267 142.184 108.387 142.131 108.492C142.075 108.597 142.015 108.666 141.948 108.702L141.937 108.708H138.444V102.756L138.467 102.743C138.66 102.641 138.896 102.589 139.168 102.589H139.213V108.251C139.67 108.234 140.11 108.212 140.556 108.185C141.037 108.158 141.578 108.125 142.178 108.087L142.231 108.084Z" fill="#BC9667"/>
<path d="M135.845 103.613C135.772 103.406 135.649 103.215 135.478 103.048C135.313 102.883 135.09 102.753 134.816 102.658C134.54 102.557 134.197 102.504 133.798 102.504C133.422 102.504 133.065 102.538 132.738 102.606C132.406 102.674 132.125 102.751 131.88 102.84L131.849 102.851V108.706H131.894C132.023 108.706 132.148 108.696 132.266 108.674C132.393 108.654 132.504 108.619 132.595 108.569L132.618 108.556V106.389C132.698 106.4 132.789 106.411 132.9 106.42C133.023 106.433 133.157 106.438 133.31 106.438C133.676 106.438 134.025 106.391 134.342 106.295C134.665 106.193 134.939 106.052 135.175 105.865C135.418 105.68 135.609 105.449 135.743 105.181C135.885 104.91 135.955 104.598 135.955 104.255C135.955 104.035 135.917 103.82 135.845 103.613ZM133.607 105.966C133.375 105.966 133.172 105.945 133.007 105.901C132.867 105.863 132.736 105.814 132.618 105.752V103.076C132.731 103.054 132.861 103.032 133.025 103.01C133.188 102.987 133.364 102.976 133.566 102.976C133.841 102.976 134.077 103.017 134.27 103.097C134.466 103.177 134.631 103.29 134.76 103.433C134.887 103.571 134.979 103.736 135.037 103.923C135.097 104.11 135.128 104.313 135.128 104.529C135.128 104.994 134.99 105.353 134.72 105.598C134.449 105.843 134.074 105.966 133.607 105.966Z" fill="#BC9667"/>
<path d="M129.145 108.563L129.12 108.577C129.04 108.623 128.933 108.655 128.797 108.675C128.666 108.697 128.543 108.708 128.417 108.708H128.378L127.804 103.728C127.552 104.364 127.298 104.995 127.044 105.625C126.773 106.307 126.514 106.969 126.265 107.61L126.256 107.626C126.225 107.657 126.18 107.686 126.126 107.71C126.078 107.726 126.033 107.739 125.984 107.753L125.955 107.762C125.902 107.779 125.844 107.791 125.775 107.804C125.708 107.81 125.654 107.813 125.603 107.813H125.572L123.834 103.618C123.801 103.988 123.768 104.367 123.736 104.75C123.707 105.128 123.678 105.503 123.65 105.877L123.636 106.066C123.619 106.334 123.601 106.603 123.583 106.868L123.552 107.341C123.531 107.753 123.511 108.151 123.494 108.532V108.557L123.472 108.57C123.385 108.621 123.278 108.655 123.142 108.675C123.019 108.697 122.894 108.708 122.77 108.708H122.719L122.725 108.657C122.843 107.677 122.968 106.694 123.097 105.734C123.224 104.797 123.356 103.832 123.503 102.787L123.507 102.765L123.525 102.754C123.605 102.707 123.707 102.671 123.844 102.64C123.975 102.605 124.097 102.589 124.211 102.589H124.242L124.253 102.618L126.017 106.975C126.283 106.303 126.557 105.621 126.835 104.928C127.144 104.173 127.436 103.442 127.704 102.75L127.71 102.734L127.726 102.727C127.822 102.68 127.929 102.643 128.044 102.623C128.169 102.6 128.289 102.589 128.401 102.589H128.441L128.446 102.629L129.145 108.563Z" fill="#BC9667"/>
<path d="M120.003 102.589V108.557L119.979 108.57C119.887 108.623 119.778 108.655 119.651 108.675C119.533 108.697 119.408 108.708 119.279 108.708H119.233V102.756L119.257 102.743C119.449 102.641 119.685 102.589 119.957 102.589H120.003Z" fill="#BC9667"/>
<path d="M112.649 106.849C113.298 106.849 113.824 106.324 113.824 105.675C113.824 105.027 113.298 104.501 112.649 104.501C112.001 104.501 111.475 105.027 111.475 105.675C111.475 106.324 112.001 106.849 112.649 106.849Z" fill="#BC9667"/>
<path d="M132.931 16.2263C132.896 16.6627 132.852 17.1292 132.797 17.6646C132.459 21.0361 131.958 23.9657 131.261 26.6233C130.579 29.2332 129.59 31.8819 128.204 34.7798C128.683 35.2816 129.148 35.794 129.602 36.3171C131.221 33.0305 132.359 30.053 133.127 27.111C133.848 24.3562 134.368 21.3276 134.716 17.8572C134.827 16.7529 134.9 15.9277 134.933 15.0601C134.246 15.6714 133.507 16.0249 132.931 16.2263ZM134.815 11.0384C134.815 11.0384 134.813 11.026 134.813 11.0189C134.801 10.8634 134.778 10.6708 134.726 10.4517C134.647 10.1001 134.536 9.83505 134.435 9.61948C134.408 9.56293 134.382 9.51169 134.357 9.46044C134.188 9.10881 134.004 8.80312 133.797 8.5257C133.161 7.66871 132.435 7.19162 131.956 6.87532C131.21 6.38586 130.599 6.12259 130.233 5.96709C129.21 5.52888 128.378 5.33627 127.881 5.22141C127.514 5.1366 126.75 4.97934 125.768 4.88215C125.137 4.82031 124.451 4.79027 123.787 4.79557C123.176 4.80264 122.55 4.83974 121.978 4.90336C121.504 4.95637 120.636 5.05355 119.528 5.35394C119.933 5.93175 120.364 6.49366 120.827 7.02552C121.421 6.9036 121.895 6.85059 122.193 6.81702C122.7 6.76048 123.26 6.72689 123.808 6.72159C124.402 6.71453 125.013 6.74103 125.577 6.79757C126.485 6.88769 127.187 7.03789 127.448 7.09797C127.909 7.20399 128.607 7.36655 129.473 7.73762C129.8 7.87721 130.293 8.08926 130.894 8.48507C131.306 8.75365 131.814 9.09114 132.247 9.67425C132.383 9.85625 132.505 10.063 132.625 10.3051C132.731 10.5224 132.799 10.6673 132.846 10.8811C132.889 11.0649 132.892 11.1974 132.892 11.2469V11.2628C132.891 11.337 132.882 11.4024 132.873 11.4536C132.866 11.4943 132.859 11.5261 132.853 11.5455C132.792 11.7734 132.659 11.9289 132.588 12.012C132.364 12.2735 131.917 12.512 131.33 12.6834C130.648 12.8831 130.085 12.9096 129.669 12.9114H129.632C128.008 12.9114 126.678 12.611 126.179 12.482C125.436 12.2894 123.891 11.8883 122.186 10.7733C121.773 10.503 121.375 10.2044 120.997 9.8863C120.594 9.5488 120.212 9.18656 119.848 8.80842C119.467 8.40908 119.106 7.99031 118.762 7.55739C118.597 7.34712 118.435 7.1333 118.276 6.91773C117.982 6.51839 117.71 6.11374 117.447 5.725C116.832 4.81677 116.194 3.90323 115.404 3.13636C115.242 2.97733 115.072 2.82359 114.895 2.67693C114.164 2.06732 112.934 1.21916 111.22 0.63428C108.935 -0.144967 106.879 -0.0654512 105.557 0.137754C104.391 0.317988 103.203 0.692592 102.122 1.22093C101.722 1.4153 101.173 1.71569 100.558 2.14154C99.7134 2.72641 98.7486 3.54453 97.8951 4.64714C97.5718 5.06238 97.0911 5.74798 96.6282 6.65798C96.402 7.1015 96.0734 7.81537 95.7977 8.69357C95.6528 9.15476 95.2111 10.556 95.1775 13.544C95.1616 15.0636 95.2358 16.1044 95.4125 17.8608C95.568 19.4104 95.773 21.4531 96.2995 24.0559C96.8862 24.0983 97.4728 24.1513 98.0577 24.2149C98.639 24.2785 99.2168 24.3562 99.7947 24.4393C100.341 24.5064 100.883 24.6019 101.424 24.6973C101.949 24.7909 102.473 24.8952 102.995 25.0083C103.514 25.1196 104.034 25.2415 104.55 25.374C105.064 25.5048 105.576 25.6444 106.085 25.7928C106.594 25.943 107.101 26.1003 107.603 26.2681C108.107 26.4342 108.605 26.6109 109.101 26.7947C109.596 26.9802 110.089 27.1728 110.577 27.376C111.065 27.5775 111.549 27.7895 112.029 28.0086C112.51 28.2277 112.987 28.4557 113.459 28.6925C113.932 28.931 114.401 29.1749 114.864 29.4293C115.328 29.682 115.788 29.9453 116.242 30.2156C116.283 30.2386 116.325 30.2633 116.364 30.2881C116.367 30.2898 116.371 30.2916 116.373 30.2934C119.172 31.9702 121.794 33.9599 124.195 36.2429C124.928 36.9408 125.642 37.6671 126.333 38.418C125.98 39.0542 125.605 39.6885 125.202 40.2893C121.926 36.5538 118.064 33.4545 113.704 31.0691C112.188 30.2386 110.632 29.5071 109.041 28.8745C109.038 28.8727 109.034 28.8709 109.031 28.8692C106.34 27.8019 103.551 27.0191 100.683 26.5279C100.395 26.4784 100.107 26.4307 99.8176 26.3883C99.5278 26.3441 99.2398 26.3035 98.95 26.2664C98.6602 26.2293 98.3704 26.1922 98.0806 26.1586C98.0806 26.1586 98.0471 26.1551 98.0312 26.1533C97.7396 26.1197 97.4445 26.0879 97.1512 26.0614C97.0134 26.0473 96.8738 26.0349 96.736 26.0243C97.2396 28.1058 97.8615 30.1167 98.5895 32.0303C98.5895 32.0303 98.8776 32.0763 98.9129 32.0816C99.0755 32.1081 99.2398 32.1364 99.4042 32.1664C99.8335 32.2424 100.263 32.3289 100.691 32.4173C100.913 32.4632 101.136 32.5092 101.358 32.5587C102.894 32.8926 104.405 33.3361 105.88 33.8733C107.274 34.3804 108.635 34.9741 109.957 35.6491C111.275 36.3241 112.552 37.0804 113.779 37.9127C115.009 38.7467 116.189 39.6585 117.306 40.6374C117.913 41.171 118.502 41.7241 119.073 42.2948C119.62 42.8408 120.15 43.408 120.665 43.9929C120.484 44.03 120.301 44.06 120.113 44.076C118.77 44.1979 117.737 43.6271 117.355 43.3762C116.532 42.8338 115.871 42.0563 115.115 41.4272C112.006 38.8403 108.393 36.8348 104.339 35.4406C103.935 35.301 103.525 35.1685 103.115 35.0413C102.703 34.9158 102.288 34.7922 101.871 34.6826C101.449 34.5695 101.026 34.4688 100.6 34.3734C100.219 34.2868 99.8353 34.2073 99.4501 34.1348C100.648 36.8631 102.072 39.3598 103.689 41.5492C105.29 43.7137 107.142 45.7493 109.842 45.9949C110.033 46.0126 110.218 46.0214 110.4 46.0214C111.771 46.0214 112.86 45.5602 113.531 45.1733C113.014 44.7068 112.48 44.2509 111.927 43.8038C111.429 43.9947 110.771 44.1449 110.017 44.076C108.469 43.9346 107.202 42.832 106.076 41.4767C106.055 41.4502 106.032 41.4237 106.009 41.3972C105.923 41.2894 105.836 41.1816 105.749 41.0721C105.576 40.8529 105.408 40.6303 105.242 40.4041C104.468 39.3581 103.74 38.2343 103.062 37.0468C104.067 37.372 105.044 37.7342 105.993 38.1371C108.601 39.2414 110.989 40.6356 113.132 42.3072C113.805 42.832 114.448 43.3921 115.077 43.9664C115.471 44.3251 115.848 44.6909 116.295 44.9842C116.979 45.4365 118.408 46.1663 120.288 45.9949C121.49 45.8854 122.637 45.4472 123.715 44.6873C123.328 44.1767 122.928 43.6731 122.513 43.1836C122.398 43.0476 122.28 42.9115 122.161 42.7772C120.96 41.4025 119.668 40.1232 118.299 38.9481C117.841 38.5523 117.373 38.1707 116.897 37.7996C112.558 34.414 107.527 32.0038 102.131 30.7546C101.433 30.5938 100.729 30.4506 100.019 30.3287C99.7805 29.6537 99.5543 28.9646 99.3423 28.2666C100.014 28.3638 100.678 28.4769 101.339 28.6077C104.965 29.3198 108.441 30.5231 111.69 32.1717C114.392 33.5411 116.935 35.2197 119.278 37.1829C119.59 37.4444 119.901 37.713 120.207 37.9851C120.514 38.259 120.818 38.5382 121.119 38.8227C121.419 39.1072 121.716 39.3969 122.008 39.6903C122.299 39.9854 122.589 40.284 122.872 40.5879C123.605 41.3724 124.301 42.1888 124.992 43.0122C125.013 43.037 125.266 43.3214 125.252 43.3356C126.536 41.9662 127.519 40.2822 128.231 38.9658C128.376 38.7008 128.517 38.4375 128.655 38.176C128.212 37.6459 127.757 37.1264 127.291 36.6192C127.289 36.6175 127.287 36.6139 127.284 36.6121C123.566 32.6823 119.242 29.4629 114.415 27.0279C109.771 24.6849 104.827 23.1582 99.6904 22.4779C99.1055 22.4002 98.5189 22.333 97.9287 22.2783C97.6071 20.4123 97.4534 18.8839 97.3314 17.6682C97.1618 15.986 97.0911 14.9947 97.1071 13.5669C97.1371 10.8652 97.5135 9.66718 97.6372 9.27314C97.8863 8.48153 98.1884 7.84364 98.3457 7.53265C98.6549 6.92834 99.0348 6.32402 99.4183 5.82926C100.178 4.85034 101.042 4.13648 101.781 3.64172C102.247 3.33072 102.661 3.10631 102.968 2.95435C103.878 2.50907 104.875 2.19455 105.852 2.04435C106.96 1.87295 108.683 1.8058 110.598 2.45959C112.107 2.97379 113.164 3.7442 113.66 4.15768C114.59 4.92986 115.251 5.90701 115.95 6.9407C116.214 7.33121 116.487 7.73408 116.779 8.13342C118.094 9.9287 119.557 11.36 121.131 12.3884C123.1 13.6747 124.852 14.1306 125.694 14.3497C126.402 14.5335 127.851 14.841 129.63 14.841H129.675C130.176 14.8392 130.949 14.8056 131.875 14.5335C132.306 14.408 132.689 14.2526 133.027 14.0705V14.0741C133.41 13.8497 133.813 13.5316 134.15 13.0775C134.313 12.8602 134.649 12.4096 134.776 11.7116C134.811 11.519 134.827 11.3352 134.825 11.1603C134.822 11.1197 134.818 11.0808 134.815 11.0401V11.0384Z" fill="#BC9667"/>
<path d="M230 88.7983H226.897L216.385 77.2934L216.438 77.2333L226.134 66.3574H229.129L218.567 76.4063L230 88.7983Z" fill="#122548"/>
<path d="M215.447 66.3574H213.107V88.7983H215.447V66.3574Z" fill="#122548"/>
<path d="M199.563 66.414L199.54 66.3574H197.448L188.823 88.7983H191.339L194.615 78.366H201.708L205.652 88.7983H208.164L199.563 66.414ZM194.893 77.4259L197.796 68.1881H197.859L201.356 77.4259H194.893Z" fill="#122548"/>
<path d="M186.436 86.9942V88.7983H169.402V88.0473L169.418 88.0244L183.508 67.172C183.204 67.1791 182.547 67.2038 181.361 67.2975L170.229 68.0997V66.3574H186.309V67.1102L186.293 67.1314L172.203 87.9837C172.616 87.9767 173.35 87.9396 174.35 87.8583L186.436 86.9942Z" fill="#122548"/>
<path d="M165.938 85.8853L165.733 87.9739L165.685 87.9951C163.904 88.7761 160.679 89.2426 158.589 89.2426C151.648 89.2426 146.414 84.2278 146.414 77.5768C146.414 70.9259 151.648 65.9111 158.589 65.9111C160.615 65.9111 163.801 66.367 165.619 67.1268L165.68 67.1515L165.508 69.0776H165.202L165.178 69.0546C163.644 67.6746 161.181 66.8512 158.589 66.8512C152.858 66.8512 149.008 71.1626 149.008 77.5768C149.008 83.991 152.858 88.3025 158.589 88.3025C161.23 88.3025 163.847 87.4067 165.591 85.9065L165.616 85.8853H165.938Z" fill="#122548"/>
<path d="M143.045 86.9942V88.7983H126.011V88.0473L126.027 88.0244L140.117 67.172C139.813 67.1791 139.156 67.2038 137.97 67.2975L126.838 68.0997V66.3574H142.918V67.1102L142.902 67.1314L128.812 87.9837C129.225 87.9767 129.958 87.9396 130.959 87.8583L143.045 86.9942Z" fill="#122548"/>
<path d="M122.626 83.1429C122.626 86.7917 119.907 89.2426 115.859 89.2426C114.131 89.2426 111.66 88.792 109.565 88.094L109.498 88.0711L109.704 86.0125H110.008L110.033 86.0355C111.639 87.4544 113.816 88.3025 115.859 88.3025C118.743 88.3025 120.605 86.6151 120.605 84.0017C120.605 81.7752 119.251 80.1885 115.433 77.9391C112.737 76.3541 109.95 74.7143 109.95 71.3747C109.95 68.0351 112.542 65.9111 116.399 65.9111C118.142 65.9111 120.352 66.3352 121.432 66.8741L121.487 66.9024L121.315 68.8231H121.004L120.978 68.7949C119.799 67.5244 118.216 66.8512 116.399 66.8512C113.71 66.8512 111.971 68.3142 111.971 70.5795C111.971 73.1523 114.267 74.4758 116.698 75.8788L116.767 75.9176C119.647 77.568 122.626 79.2749 122.626 83.1429Z" fill="#122548"/>
<path d="M103.997 66.3574L103.453 81.3981C103.26 86.5312 100.327 89.2436 94.9678 89.2436C89.1968 89.2436 85.7512 85.7149 85.7512 79.8043V66.3574H88.0907V79.8679C88.0907 84.9869 90.6899 87.9219 95.2223 87.9219C97.3939 87.9219 99.2846 87.2027 100.548 85.8987C101.684 84.7254 102.253 83.1686 102.195 81.3981L101.651 66.3574H103.997Z" fill="#122548"/>
<path d="M4.0641 66.3574H0V88.7983H2.3395V78.9385H4.0641C9.19723 78.9385 12.263 76.5866 12.263 72.648C12.263 68.7093 9.19723 66.3574 4.0641 66.3574ZM4.0641 77.9984H2.3395V67.2975H4.0641C7.86845 67.2975 9.79624 69.0981 9.79624 72.648C9.79624 76.1979 7.86845 77.9984 4.0641 77.9984Z" fill="#122548"/>
<path d="M20.479 66.3574H18.1395V88.7983H20.479V66.3574Z" fill="#122548"/>
<path d="M38.5489 87.0508V88.7983H28.576V66.3574H38.4535V68.105L32.7867 67.3611C31.928 67.2462 31.2848 67.1809 30.9155 67.172V76.6944C31.2212 76.6891 31.8113 76.659 32.7938 76.599L38.1036 76.2756V77.926L32.7938 77.6026C31.8113 77.5425 31.2212 77.5143 30.9155 77.509V87.9855C31.3042 87.9767 31.9439 87.9131 32.8185 87.7964L38.5489 87.0508Z" fill="#122548"/>
<path d="M60.6722 66.3574V68.1686L54.3392 67.3611C53.4575 67.2462 52.8143 67.1826 52.4662 67.172V88.7983H50.1267V67.172C49.7804 67.1826 49.1372 67.2462 48.2555 67.3611L41.9208 68.1686V66.3574H60.6722Z" fill="#122548"/>
<path d="M82.3136 88.4485V88.7983H80.9212C78.1382 88.7983 76.9843 87.5349 75.7792 83.1687C74.6537 79.1116 72.7206 77.221 69.6937 77.221H69.4145V76.4717H69.6937C73.0793 76.4717 74.7261 74.961 74.7261 71.8528C74.7261 68.7447 73.1835 67.2975 70.0118 67.2975H68.0009V88.7983H65.6614V66.3574H70.0118C74.5759 66.3574 77.1928 68.3488 77.1928 71.821C77.1928 74.5174 75.5902 76.3251 72.6764 76.9188V76.9665C75.2774 77.5266 77.1557 79.5534 78.1117 82.8329C79.3309 87.102 80.3717 88.0102 82.2447 88.4326L82.3136 88.4485Z" fill="#122548"/>
</svg>
